<svg xmlns="http://www.w3.org/2000/svg" width="900" height="820" viewBox="0 0 900 820"><path d="M897.978,695.648a131.168,131.168,0,0,1-15.822-37.059,244.3,244.3,0,0,0-9.393-28.705l-3.589-9.189c-5.386-14.012-8.641-22.4-15.238-38.881-6.888-17.163-14.151-34.591-20.874-51.412-3.131-7.593-6.219-15.187-9.308-22.516s-5.8-14.277-8.682-21.453c-6.347-15.795-12.9-32.16-20.165-47.955l-.459-1.025c-11.772-25.517-23.879-51.829-42.08-74.878-22.208-28.212-49.676-41.272-83.993-39.754h-8.767l-.25-.987a11.644,11.644,0,0,1-.626-2.62c-3.216-34.172-6.512-67.966-9.643-101.95-.376-4.442-.752-8.922-1.045-13.441-.417-6.113-.876-12.529-1.627-18.984-1.378-12.264-2.838-24.453-4.174-36.679-1.838-15.188-3.759-30.642-5.428-45.982a273.74,273.74,0,0,0-12.107-58.132c-4.868-14.681-15.849-27.052-30.6-34.477a88.008,88.008,0,0,0-32.772-9A260.915,260.915,0,0,0,516,1.518C498.091,3,479.766,3.835,462.064,4.594c-13.232.57-26.884,1.177-40.285,2.05-16.7,1.063-33.4,2.772-50.1,4.4l-16.7,1.671c-6.136.608-12.524,1.291-18.451,1.974-11.9,1.367-24.172,2.734-36.277,3.341a199.951,199.951,0,0,0-44.627,7.784,45.653,45.653,0,0,0-18.369,9.8c-10.479,9.606-14.9,22.592-17.91,34.173a68,68,0,0,0-2.086,19.251,7,7,0,0,1-.836,4.635,8.028,8.028,0,0,1-3.672,3.3,162.574,162.574,0,0,0-44.5,34.173,290.98,290.98,0,0,0-29.849,40.59A143.911,143.911,0,0,0,119.914,217.6c-3.883,18.15-7.306,36.6-10.562,54.526-1.628,8.658-3.173,17.353-4.843,26.008-.459,2.278-1.044,4.557-1.67,6.8-.334,1.252-.71,2.582-1,3.8a7.366,7.366,0,0,1-1.8,3.243,8.377,8.377,0,0,1-3.251,2.111c-6.888,3.151-13.651,6.34-20.08,9.605C54.121,335.086,29.825,347.311,5.445,359.8a9.758,9.758,0,0,0-4.926,5.621,23.905,23.905,0,0,0,0,9.909,7.63,7.63,0,0,0,1.416,4.024,8.7,8.7,0,0,0,3.445,2.832,9.692,9.692,0,0,0,4.544.876,9.553,9.553,0,0,0,4.413-1.316c7.055-3.151,14.11-6.569,20.873-9.909l1.878-.95c3.548-1.747,7.1-3.532,10.562-5.354,6.679-3.416,13.568-6.948,20.581-9.947a375.675,375.675,0,0,0,42.915-21.72,15.2,15.2,0,0,0,5.637-5.386,13.473,13.473,0,0,0,1.961-7.22c.543-10.1,1.378-22.1,3.256-34.172,1.962-12.8,4.508-25.706,7.013-38.2l1.837-9.189c2.88-14.541,5.845-29.616,12.983-43.361a224.746,224.746,0,0,1,13.484-23.618c9.852-14.884,21.75-31.781,38.7-44.045,10.437-7.594,21.667-14.695,32.52-21.491l4.717-3a48.325,48.325,0,0,1,7.891-3.8l3.214-1.291a6.053,6.053,0,0,0,.543,1.671,39.239,39.239,0,0,0,1.753,4.671l.708,1.595a33.463,33.463,0,0,0,4.176,7.138c12.107,14.543,28.679,19.9,50.721,16.327a28.638,28.638,0,0,0,15.446-7.936A50.262,50.262,0,0,0,332.819,87.6a23.584,23.584,0,0,1,.458-3.8v-.532a21.114,21.114,0,0,1,8.476,9.676,18.888,18.888,0,0,1,.876,12.346A42.8,42.8,0,0,1,327.1,128.452a191.456,191.456,0,0,1-18.451,12.834c-5.386,3.19-10.981,6.265-16.365,9.3-7.3,3.987-14.82,8.164-21.958,12.644a94.879,94.879,0,0,0-19.7,16.137c-15.488,16.744-24.3,38.274-27.885,67.777a272.92,272.92,0,0,0-1.212,33v7.593c0,15.416,0,32.046.543,50.879a144.683,144.683,0,0,1-16.03,68.84,150.076,150.076,0,0,1-23.879,32.921,220.74,220.74,0,0,1-36.235,34.591c-4.676,3.341-6.22,7.175-4.175,10.517a16.165,16.165,0,0,0,4.463,5.527,18.141,18.141,0,0,0,6.6,3.32,5.51,5.51,0,0,0,3.674-.76l4.175-2.506a117.244,117.244,0,0,0,11.814-7.6,165.943,165.943,0,0,0,48.8-58.283l.5-1.025A13.79,13.79,0,0,1,225.447,419v1.52c0,2.049.252,3.8.293,5.5v5.506a84.38,84.38,0,0,0,.376,9.682l1.295,18.567c1.753,25.554,3.589,52.056,5.719,78.1a241.832,241.832,0,0,0,4.758,29.92,29.5,29.5,0,0,0,6.19,14A33.533,33.533,0,0,0,256.8,591.5a60.3,60.3,0,0,1,5.551,2.885l1.671.912-1.421.95a47.88,47.88,0,0,1-4.174,2.772l-24.839,14.96c-17.45,10.48-35.484,21.339-53.059,32.16-2.213,1.329-4.509,2.658-6.763,3.8-8.1,4.671-16.489,9.416-22,17.276l-.251.381v.417c2.547,7.937,4.634,10.48,12.274,9.722a15.184,15.184,0,0,0,6.47-2.507c11.689-7.1,23.294-14.2,34.942-21.339l29.013-17.732c21.876-13.289,39.618-24.034,55.982-33.793a10.628,10.628,0,0,1,5.51-1.481,75.9,75.9,0,0,1,8.808.835c2.881.342,6.138.683,9.226.835l5.471.266c12.815.646,26.006,1.329,39.032,1.366,9.6,0,19.329-.608,28.763-1.252l5.26-.342c12.063-.8,24.463-1.785,36.861-2.924a6.857,6.857,0,0,1,3.521.233,6.243,6.243,0,0,1,2.823,1.931,75.889,75.889,0,0,1,4.884,6.038l8.35,11.809c7.765,10.821,15.822,22.022,23.294,33.223l3.005,4.4a232.012,232.012,0,0,1,18.953,31.363c4.76,10.253,6.262,13.062,7.14,14.733a137.983,137.983,0,0,1,7.014,16.67c3.172,7.783,5.927,15.87,8.348,23.692,1.838,5.544,3.8,11.392,5.845,16.782,1.795,4.861,3.757,9.722,5.677,14.506,2.881,7.062,5.886,14.391,8.35,21.718,1.877,5.963,7.1,20.05,14.151,22.782a7.318,7.318,0,0,0,2.505.456,6.9,6.9,0,0,0,2.879-.646,12.913,12.913,0,0,0,4.4-2.205,11.6,11.6,0,0,0,3.09-3.6,10.6,10.6,0,0,0,1.291-4.412,10.472,10.472,0,0,0-.719-4.519c-1.045-3.228-2.088-6.417-3.09-9.645-4.593-14.125-9.267-28.743-14.653-42.9-6.012-15.645-6.512-16.822-8.057-20.352-1.086-2.506-2.672-6.265-7.222-17.353-1.795-4.367-3.883-8.7-5.886-12.833l-1.5-3.039a486.041,486.041,0,0,0-36.82-60.751c-2.253-3.191-4.174-6.456-6.553-9.645-5.721-8.581-11.648-17.465-18.119-25.781-7.472-9.568-15.614-18.985-23.42-28.137-3.8-4.442-7.639-8.847-11.355-13.327a36.052,36.052,0,0,1-2.67-3.8c-.25-.379-.543-.76-.793-1.177l1.084-.875c1-.8,1.838-1.481,2.714-2.087a49.366,49.366,0,0,0,19.343-29.039,45.974,45.974,0,0,0-5.566-33.574c-10.814-17.011-25.926-23.884-47.634-21.566A39.13,39.13,0,0,0,371.1,478.764a16.7,16.7,0,0,1-2.421,1.745,15.126,15.126,0,0,1-.386-7.537,15.868,15.868,0,0,1,3.333-6.91,17.87,17.87,0,0,1,6.357-4.848,19.669,19.669,0,0,1,8.063-1.777,73.357,73.357,0,0,1,48.134,10.48c14.193,8.239,27.594,17.732,41.244,27.489a355.8,355.8,0,0,1,40.911,36.261l7.222,7.062a248.173,248.173,0,0,1,24.631,27.643c8.934,11.846,18.619,23.428,27.8,34.172A118.628,118.628,0,0,0,589.265,615.8c3.589,3.076,7.681,2.81,12.022-.835a6.885,6.885,0,0,0,2.09-1.984,6.211,6.211,0,0,0,1.016-2.588,6.041,6.041,0,0,0-.238-2.738,6.436,6.436,0,0,0-1.448-2.41c-1-1.558-2.214-3-3.34-4.442l-1.421-1.785-9.267-12.038Q574.9,569.1,561.212,551.172a17.627,17.627,0,0,1-3.174-6.417q-2.5-9.909-4.841-19.858c-2.631-10.859-5.345-22.1-8.35-33.035a169.334,169.334,0,0,0-39.075-70.282c-12.9-14.01-26.842-26.883-38.739-37.628-10.229-9.266-20.874-18.3-31.562-27L425.12,348.3l-4.176-3.57A110.163,110.163,0,0,1,395.9,319.251a182.755,182.755,0,0,1-16.155-34.476,38.662,38.662,0,0,1-.335-23.2,14.583,14.583,0,0,1,4.92-7,16.9,16.9,0,0,1,8.315-3.442c-.419.76-.836,1.556-1.212,2.353-1.586,2.886-3.172,5.923-4.55,8.962a32.6,32.6,0,0,0-3.123,19.318,33.98,33.98,0,0,0,8.592,17.893c9.31,10.859,22.751,15.605,39.951,13.973a57.452,57.452,0,0,0,21.089-6.3,52.272,52.272,0,0,0,16.483-13.52c.919-1.025,1.921-2.012,2.922-3.076l.878-.91,7.138,4.784c5.719,3.8,11.146,7.593,16.365,11.39,16.7,12.15,31.31,23.124,45.92,34.591a169.666,169.666,0,0,1,51.432,63.069c3.674,8.049,6.764,14.77,10.1,21.491a603.453,603.453,0,0,1,34.441,82.661c3.172,10.1,5.091,11.39,17.115,11.163a3.557,3.557,0,0,0,1.46-.381h.417a10.87,10.87,0,0,0,3.616-5.831,10.173,10.173,0,0,0-.735-6.661c-.708-2.049-1.46-4.061-2.171-6.038s-1.545-4.251-2.253-6.417a578.815,578.815,0,0,0-32.9-80.495l-3.422-6.987a238.912,238.912,0,0,0-23.67-40.666c-2.379-3.151-4.884-6.19-7.514-9.568l-3.048-3.8a21.229,21.229,0,0,0,2.129-.3c2.338-.266,4.174-.456,6.053-.494,5.176,0,10.479.265,15.572.494h3.255a40.375,40.375,0,0,1,22.251,7.593c16.281,11.694,27.26,27.491,36.235,41.387a394.673,394.673,0,0,1,25.967,49.361c2.879,6.19,5.886,12.606,8.932,18.985,4.176,8.391,8.808,17.011,14.4,26.579a7.527,7.527,0,0,0,1.85,2.654,8.448,8.448,0,0,0,2.873,1.747,9.091,9.091,0,0,0,3.4.537,8.96,8.96,0,0,0,3.352-.762,9.509,9.509,0,0,0,4.8-4.176,8.232,8.232,0,0,0,.793-6,61.71,61.71,0,0,0-3.715-10.63c-2.129-4.709-4.174-9.378-6.512-14.125s-5.052-10.784-7.472-16.253a590.922,590.922,0,0,0-40.327-76.167,108.885,108.885,0,0,0-24.631-27.148,16.968,16.968,0,0,1-1.879-1.785,1.18,1.18,0,0,0-.335-.3l4.8-.3c4.591-.342,8.976-.608,13.15-1.139a51.865,51.865,0,0,1,23.212,2.81,74.294,74.294,0,0,1,31.81,21.643,209.3,209.3,0,0,1,27.344,39.148,777.771,777.771,0,0,1,41.746,90.369c2.672,6.683,5.3,13.479,7.765,20.125s5.636,14.656,8.6,21.983,6.6,15.834,9.851,23.467c3.883,9.149,7.889,18.529,11.6,27.868,7.014,17.619,9.1,22.328,11.522,27.718,2.088,4.786,4.508,10.215,10.77,25.706a228.876,228.876,0,0,1,7.807,23.617,140.643,140.643,0,0,0,14.027,35.5,21.074,21.074,0,0,0,3.548,4.707,12.5,12.5,0,0,0,7.276,3.3,12.979,12.979,0,0,0,7.92-1.667C900.609,705.216,901.235,701.457,897.978,695.648ZM301.342,114.1c-7.763,6.341-17.617,4.443-24.5,1.747-10.644-4.215-15.488-11.885-14.736-23.427A136.618,136.618,0,0,1,309.066,80.04C317.081,92.3,310.693,106.278,301.342,114.1Zm77.69,383.5a31.276,31.276,0,0,1,18.4-12.687,34.252,34.252,0,0,1,22.968,2.17,21.977,21.977,0,0,1,8.094,6.927,19.418,19.418,0,0,1,3.513,9.59,27.069,27.069,0,0,1-1.121,14.785,29.51,29.51,0,0,1-8.856,12.439c-2.714,2.316-5.51,4.48-8.35,6.721l-3.34,2.582-.793-.494a6.78,6.78,0,0,1-1.712-1.329c-5.26-6.646-10.521-13.366-15.822-20.01q-6.261-8.088-12.524-16.138a3.459,3.459,0,0,1-1.163-2.078,3.3,3.3,0,0,1,.5-2.288Zm-3.3,33.491c5.845,7.821,11.9,15.87,17.993,23.692,3.841,4.861,8.1,9.568,12.233,14.125,1.921,2.089,3.839,4.215,5.677,6.3,1.084,1.177,2.127,2.391,3.3,3.8l.878.987h-.667a13.293,13.293,0,0,1-3.09.683l-2.673.227c-5.008.418-10.227.835-15.32.912-8.35.227-16.7.608-25.048,1.025a373.985,373.985,0,0,1-63.871-.608,81.855,81.855,0,0,1-32.187-9.416,28.765,28.765,0,0,1-9.4-8.059A25.687,25.687,0,0,1,258.8,553.83a342.846,342.846,0,0,1-4.634-35.349c-.96-13.214-1.753-26.579-2.505-39.6-1.084-18.984-2.171-38.54-3.881-57.827-.335-3.495-.628-7.025-.96-10.557-1.8-19.175-3.548-38.994-3.507-58.55v-7.175c0-8.734,0-17.732-.669-26.579a432,432,0,0,1-.417-69.219,84.713,84.713,0,0,1,5.052-21.112c.878-2.658,1.795-5.277,2.505-7.935a76.207,76.207,0,0,1,2.546-7.254,80.361,80.361,0,0,0,3.214-9.834,20.945,20.945,0,0,1,3.507-7.593c.584,10.061,1.169,20.087,1.586,30.149,0,75.94,8.015,152.411,17.326,227.82,1.669,13.175,3.548,30.755,11.062,42.109,17.784,26.92,46.506,20.427,74.6,19.971,3.926,5.317,7.891,10.669,11.9,15.986ZM530.194,512.67c.626,1.822,1.045,3.8,1.5,5.734a9.455,9.455,0,0,0,.458,2.089l-2.338-1.822a69.214,69.214,0,0,1-6.177-5.088c-2.714-2.658-5.51-5.277-8.35-7.937l12.524-.569q1.044,3.95,2.3,7.785ZM456.346,283.94c-3.674,10.822-11.4,16.67-22.96,17.313a26.137,26.137,0,0,1-15.537-2.772,22.661,22.661,0,0,1-10.3-10.934,42.541,42.541,0,0,1-3.257-9.834l-.834-3.076a29.071,29.071,0,0,1,7.555-19.44c3.383-3.532,5.178-3.8,9.143-1.747,6.679,3.8,12.9,7.593,18.077,10.936,2.879,1.86,5.677,3.8,8.348,5.886s4.717,3.378,7.14,5.011a7.039,7.039,0,0,1,3.086,3.992,6.428,6.428,0,0,1-.539,4.855ZM571.94,335.921c-2.253.721-3.422,0-5.217-1.633l-.919-.76-20.872-16.289-16.7-13.137a26.34,26.34,0,0,0-3.631-2.241l-.878-.456-33.939-25.592-1-.721c-13.61-9.872-27.679-20.087-42.039-29.465a90.217,90.217,0,0,0-42.665-13.858c-14.9-1.291-34.817,9.226-41.746,22.137a49.976,49.976,0,0,0-4.761,38.577,19.98,19.98,0,0,1,.5,3v.912l14.151,26.237A170.535,170.535,0,0,0,413.1,364.17c12.024,8.77,23.17,18.3,32.479,26.579a628.852,628.852,0,0,1,48.051,47.083,127.72,127.72,0,0,1,24.8,40.933c1.378,3.53,2.672,7.137,3.924,10.745L510.074,490l-12.524.456c-9.143-7.593-19.162-15.189-30.308-23.428a140.2,140.2,0,0,0-41.748-21.187,114.68,114.68,0,0,0-42.956-3.8,37.585,37.585,0,0,0-20.091,8.753,32,32,0,0,0-10.593,17.826,58.173,58.173,0,0,0,3.424,32.654l-6.221.267c-10.06.569-20.081,1.556-30.1-1.027a12.7,12.7,0,0,1-6.388-3.8,27.173,27.173,0,0,1-5.343-9.112,111.835,111.835,0,0,1-4.967-17.278c-1.838-10.29-4.926-20.389-5.719-30.869-.417-5.848-1.588-11.657-2.214-17.465-1.169-12.113-2.171-24.225-3.3-36.3-1.086-11.39-2.3-22.782-3.548-33.945-.752-6.721-1.8-13.441-2.464-20.123s-1.128-13.518-1.712-20.239c-.209-2.847-.752-5.734-1.043-8.618-.376-3.8-.628-7.6-.919-11.392a31.9,31.9,0,0,0-.335-5.657c-.417-4.557-1.169-9.076-1.419-13.631-.626-10.784-.96-21.53-1.46-32.275-.376-7.593-.71-14.922-1.21-22.326-.5-7.974-1.212-15.909-1.8-23.884-.25-4.215-.541-8.391-.793-12.606A185.225,185.225,0,0,1,294.7,168.814l1.545-.873a293.29,293.29,0,0,0,39.992-24.263,54.017,54.017,0,0,0,21.291-31.515,38.968,38.968,0,0,0,.919-9.454l10.395-.949c6.846-.608,13.693-1.253,20.539-1.709s13.526-.493,20.246-.987c10.062-.721,20.081-1.709,30.184-2.392,13.065-.949,26.132-1.861,39.24-2.506,11.772-.57,23.544-1.633,35.318-2.506a123.821,123.821,0,0,1,28.3,0c4.676.721,9.434.873,14.069,1.784a21.36,21.36,0,0,1,8.674,3.507,18.965,18.965,0,0,1,5.979,6.707c2,3.8,3.589,7.822,5.26,11.809a11.393,11.393,0,0,1,.5,2.924c.543,7.328,1.086,14.694,1.545,22.061.25,3.8.626,7.594.626,11.619a294.5,294.5,0,0,0,2.171,38.806c.793,6.417,1.5,12.871,2.005,19.365.793,9.491,1.334,18.984,2.086,28.591q1.379,17.125,2.966,34.172c1.795,19.706,3.922,39.414,6.095,59.081a84,84,0,0,0-22.794,4.026Zm55.816-6.91c-2.464,1.139-4.635,2.126-6.846,2.962a10.292,10.292,0,0,1-4.467.683l-4.967-.342c-5.178-63.182-14.779-126.1-16.283-189.433-.417-17.732-.876-37.211-13.608-50.69C559.75,69.523,518.422,76.281,489.2,77.117c-5.595,0-11.188-.266-16.7,0-7.933.38-15.822,1.253-23.755,1.671-9.141.532-18.284.721-27.427,1.139-4.174.266-8.348.684-12.815,1.1-3.3.266-6.6.608-9.895.911a82.489,82.489,0,0,0-8.682.608q-10.539,2.172-21.291,3.3c-4.926.532-9.81.873-14.736,1.1a41.569,41.569,0,0,0-5.762-7.594,98.014,98.014,0,0,0-16.7-13.973A24.13,24.13,0,0,0,318,61.587a44.992,44.992,0,0,0-10.853,1.519c-14.11,3.8-28.3,8.012-42.039,12.15-4.426,1.367-8.808,2.734-13.276,4.025-3.715,1.1-7.472,2.392-11.1,3.607l-4.176,1.4a1.793,1.793,0,0,1-.291-.8c.667-2.468,1.293-4.9,1.921-7.366,1.795-6.986,3.672-14.2,5.927-21.149a18.876,18.876,0,0,1,5.244-7.421,21.413,21.413,0,0,1,8.364-4.464A116.889,116.889,0,0,1,278.591,38.5c9.895-1.367,20-2.392,29.806-3.417L319,34.021c5.971-.645,11.022-1.177,15.7-1.519l17.156-1.481c14.362-1.253,29.222-2.544,43.792-3.455,12.524-.721,25.048-1.253,37.572-1.785,9.393-.342,19.12-.721,28.722-1.253,7.346-.38,14.736-.911,21.917-1.481,8.85-.608,17.993-1.291,26.966-1.671,10.353-.418,20.874-.532,31.1-.646,5.971,0,11.983,0,17.951-.266,8.934-.19,16.7,3.151,25.048,10.518,10.688,9.455,17.576,21.719,21.582,38.54,5.8,24.339,7.1,49.361,8.35,73.51l.291,4.86c1.8,34.173,3.633,69.522,6.429,104.228,1.252,15.643,3.424,31.438,5.469,46.779q1.5,10.745,2.838,21.529c0,1.785.376,3.607.5,5.43v2.014Z"/></svg>