<svg width="36" height="39" viewBox="0 0 36 39" fill="none" xmlns="http://www.w3.org/2000/svg">
<path d="M4.80666 10H31.1933C32.2463 10 33.1189 10.8164 33.1889 11.867L34.7889 35.867C34.8659 37.0213 33.9503 38 32.7933 38H3.20666C2.04973 38 1.13413 37.0213 1.21109 35.867L2.81109 11.867C2.88113 10.8164 3.75373 10 4.80666 10Z" stroke="#5F6368" stroke-width="2"/>
<path d="M9 15.5V5.08615C9 4.38434 9.24605 3.70474 9.69534 3.1656L10.6005 2.07945C11.1704 1.39547 12.0148 1 12.9051 1H22.7574C23.553 1 24.3161 1.31607 24.8787 1.87868L26.1213 3.12132C26.6839 3.68393 27 4.44699 27 5.24264V15.5" stroke="#5F6368" stroke-width="2"/>
</svg>
