<svg width="200" height="179" viewBox="0 0 200 179" fill="none" xmlns="http://www.w3.org/2000/svg">
<g clip-path="url(#clip0_990_11595)">
<path d="M199.786 156.248C199.723 155.486 199.661 154.724 199.607 153.962V153.496C199.5 151.848 199.384 150.136 199.348 148.46C199.348 147.08 199.33 145.7 199.295 144.32C199.295 142.241 199.295 140.09 199.179 137.967C199.072 135.359 198.911 132.706 198.759 130.152C198.625 127.939 198.482 125.672 198.384 123.396C198.072 116.675 197.804 109.837 197.545 103.233L197.393 99.2364C197.384 96.6061 197.099 93.984 196.545 91.4132C196.473 90.9941 196.285 90.6038 196.002 90.2868C195.72 89.9699 195.354 89.7392 194.947 89.621C193.903 89.2325 192.79 89.0677 191.679 89.1371C190.912 89.1998 190.117 89.1908 189.349 89.1819C188.831 89.1819 188.322 89.1819 187.805 89.1819L184.76 89.2894L182.314 89.388C182.002 89.388 181.689 89.388 181.35 89.388H181.073L181.011 86.9147C181.011 84.7371 180.912 82.6043 180.85 80.4805C180.737 76.3703 180.609 72.2601 180.466 68.1499C180.466 67.0746 180.386 65.9903 180.332 64.9149C180.225 62.7194 180.109 60.4343 180.18 58.2209C180.305 54.1077 180.18 49.8422 179.93 45.5498C179.788 43.4797 179.716 41.2484 179.68 38.327C179.68 37.2965 179.68 36.0061 178.279 35.343C178.127 35.2802 177.984 35.1906 177.832 35.11C177.475 34.8698 177.07 34.7108 176.645 34.644C173.877 34.42 170.985 34.2497 168.03 34.1243C166.369 34.0526 164.709 33.9988 163.048 33.954C161.387 33.9092 159.691 33.8464 158.013 33.7748C157.281 33.7748 156.575 33.6493 155.816 33.5507L155.049 33.4522C155.049 33.2102 155.049 32.9772 155.049 32.7532C155.049 32.1797 155.049 31.651 155.049 31.1133C155.049 30.3247 155.129 29.5451 155.174 28.7565C155.254 27.4392 155.334 26.0681 155.352 24.7419C155.352 23.1199 155.352 21.48 155.352 19.8939V17.8238C155.352 17.6804 155.352 17.546 155.352 17.3937C155.352 16.7664 155.352 16.1391 155.352 15.5029C155.352 14.2573 155.424 13.0206 155.433 11.766C155.433 10.1351 155.433 8.49521 155.352 6.90012V6.61336C155.348 6.01418 155.31 5.41574 155.236 4.82112C155.198 4.43564 155.082 4.06198 154.896 3.72295C154.709 3.38393 154.455 3.08667 154.15 2.84932C153.845 2.61197 153.496 2.43953 153.122 2.34252C152.748 2.24551 152.359 2.22597 151.978 2.2851H151.558C150.948 2.37 150.329 2.37 149.719 2.2851C147.432 1.92572 145.123 1.72511 142.809 1.6847C141.916 1.6847 141.023 1.54132 140.13 1.43378L138.898 1.29936L93.4738 -0.107544C93.1792 -0.107544 92.8489 -0.107544 92.5275 -0.107544C91.5975 -0.104882 90.7 0.235736 90.0009 0.851304C89.6259 1.13806 89.2777 1.46067 88.9385 1.74742C88.5992 2.03418 88.4118 2.23133 88.135 2.45536C86.2512 4.00565 84.3496 5.5649 82.448 7.0883C81.0106 8.25326 79.5108 9.40029 78.0466 10.5294L77.6984 10.8162C77.4217 11.0874 77.0897 11.2953 76.7253 11.4255C76.4834 11.4646 76.252 11.5532 76.0457 11.6858C75.8393 11.8185 75.6624 11.9924 75.5259 12.1966C75.3894 12.4009 75.2962 12.6312 75.2522 12.8732C75.2082 13.1151 75.2143 13.3636 75.2701 13.6031C75.1986 16.8919 75.1451 20.1717 75.0915 23.4604L75.029 27.4661C75.029 28.7117 74.9754 29.9573 74.9308 31.2387V32.6815H74.6005C74.1898 32.6815 73.8327 32.6815 73.4667 32.6815C70.1991 32.6815 66.9226 32.6815 63.6461 32.6815C60.6821 32.7263 57.7627 32.8338 55.5575 32.9234C54.9985 32.8752 54.4394 33.0144 53.9676 33.3192C53.4959 33.6241 53.1382 34.0774 52.9506 34.6082C52.8896 34.7339 52.8047 34.8466 52.7007 34.9397L51.5311 36.1405C50.6383 37.0814 49.7456 38.0134 48.8528 38.9543C48.5403 39.2859 48.2368 39.6354 47.96 39.9849C47.6833 40.3344 47.2904 40.7555 46.9422 41.114C46.1744 41.9115 45.3977 42.6822 44.6299 43.4618C43.3711 44.7343 42.0677 46.0426 40.8267 47.3779C38.8983 49.4658 37.0056 51.6434 35.1754 53.7493L34.113 54.977C33.5686 55.5687 33.2742 56.3493 33.2917 57.1545C33.2917 57.4771 33.3542 57.7997 33.3988 58.1223C33.457 58.5051 33.4898 58.8913 33.497 59.2783C33.497 62.4327 33.497 65.5512 33.4256 68.7414V68.9027C33.4359 69.0792 33.3991 69.2552 33.3191 69.4128C33.2391 69.5703 33.1187 69.7035 32.9703 69.7988C30.6005 71.735 28.5983 74.0846 27.0601 76.7348C26.1236 78.2375 25.3286 79.8245 24.6853 81.4752C23.3573 84.6009 22.3115 87.8399 21.5606 91.1533C21.4267 91.8523 21.4267 91.8434 20.7928 91.8434C19.5072 91.8434 18.1948 91.8434 16.936 91.8434C14.5281 91.9447 12.1164 91.9028 9.71342 91.7179C8.91948 91.6731 8.12365 91.6731 7.32971 91.7179C6.96367 91.7179 6.59763 91.7179 6.22266 91.7179H6.01732L5.95483 91.915C5.90126 92.0853 5.86555 92.2376 5.82091 92.381L5.74056 92.6678C5.22934 94.8166 4.9303 97.0107 4.84778 99.2184C4.84778 99.6127 4.79422 100.016 4.75851 100.41C4.41033 104.81 4.08 109.255 3.76753 114.004C3.52648 117.392 3.31221 120.788 3.09794 124.184L2.83904 128.253C2.78547 129.203 2.72298 130.152 2.66941 131.102C2.53549 133.316 2.40157 135.583 2.21409 137.859C2.08017 139.544 1.89269 141.246 1.72306 142.904C1.56236 144.374 1.41059 145.844 1.27668 147.322C1.16061 148.648 1.08919 150.011 1.01777 151.31C1.01777 151.928 0.955276 152.547 0.910637 153.165L0.830287 154.545C0.767792 155.665 0.714226 156.785 0.624948 157.905C0.624948 158.479 0.517814 159.052 0.446392 159.617C0.37497 160.181 0.33926 160.513 0.294621 161.006C0.249983 161.499 0.241053 161.687 0.205342 162.027C0.116064 163.04 0.0178611 164.098 0.0267889 165.128C0.0267889 166.66 0.669587 167.386 2.2498 167.619C2.91909 167.702 3.59311 167.741 4.26748 167.736H8.31176C10.9901 167.736 13.8381 167.736 16.5878 167.87C21.1678 168.103 25.3013 168.282 29.542 168.094C32.3453 167.96 35.2469 167.816 38.1573 167.798C39.5679 167.798 40.9963 167.798 42.3891 167.861C43.4515 167.861 44.5139 167.924 45.5852 167.933C49.7366 167.933 53.9416 167.933 58.0841 167.933L64.4853 167.879C68.0564 167.879 71.7168 167.807 75.3326 167.816C75.9625 167.866 76.5946 167.754 77.1693 167.49C77.7441 167.227 78.2426 166.821 78.618 166.311C79.0118 165.855 79.219 165.266 79.1983 164.662C79.0733 162.502 78.9751 160.343 78.8858 158.183C78.8858 157.699 78.8858 157.215 78.8858 156.705C78.8858 156.57 78.8858 156.427 78.8858 156.283H79.2965C79.7875 156.283 80.2428 156.283 80.6982 156.283L84.0729 156.489C85.9298 156.606 87.8493 156.722 89.7331 156.812C91.8132 156.902 93.9202 156.955 95.9825 157L98.8126 157.072C99.134 157.072 99.4554 157.072 99.7679 157.126C99.7679 157.556 99.7679 158.022 99.7679 158.407C99.7679 159.617 99.7679 160.764 99.7679 161.92C99.5746 163.32 99.8577 164.744 100.571 165.961L100.643 166.069H100.768L101.089 166.114C101.426 166.169 101.766 166.205 102.107 166.221H103C105.321 166.284 107.714 166.338 110.062 166.356C112.41 166.374 114.526 166.356 116.749 166.356H120.802C122.293 166.356 123.668 166.356 124.998 166.418C125.151 166.411 125.304 166.426 125.453 166.463C125.474 166.621 125.474 166.781 125.453 166.938C125.453 167.135 125.391 167.333 125.355 167.53C125.247 168.088 125.185 168.655 125.167 169.223C125.146 169.823 125.092 170.421 125.007 171.016C124.853 171.927 124.811 172.854 124.882 173.776C124.874 173.92 124.844 174.062 124.792 174.197C124.578 174.856 124.626 175.572 124.925 176.197C125.225 176.821 125.753 177.305 126.399 177.548C127.064 177.777 127.753 177.924 128.453 177.987C130.801 178.202 133.586 178.435 136.416 178.606L138.059 178.722C139.354 178.812 140.657 178.91 141.978 178.91C143.012 178.916 144.045 178.841 145.067 178.686L146.228 178.48C146.683 178.391 147.121 178.31 147.612 178.238L152.835 177.495C156.093 177.046 159.459 176.598 162.753 176.034C166.976 175.335 171.181 174.475 175.127 173.65C176.913 173.283 178.698 172.853 180.421 172.44C182.011 172.064 183.653 171.67 185.278 171.32C187.162 170.917 189.09 170.576 190.956 170.245L193.59 169.77H193.715L193.786 169.653L193.92 169.34C193.968 169.214 194.034 169.096 194.117 168.99C194.383 168.834 194.583 168.587 194.682 168.293C194.78 168 194.77 167.681 194.652 167.395L194.224 165.262C193.983 164.026 193.733 162.798 193.492 161.562C193.444 161.355 193.409 161.145 193.385 160.934V160.836H193.536C193.777 160.836 193.992 160.836 194.206 160.836H195.572C196.465 160.836 197.357 160.836 198.304 160.773C198.556 160.805 198.813 160.782 199.056 160.707C199.3 160.631 199.524 160.504 199.714 160.334C199.999 159.914 200.111 159.401 200.027 158.9C199.938 158.022 199.857 157.135 199.786 156.248ZM126.578 157.323C126.423 158.518 126.28 159.745 126.149 161.006L125.944 162.798C125.923 162.908 125.894 163.016 125.855 163.121C125.859 163.147 125.859 163.175 125.855 163.201C118.507 163.094 111.169 163.004 103.732 162.915C103.732 162.852 103.732 162.78 103.732 162.717C103.715 162.485 103.715 162.251 103.732 162.019V159.447C103.732 156.812 103.794 154.177 103.866 151.543C103.866 150.459 103.91 149.374 103.937 148.29C104.018 144.392 104.107 140.368 104.303 136.416C104.526 131.936 104.517 127.455 104.509 123.037C104.509 119.623 104.509 116.092 104.607 112.633C104.607 111.612 104.687 110.599 104.741 109.578C104.803 108.35 104.875 107.077 104.892 105.823C104.892 104.031 104.892 102.238 104.892 100.509C104.892 99.2812 104.892 98.0624 104.892 96.8437C104.892 95.625 104.892 95.7415 105.955 95.6877C109.151 95.5174 112.427 95.383 115.311 95.2665C116.909 95.1948 119.007 95.1142 121.123 95.0515L129.006 94.8543L136.854 94.6572C138.211 94.6572 139.577 94.5586 140.943 94.4959L143.202 94.3883H144.094C143.934 96.1806 143.693 97.9728 143.46 99.7023C143.228 101.432 142.969 103.35 142.809 105.204C142.032 105.33 141.237 105.42 140.461 105.509C138.541 105.647 136.648 106.048 134.836 106.701L134.702 106.764L134.086 109.595C133.702 111.388 133.327 113.18 132.935 114.883C132.738 115.779 132.533 116.675 132.319 117.571C131.944 119.166 131.551 120.815 131.256 122.464C130.962 124.113 130.738 125.797 130.533 127.428C130.399 128.45 130.265 129.462 130.113 130.484C129.962 131.506 129.792 132.527 129.622 133.54C129.453 134.552 129.247 135.762 129.096 136.882C129.006 137.465 128.971 138.065 128.935 138.675C128.899 139.284 128.881 139.571 128.828 140.037C128.685 141.273 128.524 142.519 128.364 143.756C128.274 144.365 128.194 144.983 128.123 145.593C127.605 149.482 127.096 153.392 126.596 157.323H126.578ZM66.1905 163.183C66.1905 162.431 66.2619 161.714 66.3334 161.006C66.7649 156.617 66.9468 152.207 66.878 147.797C66.878 145.109 66.9315 142.42 66.994 139.804C66.994 138.468 67.0565 137.115 67.0833 135.807C67.0833 135.001 67.0833 134.203 67.0833 133.405V131.801C67.0833 130.475 67.0833 129.113 67.0833 127.814C67.0833 124.686 67.0833 121.46 67.1904 118.297C67.2976 115.134 67.4672 111.818 67.6458 108.655L67.8064 105.769C67.9225 103.762 68.0564 101.754 68.1903 99.7113C68.2528 98.7345 68.3243 97.7398 68.3868 96.7451H69.1635V97.1573C69.226 97.6861 69.2795 98.1789 69.3152 98.6807C69.4313 100.007 69.5384 101.369 69.6545 102.651C69.8152 104.67 69.9848 106.683 70.1634 108.69C70.4223 111.531 70.7169 114.417 71.0562 117.517C71.199 118.87 71.3597 120.206 71.5293 121.568C71.699 122.93 71.8864 124.516 72.0382 125.994C72.19 127.473 72.3328 129.059 72.4578 130.592C72.5471 131.685 72.6453 132.769 72.7435 133.853C72.8774 135.287 73.0203 136.712 73.1631 138.146C73.3863 140.404 73.6184 142.734 73.8059 145.037C73.9934 147.34 74.1095 149.652 74.2166 151.91L74.2791 153.335C74.3951 155.773 74.5023 158.371 74.6273 161.759C74.6273 162.296 74.6273 162.834 74.6273 163.425C74.6273 163.605 74.6273 163.793 74.6273 163.981H66.0566C66.1816 163.694 66.1994 163.434 66.2084 163.183H66.1905ZM73.0113 95.383C73.0113 95.0873 72.9221 94.8006 72.8596 94.4869L72.7792 94.0747C72.7586 93.806 72.634 93.5562 72.4321 93.3786C72.2302 93.2011 71.967 93.1099 71.699 93.1248C71.1224 93.1691 70.5425 93.133 69.9759 93.0173C69.5078 92.9283 69.0328 92.8803 68.5564 92.8739C66.4941 92.8739 64.3871 92.8291 62.3516 92.7753L59.7268 92.7126H58.5662C58.5662 92.3541 58.468 92.0136 58.4234 91.6641C58.3341 90.992 58.2537 90.3379 58.1466 89.6837C57.6109 86.2247 57.0574 82.7746 56.5128 79.3335C56.4503 78.9661 56.3968 78.6077 56.3432 78.2492C56.2271 77.4427 56.1021 76.6183 55.9414 75.8028C55.5993 73.7957 54.7487 71.9107 53.4714 70.3289C52.194 68.747 50.5328 67.5214 48.6474 66.7699C47.1028 66.0665 45.4328 65.6825 43.7372 65.6408C42.4529 65.6346 41.1765 65.8436 39.9607 66.2591L39.3001 66.4742L38.8715 66.6176C38.7864 66.1023 38.7684 65.5782 38.818 65.0583C38.8403 64.6853 38.8403 64.3112 38.818 63.9382C38.782 63.2486 38.782 62.5577 38.818 61.8681C38.818 61.6172 38.818 61.3663 38.818 61.1154C38.9478 61.075 39.0842 61.0598 39.2197 61.0706C43.014 61.3932 46.8797 61.4201 50.6205 61.4469C52.1382 61.4469 53.6649 61.4469 55.1826 61.4469C57.1556 61.4469 59.1644 61.5455 61.1017 61.6083C63.039 61.671 65.2799 61.7516 67.3511 61.7785C75.0558 61.8771 82.8676 61.9309 90.4294 61.9846H93.0631C100.866 62.0294 108.919 62.0832 116.865 62.0832C123.676 62.0832 130.56 61.9757 137.229 61.8592C141.077 61.7964 144.925 61.6979 148.772 61.5993L154.584 61.4559H154.906V65.5602H153.951C150.861 65.4921 147.782 65.9341 144.835 66.8685C141.589 67.9143 138.657 69.7634 136.309 72.2452C134.046 74.627 132.325 77.4735 131.265 80.5881L130.471 82.7657C129.89 84.3428 129.292 85.9738 128.756 87.6047C128.563 88.2686 128.434 88.9499 128.372 89.6389C128.372 89.8988 128.301 90.1676 128.256 90.4454H128.203L123.793 90.7232C120.427 90.9293 117.061 91.1444 113.686 91.3236C112.267 91.4043 110.829 91.4401 109.437 91.4849L106.58 91.5745C106.142 91.5745 105.687 91.6372 105.294 91.691L104.526 91.7717L103.375 91.8613L102.178 91.9598H102.089C101.277 92.3273 101.196 93.2771 101.152 94.0747V95.0604C101.152 97.1484 101.152 99.308 101.071 101.423C101.071 102.4 100.991 103.385 100.937 104.362C100.875 105.518 100.812 106.719 100.795 107.947C100.735 111.728 100.681 115.513 100.634 119.3C100.586 123.088 100.53 126.909 100.464 130.762C100.464 132.124 100.384 133.513 100.321 134.857C100.321 135.834 100.241 136.811 100.214 137.787C100.143 140.27 100.089 142.752 100.036 145.234L99.9018 150.978C99.9101 151.095 99.9101 151.211 99.9018 151.328C99.7473 151.341 99.592 151.341 99.4376 151.328L98.1162 151.265C96.9288 151.211 95.7057 151.158 94.5451 151.05C93.5274 150.969 92.4918 150.853 91.4829 150.736C90.6199 150.641 89.745 150.551 88.8581 150.468C87.8315 150.378 86.7869 150.243 85.7691 150.109C83.9173 149.84 82.051 149.684 80.1803 149.643C79.734 149.643 79.2876 149.643 78.859 149.688C78.7908 149.695 78.722 149.695 78.6537 149.688V149.598C78.6241 149.459 78.6033 149.319 78.5912 149.177C78.5912 148.568 78.5376 147.958 78.5198 147.385C78.5198 146.184 78.4305 144.938 78.3144 143.711C77.7877 137.994 77.2074 132.196 76.6449 126.586V126.272C76.1628 121.353 75.7522 117.311 75.3147 113.476C75.1451 111.979 74.9397 110.474 74.7433 108.995L74.3684 106.172C74.3059 105.653 74.2523 105.133 74.2077 104.622C74.163 104.111 74.1362 103.86 74.0916 103.484L73.0113 95.383ZM74.7969 47.1269C74.7879 47.5062 74.8568 47.8833 74.9995 48.2347C75.1421 48.586 75.3554 48.9041 75.626 49.169C75.8966 49.4338 76.2187 49.6399 76.5722 49.7742C76.9257 49.9086 77.303 49.9683 77.6806 49.9497H80.7874C82.4569 49.9497 84.18 49.9497 85.8763 50.0035C88.0279 50.0662 90.2241 50.1648 92.3489 50.2634L95.3397 50.4068L95.9111 50.4605C95.2683 51.3566 94.6255 52.2528 93.9738 53.0772C93.1345 54.2063 92.2864 55.3354 91.4561 56.4735C91.2653 56.8049 90.984 57.0746 90.6455 57.2508C90.307 57.4271 89.9254 57.5025 89.5456 57.4682C87.0101 57.3248 84.4657 57.289 81.9927 57.2442L77.2788 57.1904C74.2612 57.1904 71.1454 57.1904 68.0921 57.0022C64.3335 56.8051 60.5035 56.7871 56.8074 56.7782H52.2364C50.7544 56.7782 49.2813 56.7782 47.7725 56.7782C46.5941 56.7782 45.4156 56.7782 44.2461 56.7782C42.7373 56.7782 41.2374 56.7782 39.7197 56.7154C39.6171 56.7125 39.5152 56.6974 39.4161 56.6706L39.4697 56.6079C39.6534 56.3558 39.85 56.1135 40.0589 55.882C40.5321 55.3713 41.0142 54.8784 41.4963 54.3855C42.3891 53.4177 43.3979 52.423 44.2461 51.3566C46.2152 48.8967 48.3415 46.5679 50.6116 44.3848C52.7154 42.3549 54.7092 40.2131 56.5842 37.9686C56.6969 37.8201 56.8453 37.7027 57.0155 37.6274C57.1857 37.5522 57.3721 37.5216 57.5574 37.5385H58.9144C61.8963 37.6102 64.9853 37.6729 68.0118 37.6998C69.2438 37.6998 70.5205 37.6998 71.7436 37.6102L73.7345 37.5385C73.9755 37.5385 74.2255 37.5385 74.5201 37.5385H74.8058C74.8058 39.8863 74.8058 42.0191 74.8058 44.2414C74.8058 44.6089 74.8058 44.9852 74.8058 45.3616C74.7701 45.9172 74.7612 46.5266 74.779 47.1269H74.7969ZM78.8412 27.1793V26.4893C78.8947 24.6971 78.9483 22.8421 78.9483 21.014C78.9483 19.9566 78.9483 18.8902 78.868 17.8507L78.8412 16.1481C78.8287 16.005 78.8287 15.861 78.8412 15.7179V15.5656H79.3411C79.8589 15.5208 80.35 15.4849 80.8499 15.4849L84.421 15.5746L88.5814 15.6552H89.0635C94.5898 15.7179 100.304 15.7896 105.928 15.8165C108.124 15.8165 110.321 15.8165 112.508 15.8165C115.133 15.8165 117.757 15.8165 120.373 15.8165C124.034 15.8165 127.837 15.942 131.676 16.0943C133.283 16.1481 134.881 16.2735 136.568 16.408L138.559 16.5693C138.63 19.6429 138.764 22.7614 138.898 25.7814C139.193 32.4575 139.496 39.3486 139.166 46.186H138.488C137.756 46.186 137.059 46.186 136.363 46.186C134.042 46.1323 131.292 46.0606 128.497 45.953C126.98 45.8993 125.453 45.8186 123.926 45.7469C121.364 45.6215 118.722 45.4871 116.115 45.4422C112.32 45.3526 108.526 45.4422 105.321 45.5319C102.821 45.6035 100.286 45.7111 97.8306 45.8186C95.8783 45.9082 93.9232 45.9889 91.965 46.0606C90.0068 46.1323 88.135 46.1771 86.3494 46.195L81.957 46.2936C81.0642 46.2936 80.2518 46.3652 79.359 46.4101L78.3234 46.4728V46.2667C78.277 46.0334 78.2502 45.7965 78.243 45.5587C78.243 44.0174 78.2966 42.4671 78.3502 40.9258C78.3948 39.2859 78.4483 37.655 78.5019 36.024V35.6387C78.5019 34.5185 78.5733 33.4074 78.618 32.2872C78.743 30.5577 78.8412 28.873 78.8412 27.1793ZM150.174 36.2122C150.217 36.6342 150.162 37.0604 150.015 37.458C149.868 37.8557 149.632 38.2143 149.326 38.5063C147.451 40.2179 145.558 41.9115 143.541 43.7217C143.335 39.2411 143.291 34.7605 143.255 30.4322C143.255 25.163 143.157 19.6788 142.818 14.3021L145.264 12.5098L150.112 8.92535C150.112 9.07769 150.112 9.22107 150.112 9.35548V13.5583C150.112 16.408 150.112 19.2576 150.112 22.1073C150.094 26.6685 150.094 31.4717 150.183 36.2122H150.174ZM151.96 90.2214C151.29 90.2214 150.603 90.2662 149.915 90.311C150.451 86.9953 153.102 82.5954 155.067 81.7082C155.08 81.8962 155.08 82.0848 155.067 82.2728V84.3966C155.067 85.8483 155.067 87.3 155.067 88.7607C155.067 89.0833 155.111 89.388 155.147 89.7464C155.152 89.8449 155.152 89.9436 155.147 90.0421C154.201 90.1497 153.12 90.1855 151.978 90.2214H151.96ZM154.138 77.5861C151.46 78.5449 149.362 80.4089 147.54 83.4557C146.315 85.4109 145.461 87.5773 145.023 89.845C144.942 90.3199 144.764 90.3737 144.255 90.3827L136.416 90.3289H132.676C132.676 90.2035 132.72 90.087 132.747 89.9705C132.801 89.7106 132.845 89.4776 132.899 89.2536C132.924 89.1612 132.957 89.0713 132.997 88.9847C132.997 88.8682 133.086 88.7607 133.122 88.6352C133.676 86.1662 134.597 83.7948 135.854 81.6007C137.132 78.9713 138.803 76.5537 140.809 74.4317C142.738 72.4904 145.124 71.0695 147.746 70.3006C148.505 70.0766 149.263 69.8705 150.031 69.6823C151.617 69.3363 153.255 69.3059 154.852 69.5927V69.754C154.852 69.9422 154.852 70.1035 154.852 70.2737L154.924 76.3405C155.022 77.2724 155.022 77.2724 154.156 77.5861H154.138ZM147.264 103.986C147.651 101.799 148.04 99.6157 148.433 97.4351L148.915 94.7468C148.932 94.6465 148.956 94.5477 148.987 94.4511C151.085 94.1464 165.155 93.8865 168.181 94.1016L169.556 102.167L147.237 104.855C147.241 104.81 147.241 104.765 147.237 104.721C147.228 104.475 147.243 104.229 147.282 103.986H147.264ZM159.825 70.8293C160.416 71.0992 160.929 71.5155 161.316 72.0391C162.125 73.1664 162.782 74.3957 163.271 75.6953C163.53 76.3046 163.807 76.9319 164.11 77.5413C164.225 77.8072 164.303 78.0876 164.342 78.3747C164.342 78.3747 164.342 78.4195 164.342 78.4374L160.084 76.7706L159.995 74.5572C159.95 73.3564 159.896 72.1197 159.843 70.8204L159.825 70.8293ZM163.164 82.1115C165.336 84.1554 166.71 86.9105 167.039 89.8809H160.736C160.33 86.8518 160.232 83.7894 160.441 80.7404C161.486 80.8563 162.457 81.3387 163.182 82.1025L163.164 82.1115ZM174.859 42.6822C174.797 43.5783 174.734 44.34 174.681 45.1465C174.458 48.9102 174.261 52.9159 174.422 56.9484C174.538 59.592 174.511 62.1997 174.476 64.1801C174.422 66.985 174.618 69.8167 174.815 72.5588C174.868 73.2668 174.922 73.9747 174.967 74.6826C175.011 75.5184 175.011 76.356 174.967 77.1918C174.967 77.7115 174.967 78.2313 174.913 78.76C174.913 82.0756 174.913 85.3883 174.913 88.698V89.8092H172.11C171.94 88.9914 171.725 88.1837 171.467 87.3896C171.104 86.328 170.85 85.2321 170.708 84.1188C170.494 81.4772 169.679 78.9203 168.324 76.6451C168.148 76.3255 167.996 75.993 167.869 75.6505C167.762 75.3445 167.637 75.0452 167.494 74.7543C165.846 71.3623 163.15 68.596 159.807 66.8685C159.807 66.4204 159.807 65.9724 159.807 65.5153C159.807 64.7716 159.807 64.0278 159.763 63.275V62.6567C159.718 61.3753 159.673 60.049 159.593 58.7407C159.593 58.3733 159.754 58.1582 160.057 57.8446L160.218 57.6743C161.111 56.6437 162.102 55.6311 163.048 54.6096L166.378 51.0251C168.235 49.0267 170.092 47.0194 171.958 45.03C172.744 44.1787 173.583 43.3453 174.395 42.5299L174.984 41.9384L174.859 42.6822ZM171.69 38.802C171.244 39.4793 170.761 40.1315 170.244 40.7555C169.074 42.1087 167.842 43.4439 166.673 44.7791C165.994 45.5229 165.325 46.2667 164.655 47.0194C164.298 47.4227 163.941 47.8259 163.593 48.2381C163.003 48.9371 162.387 49.654 161.736 50.3171C160.789 51.267 159.807 52.208 158.852 53.122L156.861 55.0397C156.467 55.4368 156.117 55.8755 155.816 56.348C155.662 56.6464 155.423 56.8914 155.128 57.0512C154.833 57.211 154.498 57.2782 154.165 57.2442C151.486 57.1277 148.656 56.9932 145.916 57.0201C139.666 57.0201 134.086 57.0828 128.765 57.1904C126.024 57.2531 123.239 57.3517 120.543 57.4413C118.329 57.519 116.115 57.5906 113.901 57.6564C113.195 57.6564 112.463 57.6564 111.749 57.5668C111.195 57.5668 110.615 57.4771 110.044 57.4771C107.24 57.4771 104.44 57.4771 101.643 57.4771H97.1788H96.3753C96.9378 56.7961 97.3931 56.2226 97.8573 55.6849L98.5626 54.7888C99.5536 53.5611 100.571 52.2976 101.536 51.0251C101.656 50.8574 101.819 50.7245 102.007 50.6396C102.195 50.5547 102.402 50.5207 102.607 50.5412H110.981C114.731 50.5412 119.016 50.5412 123.159 50.6308C126.926 50.6756 130.685 50.7473 134.443 50.819H137.381C137.782 50.819 138.273 50.8907 138.836 50.9623C140.425 51.1505 142.228 51.3656 143.255 50.6218C144.605 49.5635 145.86 48.388 147.005 47.109C147.982 46.0494 149.019 45.047 150.112 44.107C151.361 43.0397 152.49 41.8377 153.477 40.5225C153.62 40.3433 153.781 40.1731 153.942 40.0028C154.129 39.8132 154.305 39.6127 154.468 39.4024C154.673 39.1441 154.803 38.834 154.843 38.5063C154.894 38.105 154.921 37.701 154.924 37.2965C154.924 37.2069 154.924 37.1173 154.924 37.0187L155.879 37.1173C156.986 37.2338 158.039 37.3413 159.12 37.422C160.405 37.5205 161.718 37.5743 162.977 37.637H163.646C165.119 37.6998 166.592 37.7535 168.11 37.7894C169.495 37.8039 170.878 37.8937 172.252 38.0582L171.69 38.802ZM148.014 5.30502C147.719 5.59178 147.406 5.89646 147.121 6.20114C145.96 7.17791 144.782 8.15469 143.612 9.1225L140.157 12.008C139.816 12.2796 139.386 12.4109 138.952 12.3754L137.3 12.3216C135.988 12.3216 134.667 12.232 133.345 12.1603C132.167 12.1066 130.979 12.0438 129.774 11.9722C128.337 11.8915 126.899 11.8109 125.471 11.7481C124.694 11.7481 123.909 11.7481 123.141 11.7481H121.784H116.427H113.838C114.383 10.9685 115.418 9.46302 116.516 7.87689C117.365 6.63128 118.222 5.36775 118.829 4.48955H121.445L123.926 4.39098H132.363L139.005 4.51644L147.933 5.14372H148.201L148.014 5.30502ZM112.052 7.8052C110.937 9.47198 109.847 11.076 109.374 11.766C99.4376 11.8825 91.0097 11.7661 82.9122 11.5241C83.7617 10.7711 84.6561 10.0708 85.5906 9.42717C86.278 8.94327 87.0726 8.36079 87.8404 7.73351C88.3493 7.31233 88.8492 6.83739 89.3492 6.44309C90.0009 5.87854 90.6794 5.2871 91.3579 4.74047C91.5358 4.64103 91.7347 4.58572 91.9382 4.57917L92.2685 4.51644C92.6686 4.43962 93.0754 4.40359 93.4827 4.4089H112.767H114.347C113.722 5.30502 112.874 6.57751 112.052 7.8052ZM38.943 71.5552V71.367C40.9609 70.2603 43.2847 69.8479 45.5584 70.1931C46.4712 70.3525 47.3373 70.7137 48.0939 71.2505C48.5693 71.6703 48.9368 72.1991 49.1653 72.7918C50.1884 74.869 50.9042 77.0848 51.2901 79.3694C51.7007 81.8158 52.0668 84.307 52.415 86.7086L52.9239 90.1497C53.031 90.8666 53.1292 91.5745 53.2453 92.3452C53.058 92.3589 52.87 92.3589 52.6828 92.3452C51.0922 92.1958 49.495 92.127 47.8975 92.1391C46.5226 92.1391 45.1478 92.1391 43.7997 92.2108H42.9069C42.4248 92.2108 41.9427 92.2108 41.4606 92.2108C41.0142 92.2108 40.5678 92.2108 40.1125 92.2108C39.6572 92.2108 39.6125 92.1122 39.5947 91.7179C39.5114 89.5851 39.4251 87.4494 39.3358 85.3106C39.2465 83.1958 39.1572 81.0899 39.0769 78.9751C39.0233 77.4875 38.9965 76 38.9697 74.4945C38.9697 73.7507 38.9697 73.0069 38.9697 72.2721C38.934 72.0301 38.943 71.7971 38.943 71.5552ZM129.221 170.612C129.524 168.291 129.846 165.979 130.176 163.658C130.471 161.553 130.774 159.447 131.069 157.386C131.31 155.593 131.524 153.738 131.747 151.901C131.935 150.297 132.122 148.693 132.327 147.098C132.952 142.223 133.622 136.999 134.336 131.783C134.961 127.159 135.631 122.446 136.309 117.777C136.577 115.985 136.907 114.193 137.202 112.4L137.381 111.406C137.424 111.183 137.483 110.965 137.559 110.751C137.596 110.91 137.614 111.073 137.613 111.235L137.729 113.924C137.872 116.98 138.014 120.143 138.104 123.252C138.166 125.493 138.193 127.733 138.229 129.982C138.264 132.231 138.282 134.14 138.336 136.255C138.443 140.44 138.577 144.365 138.747 148.245C138.88 151.041 139.077 154.061 139.345 157.744C139.443 158.981 139.55 160.208 139.666 161.445C139.827 163.237 139.996 165.074 140.104 166.893C140.211 168.713 140.237 170.711 140.264 172.727C140.264 173.462 140.264 174.206 140.264 174.959L131.953 174.6L128.962 174.475C128.922 173.182 129.009 171.888 129.221 170.612ZM140.827 111.406V111.101C140.827 110.743 140.755 110.366 140.72 109.954L141.907 109.766C142.889 109.613 143.809 109.461 144.746 109.407C146.869 109.315 148.985 109.103 151.085 108.771C151.676 108.678 152.272 108.615 152.87 108.583L153.763 108.52L171.163 106.979L173.681 106.755L176.207 106.531C176.449 106.531 176.69 106.531 176.966 106.531H177.225L177.422 107.427C177.609 108.269 177.788 109.103 177.948 109.945C178.163 111.056 178.368 112.176 178.573 113.288C178.877 114.936 179.174 116.585 179.466 118.234C180.618 124.041 181.814 130.036 183.037 135.932C183.377 137.599 183.734 139.257 184.091 140.915C184.394 142.322 184.698 143.72 184.984 145.127C185.082 145.593 185.135 146.086 185.189 146.551C185.242 147.017 185.269 147.313 185.332 147.69C185.564 149.132 185.805 150.575 186.046 152.018C186.367 153.944 186.689 155.88 186.992 157.825C187.323 159.922 187.608 162.072 187.885 164.151L188.171 166.275C188.171 166.526 188.224 166.777 188.242 167.055V167.288L187.456 167.449L185.671 167.834L183.243 168.363C180.823 168.892 178.413 169.412 176.002 169.958L172.69 170.711C168.789 171.607 164.762 172.503 160.736 173.113C159.272 173.328 157.798 173.525 156.334 173.722C154.317 174 152.29 174.268 150.272 174.564C149.103 174.734 147.924 174.941 146.79 175.138L144.844 175.469C144.612 175.469 144.38 175.532 144.103 175.55H143.934V175.281C143.934 174.923 143.88 174.618 143.871 174.304C143.871 173.587 143.871 172.871 143.871 172.154C143.871 170.729 143.809 169.268 143.737 167.825C143.693 166.858 143.585 165.881 143.487 164.94C143.416 164.286 143.353 163.623 143.3 162.968C143.184 161.526 143.085 160.092 142.996 158.649L142.88 156.938C142.88 156.283 142.791 155.638 142.737 154.993C142.63 153.613 142.523 152.188 142.461 150.79C142.273 146.713 142.13 142.931 142.014 139.23C141.925 136.363 141.862 133.495 141.8 130.636L141.746 127.769C141.746 126.962 141.746 126.165 141.746 125.358C141.746 123.566 141.746 121.774 141.612 119.982C141.496 118.028 141.3 116.048 141.112 114.13C141.041 113.252 140.952 112.329 140.871 111.406H140.827ZM184.207 111.191C184.019 109.999 183.823 108.807 183.609 107.606C183.35 106.145 183.082 104.828 182.778 103.574C182.679 103.245 182.515 102.941 182.296 102.677L182.1 102.391C182.043 102.306 181.974 102.23 181.894 102.167C181.845 102.126 181.803 102.078 181.769 102.023C181.616 101.686 181.361 101.404 181.042 101.218C180.722 101.032 180.352 100.95 179.984 100.984C179.853 100.975 179.722 100.975 179.591 100.984L177.1 101.271L175.208 101.486L174.261 101.548H173.788L172.717 93.8955C175.6 93.8417 178.484 93.8417 181.287 93.8507C184.492 93.8507 187.805 93.8507 191.108 93.77L191.197 94.9439C191.295 96.2433 191.385 97.5068 191.465 98.7614L191.617 101.217C191.795 104.084 191.983 107.051 192.126 109.981C192.179 110.949 192.188 111.943 192.188 112.902C192.188 113.655 192.188 114.408 192.188 115.16C192.301 118.369 192.426 121.571 192.563 124.767C192.563 125.663 192.661 126.631 192.715 127.554C192.795 128.835 192.876 130.152 192.902 131.452C192.974 135.036 193.01 138.881 193.019 143.101C192.98 146.715 193.204 150.327 193.688 153.909C193.773 154.601 193.791 155.301 193.742 155.997C193.742 156.265 193.742 156.543 193.742 156.821H193.688C192.617 156.92 192.617 156.92 192.456 155.817L192.081 153.263C191.831 151.579 191.581 149.84 191.287 148.129C191.126 147.233 190.912 146.274 190.706 145.378C190.501 144.481 190.331 143.756 190.179 142.94C189.947 141.721 189.742 140.485 189.528 139.257C189.296 137.85 189.046 136.398 188.769 134.974C188.492 133.549 188.135 131.864 187.805 130.359C187.474 128.853 187.153 127.303 186.858 125.77C186.126 122.061 185.457 118.288 184.805 114.641C184.644 113.556 184.448 112.373 184.251 111.191H184.207ZM62.7712 145.395V146.507C62.7712 147.815 62.8247 149.105 62.8605 150.405C62.8605 152.134 62.9408 153.864 62.9587 155.593C62.9587 157.61 62.9587 159.653 62.8962 161.633C62.8962 162.216 62.8426 162.798 62.789 163.47C62.789 163.676 62.789 163.9 62.7355 164.124H56.2361C54.8165 164.124 53.397 164.124 51.9864 164.124H50.1205C48.335 164.124 46.4066 164.071 44.5675 163.936C42.1644 163.815 39.7569 163.815 37.3538 163.936C36.461 163.936 35.4701 163.99 34.5326 163.999C30.1223 164.08 25.7031 164.133 21.2838 164.187H20.5964C17.3377 164.232 14.097 164.277 10.8473 164.304C10.5437 164.304 10.2491 164.304 9.95447 164.241C9.65986 164.178 9.41881 164.187 9.15097 164.178C8.43675 164.178 7.72253 164.178 7.00831 164.133H4.19606L4.38354 161.786C4.52043 160.065 4.6603 158.344 4.80315 156.624C4.89242 155.629 4.97278 154.626 5.06205 153.622C5.18704 152.188 5.31203 150.745 5.41916 149.312C5.49058 148.415 5.55308 147.519 5.61557 146.623C5.67807 145.727 5.74949 144.553 5.83877 143.514C5.92805 142.474 6.03518 141.229 6.14231 140.081C6.25837 138.746 6.38336 137.393 6.4905 136.085C6.69583 133.45 6.90118 130.654 7.02616 127.876C7.11544 126.219 7.16901 124.561 7.22257 122.894C7.28507 121.057 7.34756 119.157 7.4547 117.284C7.53505 115.779 7.68682 114.246 7.83859 112.804C7.9368 111.836 8.035 110.868 8.11535 109.9C8.28498 107.705 8.43675 105.509 8.59745 103.305L9.10633 95.9924C9.10633 95.8669 9.1599 95.7504 9.19561 95.5981C9.1998 95.5714 9.1998 95.5442 9.19561 95.5174H12.5078C13.5881 95.5174 14.6683 95.5174 15.7486 95.5174C16.4539 95.5174 17.1592 95.5174 17.8645 95.5802L19.409 95.625L24.1139 95.7056C27.2029 95.7594 30.3634 95.8042 33.5149 95.9565C38.2287 96.1716 43.0229 96.2075 47.6565 96.2523H51.5311C54.2095 96.2523 56.8878 96.4405 59.5125 96.6018L63.1461 96.8079L64.9317 96.8975C64.9526 97.0851 64.9526 97.2744 64.9317 97.462C64.8424 98.627 64.7442 99.7919 64.646 100.957C64.4794 102.946 64.3187 104.939 64.1639 106.934L64.0568 108.332C63.8782 110.707 63.6997 113.162 63.6015 115.582C63.4943 118.584 63.4229 121.586 63.3426 124.597C63.2801 127.106 63.2176 129.606 63.1372 132.124C63.1372 133.423 63.0212 134.75 62.9497 136.031C62.8783 137.312 62.798 138.818 62.7533 140.225C62.7712 141.883 62.7712 143.666 62.7712 145.395ZM26.5155 91.0458C27.3129 86.7186 28.9478 82.5903 31.3276 78.8944C31.7115 78.2582 32.2203 77.5144 32.6667 76.8244C32.8615 76.5657 33.0764 76.323 33.3095 76.0985L33.4167 75.982C33.4167 78.4284 33.5684 80.8928 33.7113 83.2854C33.8809 86.0903 34.0505 88.9847 33.997 91.8613H33.9345C33.7977 91.8701 33.6605 91.8701 33.5238 91.8613C31.4168 91.8613 29.2652 91.8613 27.1226 91.8613C26.8947 91.8694 26.6667 91.8484 26.4441 91.7985C26.4324 91.5455 26.4565 91.2921 26.5155 91.0458Z" fill="black"/>
</g>
<defs>
<clipPath id="clip0_990_11595">
<rect width="200" height="179" fill="white"/>
</clipPath>
</defs>
</svg>
