<svg width="188" height="177" viewBox="0 0 188 177" fill="none" xmlns="http://www.w3.org/2000/svg">
<g clip-path="url(#clip0_990_11600)">
<path d="M185.685 48.945C185.324 48.6485 184.91 48.3071 184.496 47.9926C183.582 47.1866 182.457 46.6567 181.253 46.465L179.802 46.3212L177.901 46.1325C176.533 45.9998 175.154 46.2163 173.893 46.7615C172.213 47.462 170.658 48.4301 169.289 49.628C168.235 50.5804 167.262 51.6408 166.316 52.6561L165.695 53.3301L165.956 52.6382V52.5393C166.235 51.7396 166.56 50.841 166.929 50.0143C167.91 47.9043 168.543 45.6497 168.803 43.338C168.881 42.8855 168.825 42.4199 168.641 41.9991C168.127 40.9623 167.449 40.0155 166.632 39.1956C165.417 38.0606 163.982 37.186 162.416 36.6257C161.431 36.311 160.417 36.0972 159.389 35.9877L159.055 35.9428C157.242 35.5976 155.368 35.772 153.65 36.446C152.256 37.0893 150.915 37.8436 149.641 38.7014C147.069 40.322 144.834 42.4208 143.056 44.8835L142.795 45.234C142.45 45.6961 142.134 46.1792 141.849 46.6807C141.227 47.8668 140.615 49.1158 140.047 50.3917L139.741 51.0747C138.948 52.8269 138.138 54.6689 137.426 56.4661C136.876 57.8858 136.39 59.3595 135.921 60.8062L135.84 61.0488C135.705 61.4711 135.561 61.8934 135.417 62.3158C135.37 62.4832 135.34 62.6547 135.327 62.8279C135.334 62.8966 135.334 62.9659 135.327 63.0346C135.229 63.0181 135.133 62.994 135.039 62.9627C134.894 62.9199 134.747 62.8898 134.597 62.8729C134.084 62.8189 133.552 62.7471 133.003 62.6752C131.746 62.4912 130.48 62.3862 129.21 62.3607C126.661 62.3607 124.075 62.5134 121.544 62.6482L120.012 62.7291C118.481 62.819 116.922 62.9358 115.373 63.0526L110.463 63.43L107.535 63.6456H106.833H106.626C106.305 63.6579 105.985 63.697 105.671 63.7624C105.366 63.8308 105.066 63.9148 104.77 64.014L104.418 64.1309C104.247 64.1938 104.175 64.1309 104.076 64.0051C103.842 63.6277 103.599 63.2682 103.355 62.8998C102.853 62.1747 102.393 61.4217 101.977 60.6444C101.395 59.5133 100.928 58.3274 100.581 57.104C100.371 56.309 100.212 55.5017 100.103 54.6869C100.031 54.2736 99.9681 53.7883 99.8871 53.4109C99.806 53.0335 99.7429 52.764 99.6619 52.3776C99.5163 51.8036 99.405 51.2215 99.3285 50.6344C99.1664 49.1337 99.0493 47.6062 98.9322 46.1415L98.806 44.4792C98.806 44.2815 98.806 44.0838 98.806 43.8142C98.806 43.5447 98.806 43.2841 98.752 43.0145C98.6889 42.2777 98.6169 41.5408 98.5448 40.795V40.4536C98.3917 38.8092 98.2205 37.1019 98.1394 35.4306C97.9502 31.5937 97.8241 27.7299 97.7791 23.9559C97.7791 21.4848 97.7791 18.9778 97.7791 16.5517V16.4169C97.7791 15.096 97.7791 13.7751 97.7791 12.4632C97.7489 11.575 97.378 10.7323 96.7431 10.1089C96.5095 9.86938 96.2291 9.68034 95.9191 9.55358C95.6091 9.42682 95.2763 9.36504 94.9414 9.3721C93.3649 9.41703 91.7974 9.3721 90.2659 9.30021H90.1218C89.4371 9.30021 88.7525 9.2463 88.0678 9.23731C88.0323 9.25753 87.9911 9.26572 87.9505 9.26064C87.91 9.25557 87.8721 9.2375 87.8427 9.20916C87.8133 9.18082 87.7939 9.14372 87.7873 9.10344C87.7808 9.06315 87.7876 9.02185 87.8066 8.98572C87.7698 7.37062 87.3565 5.78624 86.5994 4.35809C85.9507 3.11436 84.9843 2.06355 83.7978 1.31194C83.6537 1.21196 83.5153 1.10396 83.3833 0.988457C82.9682 0.586485 82.446 0.312009 81.8789 0.19772L81.4556 0.13482C81.1042 0.0727435 80.7491 0.0337242 80.3925 0.0180086C79.8406 -0.0547847 79.2794 0.0442599 78.786 0.301601C78.2926 0.558943 77.8909 0.962018 77.6359 1.45572L77.4737 1.75225C77.057 2.34002 76.8652 3.05731 76.9332 3.77402C76.936 3.82491 76.936 3.8759 76.9332 3.92678C76.9255 4.00447 76.9255 4.08272 76.9332 4.1604L76.8342 5.14883C76.7351 6.20914 76.6269 7.3054 76.5459 8.38368C76.5487 8.42856 76.5487 8.47358 76.5459 8.51846H76.4197L71.9155 8.72513H71.3569L66.177 8.95876C65.5914 8.95876 64.9969 8.95876 64.3753 8.95876C63.7537 8.95876 63.3033 8.95876 62.7628 8.95876C61.0601 9.02166 58.817 9.11152 56.5558 9.23731H56.3666C56.3508 9.14513 56.3508 9.05094 56.3666 8.95876C56.3412 8.14992 56.272 7.34303 56.1595 6.54161C55.966 5.55954 55.5803 4.62517 55.0244 3.79199L54.7451 3.30677C54.0124 2.01216 52.8097 1.04728 51.3849 0.61106C50.2679 0.245054 49.0858 0.119491 47.9166 0.242651C47.3113 0.231694 46.7191 0.419144 46.2309 0.776244C45.7427 1.13334 45.3855 1.64036 45.214 2.2195C44.6322 4.18254 44.4575 6.24323 44.7005 8.27585C44.7005 8.53643 44.7456 8.806 44.7636 9.17441V9.23731H44.2591C43.7636 9.23731 43.2952 9.23731 42.8268 9.23731C41.8268 9.23731 40.8178 9.31819 39.8179 9.3721C37.9441 9.45297 36.0073 9.54283 34.0884 9.57877C31.8363 9.57877 29.5842 9.74052 27.278 9.95617C26.3771 10.046 25.4762 10.064 24.5754 10.082H23.1881H23.107C23.1014 10.0432 23.1014 10.0039 23.107 9.96516L22.9448 8.3028V8.177C22.8818 7.61989 22.8277 7.06278 22.7827 6.51465C22.7343 5.71281 22.5233 4.92909 22.1625 4.21091C21.8017 3.49272 21.2986 2.855 20.6837 2.33631C19.4495 1.29397 18.2874 0.422364 16.5667 0.36845C15.3244 0.378403 14.0976 0.644559 12.9633 1.1502C12.6246 1.30731 12.3209 1.53061 12.0702 1.80689C11.8195 2.08317 11.627 2.4068 11.5039 2.75864C11.4319 2.91139 11.3598 3.06415 11.2787 3.20792C11.1356 3.48522 11.0673 3.79489 11.0806 4.10649C11.1256 4.89723 11.1976 5.70594 11.2697 6.4877V6.97293C11.3868 8.32078 11.513 9.66863 11.6301 11.0165C11.6301 11.0165 11.6301 11.0704 11.6301 11.0794L10.7742 11.2681C10.3689 11.34 9.94544 11.4208 9.53105 11.4658C8.49506 11.5916 7.42306 11.6724 6.5132 11.7353L5.54026 11.8162C4.39617 11.9061 3.20704 11.9959 2.05394 12.0049C1.76769 11.9743 1.47818 12.0014 1.20268 12.0848C0.927181 12.1682 0.671318 12.306 0.450387 12.4901C0.177285 12.7443 0.00738717 13.0896 -0.0270386 13.4606C-0.0270386 13.9818 -0.027032 14.5029 0.0360281 14.9612L0.207193 17.6569C0.297279 19.1216 0.387345 20.6402 0.468422 22.1497C0.648594 25.5643 0.855795 29.527 1.03597 33.4088C1.03597 34.0378 1.03597 34.6758 1.03597 35.3048V35.3767C1.03597 36.1764 1.03598 37.084 1.10805 37.9735C1.18913 39.0878 1.29721 40.211 1.42333 41.451C1.54945 42.691 1.6936 44.2276 1.77468 45.6293L1.88278 47.2827V47.5343C2.09793 49.9811 2.16408 52.4387 2.08094 54.8936C2.05793 55.6194 2.08505 56.346 2.16204 57.0681C2.16204 57.4006 2.20709 57.7331 2.22511 58.0745C2.24312 58.416 2.22508 58.7395 2.30615 59.0629C2.36899 59.7744 2.36899 60.49 2.30615 61.2015C2.09713 63.894 2.11521 66.5992 2.3602 69.2887C2.42326 70.2501 2.48632 71.2475 2.53137 72.227C2.58542 73.6377 2.6755 75.0664 2.75658 76.4592C2.83766 77.852 2.90977 79.092 2.97283 80.4039C3.0449 82.1292 3.10793 83.8814 3.16198 85.5707V85.6695C3.23405 87.8081 3.30614 90.0276 3.41424 92.2111C3.52235 94.5384 3.72053 96.8927 3.90971 99.2379L3.96375 99.8939C4.1169 101.808 4.3061 103.749 4.49529 105.636L4.59437 106.642C4.59437 106.948 4.66644 107.253 4.71148 107.541C4.75653 107.828 4.81955 108.349 4.84658 108.745C4.8736 109.14 4.84658 109.796 4.84658 110.317C4.84658 110.838 4.84658 111.135 4.84658 111.548C4.87001 111.998 4.92418 112.445 5.00873 112.887C5.14385 113.696 5.28802 114.505 5.43216 115.313C5.67539 116.688 5.92762 118.117 6.15283 119.519C6.324 120.588 6.4321 121.657 6.54921 122.933C6.60326 123.472 6.63931 124.02 6.67535 124.578C6.72039 125.278 6.77445 126.006 6.85553 126.725C6.96363 127.723 7.09874 128.729 7.22486 129.726C7.35098 130.724 7.47712 131.658 7.58522 132.62V132.737C7.64828 133.357 7.72934 134.129 8.63921 134.453C8.68668 134.509 8.72891 134.569 8.76534 134.633L8.90044 134.83V134.893C8.96614 135.044 9.08466 135.165 9.23375 135.235L9.64816 135.414C10.0637 135.626 10.5109 135.768 10.9724 135.837C13.2065 136.016 15.2335 136.133 17.1793 136.178C21.7647 136.295 25.287 136.349 28.6112 136.358C31.7102 136.358 34.9172 136.358 38.5206 136.205C39.5116 136.205 40.5026 136.079 41.4755 135.98C42.1151 135.917 42.7637 135.846 43.4123 135.801C44.5744 135.72 45.7635 135.657 46.9076 135.594H46.9977L48.8625 135.495L52.466 135.279H52.5741C55.1685 135.118 57.8531 134.956 60.5016 134.83C62.2493 134.749 64.0329 134.731 65.7626 134.704H65.8437C66.8076 134.704 67.7805 134.704 68.7444 134.65H69.4741C70.9065 134.65 72.4019 134.588 73.8613 134.507C74.9333 134.453 76.0144 134.372 77.0684 134.3H77.4377C79.0593 134.192 80.7258 134.075 82.3744 134.03C84.023 133.986 85.9779 133.986 87.6985 134.03H91.5001V133.752L91.6262 134.03C92.3019 134.03 92.6262 134.102 92.8694 134.552C92.9955 134.785 93.1487 135.01 93.2928 135.226L93.5541 135.612C93.8153 136.025 94.0675 136.439 94.3198 136.852L95.0585 138.056C95.2747 138.407 95.5089 138.766 95.7341 139.107C96.2349 139.812 96.6806 140.554 97.0674 141.327C98.0094 143.175 98.3255 145.278 97.9682 147.32C97.6529 149.064 97.2385 150.825 96.8422 152.541L96.671 153.269C96.595 153.575 96.4957 153.876 96.3738 154.167C96.2837 154.419 96.1755 154.68 96.1035 154.94L95.9954 155.336C95.5539 156.863 95.0945 158.445 94.7071 160.008C94.527 160.727 94.4009 161.464 94.2747 162.165C94.2117 162.515 94.1576 162.857 94.0855 163.198L93.7432 164.95C93.5721 165.849 93.3919 166.747 93.2298 167.592C93.147 167.951 93.1851 168.326 93.3382 168.661C93.4913 168.996 93.7508 169.27 94.0765 169.443C94.2956 169.654 94.5585 169.814 94.8466 169.911C95.1346 170.009 95.4407 170.043 95.7431 170.009C95.9275 169.999 96.1124 170.014 96.2927 170.054C96.4772 170.086 96.6639 170.104 96.8512 170.108C97.6439 170.108 98.1755 169.551 98.4097 168.446C98.8872 166.28 99.3826 164.043 99.9411 161.59L100.563 158.894C101.148 156.27 101.815 153.305 102.518 150.438C103.132 148.094 103.291 145.654 102.986 143.25C102.661 140.788 101.781 138.431 100.41 136.358L98.9862 134.228C98.0854 132.817 97.0764 131.362 96.1125 129.933C95.5449 129.106 94.9594 128.271 94.3828 127.462L94.2297 127.237L93.1667 125.728C92.8377 125.289 92.5368 124.83 92.2658 124.353C91.8515 123.535 91.446 122.709 91.0497 121.9L90.9956 121.801C90.6803 121.145 90.356 120.498 90.0137 119.815C89.6714 119.132 89.6714 119.141 90.1578 118.593L90.2299 118.503L90.8605 117.784C91.3109 117.254 91.7614 116.715 92.2658 116.203C92.7703 115.691 93.4189 114.99 93.9865 114.406C94.554 113.822 95.2116 113.13 95.7882 112.483C96.3647 111.836 96.7971 111.378 97.3106 110.794L98.5088 109.455C100.184 107.658 101.698 105.977 103.247 104.342C103.644 103.919 104.076 103.524 104.499 103.138L104.725 102.922L104.779 103.03C105.004 103.461 105.229 103.928 105.436 104.342C105.644 104.755 105.77 105.088 105.932 105.456C106.166 106.004 106.436 106.633 106.743 107.253C107.58 108.862 108.544 110.614 109.76 112.779C110.143 113.6 110.808 114.257 111.634 114.63C111.928 114.746 112.229 114.842 112.535 114.918L112.968 115.044C113.24 115.159 113.532 115.219 113.827 115.222C114.123 115.224 114.416 115.168 114.689 115.057C114.963 114.946 115.212 114.782 115.422 114.575C115.632 114.367 115.799 114.121 115.913 113.849C116.634 112.456 117.229 111.054 117.922 109.356C118.156 108.808 118.346 108.242 118.535 107.693C118.724 107.145 118.904 106.642 119.12 106.112C119.337 105.582 119.535 105.213 119.787 104.71C120.039 104.207 120.192 103.91 120.373 103.497C120.688 102.778 120.985 102.041 121.273 101.332L121.634 100.433L121.823 99.9658C122.017 99.5469 122.179 99.1144 122.309 98.6718L122.58 97.6115C123.138 95.4549 123.706 93.2355 124.174 91.025C124.382 90.0302 124.364 89.0015 124.12 88.0148C123.837 87.1497 123.404 86.3407 122.841 85.6246L122.733 85.4719C122.368 85.0125 121.922 84.6228 121.418 84.3217L121.327 84.2588C120.909 83.9242 120.424 83.6822 119.904 83.5489C118.454 83.2883 116.967 83.0907 115.463 82.9559C114.463 82.866 113.454 82.848 112.472 82.8301H111.742H109.995C107.322 82.9016 104.65 82.6664 102.031 82.1292C100.608 81.7787 99.2475 81.3384 97.8692 80.8712C97.5825 80.7771 97.3353 80.5906 97.1665 80.341C96.5002 79.0931 96.2122 77.6788 96.3377 76.2705C97.0473 77.0138 97.9101 77.5947 98.8666 77.9732C99.8231 78.3517 100.851 78.5188 101.878 78.463C104.215 78.4271 106.507 77.8094 108.544 76.6659C108.815 76.4952 109.094 76.3424 109.4 76.1717C109.778 75.9655 110.144 75.7406 110.499 75.4977C111.73 74.771 112.681 73.6544 113.202 72.3258C113.664 71.3616 113.756 70.2624 113.463 69.2347L112.859 67.6173L112.76 67.3567H113.211H115.121C116.265 67.3567 117.436 67.4016 118.598 67.3567C121.165 67.2848 124.183 67.186 127.201 66.9883C129.868 66.8097 132.547 66.9152 135.192 67.3028C136.081 67.4439 136.931 67.7705 137.685 68.2613C138.44 68.7521 139.082 69.3961 139.57 70.1513C140.095 70.9608 140.536 71.8219 140.885 72.7212V72.82C141.277 73.6201 141.579 74.4609 141.786 75.327C142.028 77.2622 142.003 79.2212 141.714 81.1497V81.2216C141.615 82.1651 141.453 83.1176 141.291 84.0431V84.1689C141.218 84.6003 141.137 85.0675 141.074 85.4808C141.074 85.7504 140.993 86.029 140.957 86.3345C140.921 86.64 140.858 87.0803 140.795 87.4487C140.642 88.2215 140.48 89.0122 140.327 89.776C140.218 90.2702 140.119 90.7644 140.02 91.2676L139.588 93.4422C139.309 94.8709 138.993 96.4973 138.687 98.0518C138.507 98.8965 138.255 99.7321 138.011 100.55C137.894 100.936 137.777 101.332 137.669 101.718C137.669 101.871 137.597 102.032 137.561 102.185C137.527 102.441 137.451 102.69 137.336 102.922C136.954 103.678 136.858 104.546 137.065 105.366C137.105 105.616 137.132 105.868 137.147 106.121C137.201 106.446 137.33 106.754 137.525 107.02C137.588 107.115 137.646 107.214 137.696 107.316L137.75 107.415L138.273 107.595L139.065 107.864C139.258 107.938 139.469 107.953 139.671 107.909C139.873 107.864 140.057 107.761 140.2 107.613C140.706 107.2 141.046 106.62 141.155 105.977C141.189 105.865 141.241 105.759 141.309 105.663C141.365 105.57 141.416 105.474 141.462 105.375L141.678 104.899C141.897 104.449 142.084 103.983 142.236 103.506C142.516 102.608 142.768 101.61 143.002 100.685V100.595C143.083 100.262 143.164 99.9298 143.254 99.5974L143.398 99.0762C143.516 98.6359 143.651 98.1327 143.75 97.6295C144.128 95.6347 144.516 93.55 144.885 91.4473C145.11 90.1534 145.317 88.8415 145.525 87.5745L145.651 86.7838C145.732 86.2896 145.813 85.7864 145.903 85.2921V85.0406C146.137 83.6478 146.38 82.2101 146.543 80.7813C146.693 79.2557 146.747 77.7221 146.705 76.1896C146.677 75.1185 146.559 74.0515 146.353 72.9997C146.225 72.4238 146.035 71.8633 145.786 71.3284C145.732 71.1846 145.678 71.0408 145.615 70.8971C145.183 69.5316 144.447 68.2813 143.462 67.2399C142.966 66.7906 142.426 66.3413 141.939 66.0268C141.651 65.8202 141.345 65.5955 141.038 65.3709C140.987 65.3346 140.946 65.2849 140.921 65.2271L141.128 64.3825C141.552 62.6572 142.029 60.8691 142.498 59.1348C142.885 57.8229 143.344 56.502 143.804 55.1991L144.48 53.2582C144.822 52.2608 145.173 51.2364 145.606 50.2749C146.293 48.9639 147.19 47.774 148.263 46.7525L148.804 46.1685C149.679 45.1675 150.637 44.2418 151.668 43.4009L151.813 43.2841C153.102 42.1885 154.555 41.3002 156.119 40.6513C156.413 40.5625 156.715 40.4965 157.02 40.4536L157.335 40.3907H157.632C157.878 40.3728 158.121 40.3214 158.353 40.2379C158.643 40.1259 158.955 40.0776 159.265 40.0962C159.576 40.1148 159.879 40.1999 160.154 40.3458L160.947 40.6423C161.172 40.7232 161.407 40.804 161.623 40.8939L161.857 40.9927C162.287 41.1478 162.689 41.3725 163.046 41.6577C162.65 41.7565 162.262 41.8464 161.884 41.9722L161.659 42.044C160.302 42.4028 159.004 42.9535 157.803 43.6794C156.415 44.5104 155.339 45.7732 154.74 47.2737C154.311 48.5499 154.027 49.87 153.894 51.2094L153.83 51.6228C153.648 52.4806 153.663 53.3687 153.875 54.2197L154.011 54.6599V54.7768C154.201 55.7943 154.69 56.7324 155.416 57.4725C155.496 57.5582 155.562 57.6551 155.614 57.76C155.967 58.508 156.511 59.1506 157.19 59.6236C157.87 60.0966 158.662 60.3835 159.488 60.4557H159.695C159.705 60.5423 159.705 60.6297 159.695 60.7163C158.902 64.2207 158.119 67.7431 157.317 71.4991C157.128 72.3438 156.974 73.2244 156.839 74.0061L156.659 74.9676C156.569 75.4798 156.47 75.992 156.362 76.5581C156.128 77.7711 155.884 79.0201 155.704 80.2691C155.524 81.5182 155.398 82.7582 155.281 83.9713V84.115C155.218 84.78 155.155 85.4269 155.074 86.0829C154.993 86.7388 154.92 87.3319 154.83 87.9429V88.1406L154.695 89.1919C154.695 89.5244 154.614 89.8569 154.578 90.1893V90.3601C154.515 90.9262 154.452 91.5192 154.362 92.0943C154.218 93.0917 154.056 94.0891 153.894 95.1315C153.659 96.5782 153.398 98.2136 153.173 99.804C152.849 102.149 152.578 104.602 152.335 106.768L152.209 107.684C152.209 107.684 152.119 108.583 152.578 108.799C153.138 109.176 153.82 109.329 154.488 109.23C154.948 109.131 155.794 108.951 155.74 107.927C155.963 107.727 156.139 107.481 156.258 107.207C156.376 106.932 156.433 106.635 156.425 106.337C156.429 106.253 156.429 106.169 156.425 106.085C156.695 104.378 156.929 102.626 157.155 100.945V100.873C157.299 99.7411 157.452 98.6179 157.614 97.4857C157.893 95.5089 158.191 93.5051 158.515 91.5552L158.605 90.9082C158.803 89.6232 158.992 88.3293 159.182 87.0354C159.281 86.3525 159.371 85.6606 159.461 84.9687V84.771C159.596 83.7107 159.74 82.6234 159.911 81.5631C160.425 78.4271 160.983 75.2731 161.515 72.2809C161.641 71.589 161.803 70.8971 161.956 70.2232C162.028 69.9266 162.091 69.6301 162.163 69.3246L162.299 68.7046C162.389 68.3362 162.479 67.9498 162.551 67.5634C162.677 66.9344 162.785 66.2964 162.902 65.6584C163.091 64.661 163.28 63.6277 163.479 62.6123C163.554 62.4196 163.661 62.2405 163.794 62.0821L163.857 62.0013C163.955 61.8722 164.06 61.7492 164.172 61.6328C164.298 61.4981 164.416 61.3633 164.533 61.2105C164.626 61.0785 164.71 60.9404 164.785 60.7972C164.837 60.7012 164.894 60.6082 164.956 60.5186C165.253 60.1232 165.551 59.7009 165.857 59.2966C166.621 58.1167 167.528 57.0361 168.559 56.0797C168.622 56.0338 168.674 55.9757 168.713 55.909C169.839 54.4249 171.181 53.1166 172.694 52.0271C173.761 51.3051 174.895 50.6882 176.082 50.1851C177.661 49.567 179.397 49.4693 181.036 49.9065C181.492 50.0268 181.913 50.2549 182.262 50.5715C181.633 50.6988 181.026 50.9167 180.46 51.2184C180.347 51.2656 180.229 51.2988 180.108 51.3173C179.929 51.3433 179.753 51.3916 179.586 51.461C179.361 51.5689 179.136 51.7037 178.91 51.8384C178.625 52.0109 178.323 52.1554 178.009 52.2698C177.073 52.5896 176.265 53.2006 175.703 54.013C175.28 54.6096 174.898 55.2341 174.559 55.882L174.478 56.0437C173.289 58.1044 172.808 60.4963 173.109 62.8549C173.202 63.4002 173.408 63.9203 173.712 64.3825C173.82 64.5712 173.929 64.7688 174.019 64.9665C174.313 65.7402 174.811 66.4209 175.459 66.9377C176.107 67.4544 176.882 67.7884 177.703 67.9048C177.94 67.9438 178.174 67.9948 178.406 68.0576L178.127 68.5698L177.055 70.4388L176.154 71.9754C175.559 72.9638 174.938 73.9792 174.352 75.0305C173.127 77.2764 172.14 79.6434 171.406 82.0932C170.821 84.133 170.244 86.2177 169.686 88.2394L168.677 91.8337C168.523 92.3998 168.352 92.9659 168.19 93.532V93.6219C167.866 94.7091 167.532 95.8324 167.289 96.9556C166.848 98.7527 166.469 100.55 166.1 102.347L165.659 104.414C165.343 105.914 165.019 107.469 164.758 109.005C164.734 109.147 164.695 109.286 164.641 109.419C164.493 109.705 164.434 110.029 164.471 110.349C164.508 110.669 164.639 110.97 164.848 111.216L165.064 111.494C165.214 111.73 165.411 111.932 165.644 112.087C165.877 112.241 166.14 112.346 166.415 112.393C166.652 112.466 166.902 112.489 167.149 112.461C167.395 112.433 167.633 112.355 167.848 112.231C168.017 112.101 168.157 111.937 168.26 111.75C168.362 111.563 168.424 111.356 168.442 111.144C168.466 111.048 168.506 110.957 168.559 110.874C168.605 110.811 168.632 110.749 168.677 110.677L168.749 110.533C168.848 110.392 168.918 110.233 168.956 110.066C169.01 109.733 169.055 109.401 169.1 109.068C169.145 108.736 169.199 108.376 169.262 108.035L169.415 107.136C169.64 105.905 169.875 104.629 170.154 103.389C170.604 101.359 171.055 99.2828 171.667 97.0185C172.163 95.0236 172.73 92.894 173.469 90.3241C173.902 88.7516 174.37 87.1522 174.811 85.5797L175.181 84.2768C175.271 83.9623 175.37 83.6567 175.46 83.3782C175.541 83.6118 175.622 83.8724 175.694 84.151C176.432 87.0123 176.834 89.9493 176.892 92.903C176.892 93.3074 176.892 93.7027 176.946 94.1071C176.946 94.7181 177.019 95.41 177.01 96.0839C177.01 96.9825 176.91 97.9709 176.838 98.8965V99.5255C176.784 100.128 176.739 100.739 176.703 101.323C176.586 102.913 176.46 104.719 176.262 106.453C176.01 108.772 175.685 111.126 175.361 113.462L175.19 114.657C175.019 115.879 174.838 117.101 174.658 118.368C174.478 119.635 174.271 120.965 174.091 122.277C173.992 122.996 173.911 123.733 173.829 124.506C173.748 125.278 173.622 126.303 173.487 127.201C173.244 128.747 172.983 130.328 172.721 131.892C172.37 133.977 172.01 136.142 171.703 138.281C171.487 139.763 171.352 141.264 171.208 142.711C171.118 143.681 171.019 144.688 170.902 145.676C170.704 147.392 170.478 149.135 170.253 150.834V151.085L169.848 154.212C169.803 154.554 169.776 154.886 169.74 155.255C169.704 155.623 169.668 156.036 169.613 156.423C169.433 157.681 169.244 158.939 169.064 160.197L169.334 160.242L169.037 160.332C168.848 161.644 168.65 162.946 168.469 164.249C168.289 165.552 168.109 166.873 167.938 168.149L167.605 170.674C167.451 171.788 167.298 172.939 167.172 174.08C167.158 174.363 167.227 174.644 167.37 174.888C167.506 175.202 167.668 175.502 167.857 175.787L168.019 176.048C168.226 176.398 168.46 176.793 168.857 176.883H169.127C169.508 176.858 169.881 176.76 170.226 176.596L170.415 176.524C170.572 176.459 170.711 176.36 170.823 176.234C170.936 176.108 171.018 175.958 171.064 175.796C171.244 174.897 171.361 174.143 171.442 173.424C171.523 172.705 171.568 172.13 171.622 171.456C171.694 170.611 171.767 169.749 171.875 168.904C172.028 167.736 172.208 166.541 172.388 165.391C172.523 164.492 172.667 163.593 172.793 162.695C173.109 160.385 173.415 158.049 173.694 155.506C173.793 154.716 173.884 153.925 173.974 153.125V152.927C174.109 151.741 174.262 150.393 174.442 149.108C174.541 148.363 174.703 147.59 174.838 146.907C174.974 146.224 175.1 145.595 175.199 144.93C175.298 144.265 175.343 143.78 175.406 143.133C175.469 142.486 175.505 142.019 175.586 141.471C176.172 137.499 176.784 133.572 177.244 130.598C177.379 129.699 177.523 128.882 177.676 128.019L177.73 127.669C177.928 126.474 178.136 125.234 178.316 124.02C178.424 123.32 178.487 122.61 178.559 121.9C178.631 121.19 178.685 120.525 178.793 119.815C178.946 118.746 179.136 117.659 179.316 116.589C179.496 115.52 179.685 114.433 179.847 113.345C180.208 110.874 180.451 108.853 180.622 107.055L180.73 105.95C181.196 102.204 181.358 98.4271 181.217 94.6552C181.217 94.0262 181.144 93.3882 181.108 92.7592C181.036 91.2946 180.964 89.785 180.775 88.2664C180.541 86.642 180.183 85.0379 179.703 83.4681C179.252 81.9129 178.701 80.3883 178.055 78.9033C177.781 78.445 177.665 77.9102 177.723 77.38C177.782 76.8498 178.012 76.353 178.379 75.965C178.442 75.8991 178.494 75.8232 178.532 75.7404L179.045 74.8418C179.433 74.1679 179.82 73.485 180.217 72.811L181.117 71.3733C181.658 70.4748 182.225 69.5762 182.73 68.5967C183.631 66.9254 184.532 65.0923 185.487 62.9987C186 61.9024 186.387 60.7522 186.829 59.5841C186.926 59.2891 187.007 58.9892 187.072 58.6855C187.136 58.2978 187.252 57.9202 187.414 57.5623C188.008 56.3956 188.222 55.0732 188.027 53.7793C187.916 51.9229 187.074 50.1855 185.685 48.945ZM183.135 54.1837C183.237 54.175 183.34 54.175 183.442 54.1837H183.55C183.65 54.1814 183.75 54.2011 183.842 54.2415C183.933 54.2819 184.015 54.3419 184.081 54.4173C184.127 54.5206 184.151 54.6323 184.151 54.7453C184.151 54.8583 184.127 54.97 184.081 55.0733C183.955 55.4147 183.838 55.7562 183.721 56.1246C183.604 56.493 183.559 56.6458 183.46 56.9064L183.18 57.7241C182.694 59.0989 182.198 60.5096 181.694 61.8934C181.469 62.5044 181.207 63.1335 180.793 63.9511C180.755 64.0242 180.701 64.087 180.633 64.1339C180.566 64.1809 180.487 64.2107 180.406 64.2207C180.304 64.2417 180.199 64.2388 180.099 64.2122C179.999 64.1857 179.907 64.1363 179.829 64.068C179.685 63.9095 179.506 63.7865 179.307 63.7085C177.811 63.2503 177.451 62.6752 177.559 60.896C177.535 59.6134 177.916 58.3557 178.649 57.3017C179.042 56.7938 179.482 56.3244 179.964 55.9C180.199 55.6753 180.442 55.4507 180.667 55.2081C181.305 54.5821 182.151 54.2112 183.045 54.1657L183.135 54.1837ZM164.136 45.8719L163.965 46.4111C163.749 47.067 163.533 47.75 163.289 48.3969C163.109 48.8911 162.911 49.3853 162.713 49.8616V49.9335C162.497 50.4546 162.28 50.9938 162.091 51.5239C161.704 52.6022 161.362 53.7254 161.046 54.7857C160.947 55.1272 160.884 55.4687 160.821 55.8011C160.821 55.909 160.821 56.0168 160.758 56.1246C160.625 56.0087 160.499 55.8857 160.38 55.7562C160.236 55.6124 160.082 55.4597 159.929 55.3249C158.632 54.2196 158.353 52.6292 158.128 51.0297V50.886C158.122 50.6875 158.153 50.4896 158.218 50.3019C158.218 50.212 158.272 50.1222 158.29 50.0323C158.308 49.9425 158.353 49.7538 158.38 49.61C158.417 49.2982 158.505 48.9946 158.641 48.7114L158.686 48.6485C159.025 47.9735 159.482 47.3647 160.037 46.8514C161.074 46.1551 162.252 45.6978 163.488 45.5125L164.073 45.3777H164.208V45.9348L164.136 45.8719ZM19.2333 12.7507L18.954 12.8046C18.954 13.9728 18.909 15.1858 18.8369 16.3989C18.7721 17.1998 18.6242 17.9917 18.3955 18.7621C18.3592 18.9033 18.2844 19.0318 18.1795 19.1333C18.0746 19.2348 17.9435 19.3054 17.8009 19.3372C17.6146 19.384 17.4192 19.3813 17.2343 19.3292C17.0493 19.2772 16.8813 19.1777 16.7469 19.0407C16.3602 18.6513 16.1322 18.1326 16.1073 17.585C15.837 14.8893 15.5758 12.1038 15.3145 9.12949C15.2515 8.42861 15.2064 7.70975 15.1524 7.01785V6.89205C15.1524 6.43378 15.0984 5.99348 15.0623 5.51724C15.1701 4.92953 15.4907 4.40185 15.9632 4.0346H16.0803C16.2917 4.03623 16.4981 4.09863 16.6748 4.21432C17.5798 4.89545 18.1838 5.90073 18.3594 7.01785C18.5656 7.99737 18.719 8.98722 18.8189 9.98313C18.8729 10.4144 18.918 10.8817 18.981 11.2321C19.0441 11.5826 18.981 12.2655 18.981 12.7687L19.2333 12.7507ZM83.4914 14.5029L83.4374 14.7635C83.3814 15.4601 83.1108 16.1223 82.6627 16.6595C82.5593 16.7403 82.4335 16.7873 82.3024 16.7943C81.4015 16.6775 81.0862 15.9856 80.87 15.2487C80.2212 13.0214 80.0342 10.6855 80.3205 8.38368C80.3205 8.06019 80.3205 7.72772 80.3205 7.40423H80.0412L80.3205 7.35032C80.3205 6.58654 80.3205 5.80478 80.3205 5.03201C80.3205 4.57375 80.4195 4.25925 80.7979 4.13345C80.952 4.06913 81.1173 4.03555 81.2844 4.0346C81.4146 4.03106 81.5441 4.05573 81.6638 4.10692C81.7836 4.15812 81.8908 4.23461 81.978 4.33113C82.7583 5.14407 83.2788 6.1699 83.4735 7.27844C83.9104 9.66635 83.9165 12.1129 83.4914 14.5029ZM5.11682 18.4117C5.05376 17.5131 4.9367 16.7134 4.8286 15.8867V15.8148C4.8286 15.725 4.8286 15.6801 4.8286 15.6711H4.95468H5.12584C5.6033 15.6711 6.09877 15.6711 6.59424 15.6082C6.87816 15.5866 7.1608 15.5506 7.44105 15.5003L7.99056 15.4284L9.12565 15.3206H9.42295C10.1256 15.2577 10.8553 15.1948 11.567 15.105H11.7922C11.8095 15.194 11.8095 15.2855 11.7922 15.3745V15.743C11.8069 16.536 11.922 17.3239 12.1345 18.0882C12.4495 18.9153 12.8967 19.6861 13.4588 20.3706C14.1082 21.1638 14.9363 21.793 15.8755 22.2067C16.8148 22.6205 17.8387 22.8073 18.8639 22.7518C19.5651 22.7548 20.2532 22.5619 20.8502 22.1951C21.4472 21.8283 21.9294 21.3021 22.2421 20.6761C22.4208 20.2954 22.5219 19.883 22.5394 19.463V19.3552C22.6475 18.4566 22.7196 17.5581 22.7917 16.6595C22.8638 15.7609 22.8998 15.1319 22.9448 14.2423C23.022 14.2256 23.1019 14.2256 23.1791 14.2423H24.4042H24.7105C25.4041 14.2423 26.1159 14.2423 26.8275 14.2423C28.6292 14.2423 31.0345 14.2423 33.4668 14.2423C35.8992 14.2423 38.1153 14.1525 40.1602 14.0806C41.4845 14.0267 42.8628 13.9278 44.7095 13.7661H44.8987C44.9027 13.8439 44.9027 13.9219 44.8987 13.9997C44.8987 14.8983 44.9798 15.7969 45.0699 16.6954C45.1208 18.0474 45.6038 19.3477 46.4482 20.4065C46.5626 20.547 46.696 20.671 46.8446 20.7749C48.0837 21.6849 49.5849 22.1704 51.1236 22.1587C51.6985 22.1726 52.2671 22.0375 52.774 21.7666C53.2808 21.4957 53.7086 21.0983 54.0154 20.6132C54.9772 18.828 55.5887 16.8762 55.8171 14.8624L55.9072 14.2873C55.9072 13.9548 56.0063 13.6133 56.0604 13.3258C56.0604 13.3258 56.1144 13.3258 56.1144 13.2719C56.5093 13.2298 56.9065 13.2118 57.3036 13.218H59.5196C60.997 13.218 62.3303 13.218 63.6726 13.218C66.8886 13.218 70.1497 13.0922 72.9154 13.0023C73.9063 13.0023 74.8973 12.8855 75.8612 12.8046L76.5188 12.7417H76.681C76.7205 12.8263 76.7419 12.9181 76.744 13.0113C76.8972 14.2513 77.1134 15.5003 77.3296 16.7493L77.4287 17.2975C77.4886 17.5584 77.6195 17.7978 77.807 17.9894L78.5097 18.8071L79.0773 19.454C79.4112 19.8668 79.8301 20.2031 80.3057 20.4403C80.7813 20.6775 81.3025 20.81 81.8339 20.8288C82.716 20.8923 83.6 20.7348 84.4055 20.3707C85.211 20.0067 85.9126 19.4475 86.4463 18.7442C86.7213 18.353 86.9032 17.9042 86.9778 17.4323C87.2391 16.2102 87.5363 14.7366 87.7616 13.3258C87.7673 13.2532 87.7889 13.1827 87.8246 13.1191C87.8754 13.1119 87.927 13.1119 87.9778 13.1191L89.275 13.2L91.6712 13.3438L92.3469 13.3977L92.8514 13.4516C92.9796 13.4493 93.1074 13.4675 93.2298 13.5055C93.2489 13.6336 93.2489 13.7638 93.2298 13.8919V16.8392C93.2298 17.8815 93.2298 18.9239 93.2298 19.9662V26.5887H92.0947C91.2479 26.5887 90.392 26.5887 89.5452 26.5887L82.4735 26.364H82.2122C79.0052 26.2562 75.69 26.1394 72.4199 26.0585C68.1138 25.9417 63.6096 25.8698 59.0422 25.8249C57.0783 25.8249 55.0694 25.8249 53.2947 25.8788L50.5922 25.9237H47.2049L40.4845 26.0046C38.4756 26.0046 36.4127 26.0046 34.3857 26.0945C31.6832 26.1574 28.9806 26.2562 26.4041 26.364L21.6566 26.5797H21.1791C18.8009 26.6965 16.3325 26.8043 13.9092 26.8942C12.2787 26.9571 10.6391 26.984 8.82841 27.011H6.31498C6.01213 27.0136 5.71031 27.0468 5.41412 27.1098C5.40563 27.0683 5.40563 27.0255 5.41412 26.984C5.41412 26.3371 5.36009 25.6811 5.32406 24.9712L5.21596 23.1741C5.1529 22.1497 5.08984 21.1254 5.0448 20.101C5.0448 19.8494 5.0448 19.5888 5.0448 19.2653C5.0448 18.9419 5.13489 18.7262 5.10786 18.4566L5.11682 18.4117ZM96.7161 104.719C96.4008 105.034 96.0855 105.348 95.8152 105.672L94.8152 106.795C94.4909 107.163 94.1486 107.55 93.7973 107.918C93.3288 108.421 92.8424 108.924 92.3289 109.446L92.1217 109.661L91.0317 110.794C90.8065 111.027 90.5993 111.279 90.347 111.557C90.0948 111.836 89.8605 112.123 89.5993 112.393C88.9687 113.04 88.3111 113.696 87.6805 114.334L87.221 114.792L86.0859 115.924L84.8427 117.2L84.5275 117.515C83.6266 118.413 82.5095 119.59 81.4285 120.651C80.5276 121.549 79.4557 122.448 78.4737 123.266L78.1674 123.526C78.0722 123.581 77.9603 123.6 77.8521 123.58C76.8612 123.266 75.8972 122.897 75.0685 122.574L74.5459 122.376C73.5099 121.981 72.4379 121.576 71.402 121.136C70.9155 120.929 70.429 120.696 69.9245 120.444C69.4201 120.193 68.7264 119.869 68.1228 119.626C66.9067 119.141 65.6635 118.728 64.4474 118.261L64.0059 118.099L62.4745 117.542L61.8348 117.308C61.2133 117.083 60.5736 116.859 59.9701 116.589L59.2404 116.266C57.6729 115.565 55.8982 114.774 54.2406 113.921C52.8918 113.211 51.5917 112.412 50.3489 111.53C48.9463 110.574 47.6017 109.536 46.3221 108.421C44.5388 106.906 42.9502 105.177 41.5926 103.272C41.007 102.374 40.3674 101.574 39.7909 100.765C39.4936 100.388 39.2053 100.002 38.89 99.6153C37.303 97.4877 35.8498 95.264 34.5389 92.9569C34.0794 92.1662 33.638 91.2946 33.3227 90.5218C33.0074 89.749 32.62 89.0122 32.2146 88.2844C31.9981 87.839 31.829 87.3722 31.7102 86.8916C31.6291 86.631 31.557 86.3614 31.4669 86.1009C31.2327 85.4539 30.9895 84.8069 30.7462 84.151V84.0611C30.2508 82.7402 29.7463 81.3654 29.3319 80.0175C29.0977 79.2717 28.8365 78.5259 28.5932 77.7981C28.112 76.4915 27.703 75.1597 27.368 73.8084C26.9987 72.173 26.5122 70.5646 26.0258 68.9562C25.7375 68.0037 25.4312 67.0153 25.1249 66.0358C24.8997 65.2091 24.7285 64.3465 24.5664 63.5019C24.4853 63.1155 24.4132 62.7291 24.3321 62.3517C24.17 61.552 24.0078 60.7612 23.8367 59.9615V59.8716C23.4853 58.1464 23.116 56.3582 22.7196 54.615C22.4584 53.4738 22.1701 52.3237 21.9088 51.3083V51.2274C21.6386 50.1671 21.3593 49.0708 21.1161 47.9926C20.8728 46.9143 20.7287 46.0157 20.5575 44.9824C20.4855 44.5151 20.4044 44.0838 20.3233 43.5896C20.3254 43.5687 20.3254 43.5476 20.3233 43.5267H20.3774L20.8639 43.3829C22.2061 42.9875 23.5664 42.5832 24.9537 42.1249C27.0167 41.424 29.1067 40.7052 31.1336 39.9953L31.4309 39.8965L34.4938 38.8362L35.8811 38.3509C37.6829 37.7219 39.6017 37.066 41.4665 36.437L44.5564 35.4036L44.8537 35.3048C46.0068 34.9184 47.1959 34.532 48.367 34.1277C50.1687 33.5076 52.1686 32.7978 54.673 31.8992C54.848 31.8254 55.0071 31.7186 55.1415 31.5847C55.2137 31.5162 55.2957 31.4587 55.3847 31.414C55.9027 31.2546 56.4381 31.1581 56.9792 31.1264H57.6369C60.0692 31.0366 62.5916 30.9288 65.069 30.9198H65.195C66.0959 30.9198 66.9968 30.9737 67.8256 31.0276C68.6544 31.0815 69.2669 31.1264 69.9876 31.1444C72.1947 31.1444 74.4018 31.1444 76.5729 31.1444L84.077 31.2253L89.6624 31.2882C90.8605 31.2882 92.0947 31.2882 93.3379 31.2882H93.509C93.5221 31.3534 93.5221 31.4206 93.509 31.4859C93.5811 33.0943 93.6802 34.7207 93.7793 36.3022V36.5358C93.8333 37.3266 93.8784 38.1173 93.9234 38.908C93.9234 39.546 93.9955 40.175 94.0225 40.804V41.2353C94.1036 42.8168 94.1846 44.4522 94.3108 46.0517C94.4639 47.8488 94.6982 49.8346 95.0315 52.0451C95.1846 53.0425 95.3918 54.0309 95.59 55.0014C95.7071 55.5585 95.8242 56.1246 95.9323 56.6817C96.2519 58.5331 96.9711 60.293 98.0403 61.8395C98.698 62.7381 99.3196 63.7445 99.9231 64.697L100.554 65.6854L97.4458 67.815L97.2476 67.4016C97.0494 66.9793 96.8422 66.557 96.644 66.1257L96.0314 64.8048C95.4369 63.5288 94.8243 62.1989 94.2297 60.887C93.9955 60.3479 93.7883 59.7728 93.5811 59.2247V59.1618C93.3288 58.4789 93.0676 57.778 92.7523 57.104C92.2118 55.9719 91.5992 54.8576 90.9506 53.7793V53.7165L90.4911 52.8898C90.2119 52.3686 89.9056 51.8474 89.5903 51.3442C89.0768 50.4457 88.5453 49.5471 88.0949 48.6485C87.1297 46.6324 85.4932 45.0127 83.4644 44.0658C82.854 43.7884 82.2212 43.5629 81.5727 43.3919C81.2664 43.302 80.9601 43.2122 80.6718 43.1044C79.1413 42.5385 77.5078 42.3027 75.8792 42.4125C75.332 42.4299 74.7908 42.533 74.2757 42.718C72.2864 43.3924 70.5095 44.5761 69.1228 46.1505C68.3861 47.2111 67.8545 48.3996 67.5553 49.6549L67.3931 50.1851C66.5824 52.755 66.6995 55.3518 66.9247 58.2273C67.0508 59.8896 67.267 61.5879 67.5643 63.2592C67.7919 64.4804 68.1142 65.6821 68.5282 66.8535C69.1318 68.5518 69.8705 70.5646 70.7713 72.5504C71.5461 74.2757 72.465 75.956 73.4199 77.6723C74.3629 79.3342 75.5468 80.8482 76.9332 82.1651C77.1404 82.3538 77.3386 82.5515 77.5368 82.7492C78.1483 83.4066 78.8176 84.0081 79.5367 84.5463C80.6359 85.3731 81.8497 86.036 83.1402 86.5142C84.3028 86.8848 85.5275 87.0222 86.7436 86.9186C88.6698 86.871 90.5629 86.4081 92.2928 85.5617C92.7763 85.316 93.2402 85.0337 93.6802 84.7171C93.9997 84.4892 94.3009 84.2368 94.5811 83.9623L94.6711 83.8724C95.4083 84.6272 96.3122 85.1995 97.3106 85.5437C97.5359 85.607 97.7645 85.658 97.9953 85.6965C98.1665 85.6965 98.3466 85.7684 98.5178 85.8223L100.013 86.2716C100.914 86.5412 101.77 86.8197 102.716 87.0533C104.981 87.6152 107.309 87.89 109.643 87.871H112.535C112.184 88.2394 111.832 88.6168 111.49 89.0032C111.148 89.3896 110.814 89.794 110.481 90.1983C110.148 90.6027 109.481 91.3934 108.932 91.9955C108.382 92.5975 107.869 93.1097 107.328 93.6398C106.995 93.9723 106.653 94.3138 106.328 94.6552L104.59 96.4524L103.959 97.1173C103.545 97.5486 103.139 98.0159 102.725 98.4023L101.707 99.4626C101.085 100.101 100.446 100.757 99.833 101.412C99.5087 101.763 99.1934 102.122 98.8781 102.473L98.77 102.599C98.4727 102.94 98.1664 103.29 97.8692 103.632C97.5719 103.973 97.2566 104.27 96.9683 104.53L96.7161 104.719ZM93.7162 71.9844C92.7098 73.7587 92.258 75.7927 92.419 77.8251C92.4354 78.1317 92.4961 78.4343 92.5992 78.7236C92.6787 78.9144 92.6898 79.1267 92.6307 79.3247C92.5716 79.5228 92.446 79.6945 92.2748 79.8109C91.5425 80.6248 90.6359 81.2639 89.6223 81.6808C88.6086 82.0977 87.5139 82.2816 86.4192 82.219C85.176 82.2801 83.9372 82.0299 82.8158 81.4912C82.2309 81.185 81.6987 80.7876 81.2393 80.3141C79.3656 78.4622 77.805 76.3198 76.618 73.9702C75.9423 72.6762 75.2486 71.4272 74.537 70.2681C73.9 69.1492 73.4468 67.9357 73.1946 66.6738C72.7442 64.7059 72.2938 62.5763 71.9335 60.3838C71.5494 57.9726 71.5069 55.5195 71.8074 53.0964C71.9035 51.8953 72.2699 50.7312 72.8794 49.6909C73.5309 48.481 74.5072 47.476 75.6991 46.7885C75.8087 46.7318 75.9277 46.6952 76.0504 46.6807C77.4634 46.5856 78.8693 46.948 80.0592 47.714C80.2405 47.8254 80.4339 47.9159 80.6357 47.9836C80.7375 48.0155 80.8368 48.0545 80.933 48.1004L81.0682 48.1723C81.4191 48.3476 81.7564 48.5488 82.0771 48.7743L82.4105 49.0259C82.8847 49.3354 83.3176 49.7038 83.6987 50.1222C85.0896 51.718 86.193 53.5421 86.9598 55.5136L87.4462 56.8345C87.8516 57.9487 88.3471 59.2067 88.7975 60.4288C89.5452 62.3158 90.32 64.1758 91.2569 66.3863C91.6533 67.2848 92.1037 68.3092 92.6171 69.3875C92.9505 70.0704 93.3108 70.7084 93.6532 71.3104C93.8603 71.571 93.8694 71.6878 93.7162 71.9574V71.9844ZM108.067 98.8246C109.049 97.926 109.869 97.0993 110.652 96.2457C111.148 95.7066 111.616 95.1404 112.031 94.6373L112.076 94.5833C112.409 94.188 112.742 93.7926 113.085 93.4062C113.427 93.0198 113.985 92.3639 114.517 91.8337C115.049 91.3036 115.292 90.998 115.67 90.5757C116.382 89.785 117.012 89.0751 117.634 88.3113C117.682 88.2323 117.746 88.1642 117.822 88.1116C117.898 88.0589 117.984 88.0229 118.075 88.0058C118.174 88.0058 118.283 88.1316 118.382 88.3113C118.627 88.8046 118.844 89.3117 119.03 89.8299L119.129 90.1085C119.159 90.2052 119.159 90.3083 119.129 90.405L118.769 91.7439C118.391 93.1546 117.994 94.6103 117.553 96.03C117.112 97.4498 116.652 98.7257 116.184 100.101V100.217C116.003 100.712 115.832 101.206 115.661 101.7L115.31 102.724C114.841 104.099 114.355 105.51 113.841 106.894C113.562 107.64 113.238 108.403 112.94 109.131L112.778 109.527C112.562 109.122 112.373 108.772 112.193 108.403C111.85 107.675 111.526 106.93 111.211 106.202L111.031 105.797L110.499 104.557C110.175 103.803 109.815 102.949 109.427 102.122C109.04 101.296 108.526 100.379 107.986 99.4266C107.797 99.1391 107.815 99.0582 108.067 98.8246ZM52.2768 12.2745C52.202 13.245 52.0422 14.2071 51.7993 15.1499L51.5831 16.0934C51.4594 16.7059 51.2846 17.3071 51.0606 17.8905C50.7543 18.6813 50.412 18.7891 49.9345 18.7891C49.6672 18.7419 49.4219 18.6111 49.2341 18.4157C49.0462 18.2202 48.9255 17.9702 48.8895 17.7018C48.7274 16.5876 48.5923 15.4464 48.4661 14.3502L48.3941 13.6762C48.0337 10.6301 47.6283 7.17061 48.3941 4.29519C48.4571 4.07953 48.5382 4.01663 48.7724 4.01663H48.8265C50.0967 4.01663 50.6282 4.26823 51.2948 5.68797C52.146 7.7734 52.4828 10.0322 52.2768 12.2745ZM7.23387 57.4994V56.8524L7.17982 55.5585L7.12577 53.9321C6.98164 49.5561 6.65732 45.1711 6.33301 40.9298C6.25194 39.8695 6.17085 38.8092 6.09878 37.7399C6.02671 36.6706 5.96364 35.3228 5.9186 34.1456C5.9186 33.3549 5.86456 32.5462 5.81952 31.7465C5.80892 31.675 5.80892 31.6023 5.81952 31.5308C5.88145 31.514 5.94678 31.514 6.00872 31.5308H6.81946C7.72032 31.5847 8.83741 31.6566 9.89141 31.6386C12.9003 31.6386 15.8641 31.5578 18.3685 31.5038L23.7105 31.3691H24.197L28.7013 31.2522H30.4039C32.7551 31.1893 35.1965 31.1264 37.6108 31.1085C39.1422 31.1085 40.6827 31.1085 42.2592 31.1624H43.2592L42.7817 31.3241C40.6917 32.043 39.0882 32.5821 37.5928 33.1213L35.6109 33.7682L35.3226 33.8581L33.2146 34.55L31.1697 35.2419L28.8004 36.0326L26.9987 36.6167L26.6564 36.7245L24.4312 37.4434C22.8998 37.9466 21.6205 38.3419 20.3233 38.8451C20.0443 38.9478 19.7733 39.0709 19.5126 39.2136C19.228 39.3761 18.9257 39.5057 18.6117 39.5999C18.164 39.7515 17.7419 39.9696 17.3595 40.2469C17.1154 40.4171 16.856 40.5645 16.5848 40.6872C16.4176 40.7747 16.2754 40.903 16.1715 41.0601C16.0675 41.2172 16.0051 41.3981 15.9902 41.5858V41.7655C15.8726 42.3326 15.8273 42.9123 15.8551 43.4907C15.9452 44.6229 16.1433 45.7372 16.3325 46.7885C16.4046 47.1749 16.5127 47.5613 16.6208 47.9566C16.7289 48.352 16.7829 48.5407 16.846 48.8552C17.0802 49.9065 17.3055 50.9668 17.5307 52.0271V52.144C17.909 53.9411 18.3054 55.8191 18.7288 57.6432C19.0712 59.1348 19.4585 60.6264 19.8369 62.0642C20.0531 62.9088 20.2693 63.7445 20.4765 64.5801C20.6477 65.2541 20.8098 65.937 20.972 66.6109L21.035 66.8715C21.3143 68.0396 21.6116 69.2437 21.9359 70.4208C22.3683 72.0562 22.8367 73.7006 23.3142 75.2911L23.5574 76.1357C24.0349 77.7621 24.5303 79.4515 25.0618 81.0958C25.287 81.8147 25.5573 82.5425 25.8366 83.2973C26.0437 83.8634 26.251 84.4475 26.4492 85.0226C26.5843 85.4269 26.7014 85.8493 26.8185 86.2806C26.9356 86.7119 27.0797 87.251 27.2509 87.7273C27.6022 88.7157 27.9897 89.7041 28.368 90.6566L28.8184 91.8337C28.9536 92.1662 29.0797 92.4987 29.2058 92.8491C29.5031 93.6309 29.8004 94.4396 30.1067 95.2213C30.413 96.0031 30.9084 96.7848 31.3318 97.5217L31.53 97.8721C31.9354 98.573 32.4309 99.3727 32.9083 100.11C34.0975 101.79 35.3767 103.596 36.7279 105.366C37.3045 106.139 37.9621 106.867 38.5837 107.568L39.0612 108.098C39.3767 108.436 39.7105 108.757 40.0611 109.059L40.8089 109.733C41.5115 110.362 42.3764 111.144 43.2322 111.863C45.5026 113.796 47.9485 115.513 50.5381 116.994C52.4299 118.063 54.3938 119.042 55.8982 119.779C57.1234 120.372 58.4026 120.911 59.6458 121.442L60.0241 121.603C62.015 122.448 64.15 123.338 66.3301 124.2C67.1139 124.515 67.9247 124.811 68.7174 125.099L70.5822 125.8C70.9606 125.943 71.3479 126.114 71.7623 126.294C72.1767 126.474 72.8253 126.761 73.3929 126.959L73.8162 127.103C74.8549 127.501 75.9286 127.802 77.0233 128.001C77.7979 128.1 78.582 128.1 79.3565 128.001L80.2574 127.938C80.5245 127.924 80.7788 127.82 80.9781 127.642C82.0591 126.608 82.8969 125.845 83.6806 125C84.4644 124.155 85.1311 123.535 86.0229 122.592L86.167 122.403L89.3921 128.954H88.5543L85.7616 129.07C83.2212 129.169 80.5907 129.268 78.0053 129.403C76.0144 129.511 73.9964 129.672 72.0416 129.843L71.1407 129.915C70.402 129.978 69.6543 130.059 68.9336 130.131C67.7355 130.265 66.4923 130.391 65.2581 130.445C63.7897 130.499 62.2943 130.526 60.8529 130.544H60.7358C58.835 130.544 56.8621 130.544 54.9253 130.706C52.2948 130.868 49.6102 130.868 46.9617 130.877H44.07C42.1241 130.877 40.1512 130.939 38.2054 130.993C36.4037 131.038 34.5388 131.083 32.7101 131.101C30.6381 131.101 28.5662 131.101 26.4041 131.101H24.2511C21.9719 131.101 19.2693 131.056 16.5307 131.011C15.792 131.011 15.0443 131.011 14.3056 130.948L12.4048 130.903H12.3327C12.3364 130.883 12.3364 130.861 12.3327 130.841C12.2246 130.104 12.1165 129.376 11.9994 128.648V128.513C11.8913 127.83 11.7832 127.147 11.6841 126.465C11.6301 126.105 11.594 125.737 11.558 125.368V125.216C11.558 125 11.558 124.793 11.4949 124.587L10.6931 117.865C10.6931 117.542 10.6121 117.209 10.5761 116.877C10.513 116.248 10.4409 115.592 10.3418 114.954C10.2919 114.686 10.2227 114.421 10.1346 114.163C10.0483 113.915 9.98501 113.659 9.94546 113.399C9.80133 111.962 9.71121 110.479 9.63013 109.176V109.05C9.50401 107.055 9.39595 105.079 9.27884 102.886C9.20677 101.547 9.14369 100.19 9.08964 99.0043C8.96352 96.2097 8.84638 93.4062 8.72025 90.6027L8.61216 88.1406C8.54009 86.4783 8.45902 84.8159 8.39596 83.1535C8.39596 82.1651 8.33292 81.1857 8.3059 80.1973V80.1164C8.25184 78.463 8.20677 76.7468 8.10768 75.0664C8.03561 73.7725 7.91849 72.4516 7.8194 71.2924C7.70229 69.9626 7.5762 68.5967 7.51314 67.2309C7.46809 66.3324 7.51314 65.4338 7.51314 64.5352C7.51314 63.9062 7.56719 63.1963 7.51314 62.4955C7.51314 61.3722 7.45006 60.2311 7.387 59.1348H7.10774H7.387C7.2789 58.4699 7.2609 57.9936 7.23387 57.4994ZM98.6259 71.9664C99.3559 71.0997 100.282 70.419 101.328 69.9805L101.743 69.7559C102.473 69.3695 103.193 69.0011 103.887 68.6776C105.114 68.168 106.416 67.8644 107.743 67.779C107.905 67.8355 108.057 67.9174 108.193 68.0217C108.27 68.0817 108.351 68.1358 108.436 68.1834C108.715 68.3541 109.013 68.5608 109.337 68.8214C109.887 69.2257 109.833 69.72 109.508 70.5466C108.924 71.8742 107.859 72.9331 106.526 73.5119C105.007 74.2805 103.329 74.6865 101.626 74.698L101.166 74.6171C100.671 74.5273 100.049 74.4195 99.4276 74.2937C99.2673 74.2723 99.1188 74.1978 99.006 74.0821C98.8933 73.9664 98.8228 73.8162 98.806 73.6557C98.7662 73.4571 98.7028 73.2641 98.6169 73.0806C98.5468 72.9325 98.4983 72.7751 98.4727 72.6133C98.4529 72.3869 98.5066 72.1601 98.6259 71.9664Z" fill="black"/>
<path d="M72.537 80.3409C72.2098 79.4461 71.7677 78.5974 71.2218 77.816L71.1407 77.6991C70.2221 76.2695 69.2236 74.8925 68.1499 73.5747C67.192 72.4533 66.1101 71.4435 64.9248 70.5645C63.8514 69.7095 62.6301 69.0578 61.3213 68.6416C59.8351 68.1995 58.2678 68.0991 56.7371 68.3482C55.2064 68.5972 53.7523 69.189 52.4839 70.0793C52.4053 70.1281 52.33 70.1821 52.2587 70.241C52.3488 69.9625 52.4389 69.6839 52.538 69.4144V69.2706C52.8353 68.372 53.1776 67.3746 53.4388 66.3952C53.655 65.6314 53.8442 64.8496 54.0244 64.0948C54.2046 63.34 54.3937 62.5493 54.6099 61.7765C54.9613 60.5455 55.4027 59.2515 55.9793 57.706C56.1775 57.1669 56.4387 56.6457 56.6909 56.1245C56.808 55.8999 56.9161 55.6752 57.0423 55.4057V55.217L56.781 54.8036C56.7 54.6868 56.6459 54.588 56.5739 54.4981C56.5018 54.4083 56.4297 54.2825 56.3576 54.1746C56.1831 53.8121 55.8955 53.5157 55.5379 53.33C54.9501 53.1547 54.3238 53.1547 53.7361 53.33C53.2129 53.4591 52.6983 53.6212 52.1957 53.8152L52.0785 53.8601L51.5651 54.0399L50.6642 54.3364L49.0336 54.8845L47.0247 55.5944L46.8266 55.6573L43.5114 56.8254L41.7998 57.3735C41.1512 57.5712 40.4845 57.7779 39.8359 58.0025C38.5207 58.4608 37.2504 58.955 35.9712 59.4582C35.3136 59.7098 34.656 59.9884 34.0073 60.249L33.7011 60.3748L32.3048 60.9409C32.0151 61.0414 31.7721 61.2437 31.6212 61.51C31.4704 61.7762 31.4219 62.0882 31.4849 62.3875C31.5499 62.7123 31.6852 63.019 31.8813 63.2861V63.358C32.1952 63.7585 32.613 64.0656 33.0894 64.2462C33.5658 64.4267 34.0826 64.4738 34.5839 64.3824C35.3855 64.1231 36.1732 63.8232 36.9441 63.4838C39.5933 62.3349 42.2994 61.3212 45.0519 60.4466C46.5293 59.9884 48.0247 59.4762 49.3399 59.0179L51.439 58.3081C51.3128 58.7214 51.1777 59.1437 51.0426 59.566L50.9435 59.8446C50.7543 60.4377 50.5561 61.0487 50.3669 61.6417C50.1778 62.2348 50.0246 62.8099 49.8625 63.4389C49.7003 64.0679 49.5291 64.625 49.349 65.236C49.0967 66.0807 48.8174 66.9433 48.5472 67.779L47.7094 70.7442C47.2139 72.3077 46.7004 73.9252 46.223 75.5156C46.0601 76.0887 45.9308 76.6708 45.8356 77.2589L45.7365 77.825C45.7124 77.9544 45.7269 78.0881 45.7781 78.2095C45.8294 78.3308 45.9151 78.4346 46.0248 78.5079L46.4392 78.7505C46.8677 79.0309 47.3311 79.2544 47.8175 79.4154C48.0913 79.4843 48.3768 79.4943 48.6548 79.4447C48.9328 79.3952 49.1971 79.2872 49.43 79.1279C50.0878 78.5543 50.7049 77.9358 51.2768 77.2768L51.5831 76.9444C53.0282 75.3157 54.7515 73.9558 56.6729 72.9278C57.0993 72.6613 57.5769 72.4869 58.0749 72.4157C58.573 72.3445 59.0804 72.3781 59.5647 72.5144C61.0461 72.9865 62.3908 73.8097 63.4834 74.9136C64.9297 76.4822 66.1431 78.2493 67.0869 80.1612C67.8911 81.6567 68.4622 83.2656 68.7805 84.9326C69.0821 86.2686 69.0767 87.6554 68.7646 88.989C68.4526 90.3226 67.8421 91.5685 66.9788 92.6334C66.1237 94.1258 64.7867 95.2851 63.1861 95.9221L62.1591 96.3175C61.5952 96.5602 61.0177 96.7702 60.4295 96.9465C58.9161 97.3778 57.5107 96.7398 56.1504 96.1198C55.889 95.9605 55.585 95.8846 55.2791 95.9022C54.9732 95.9199 54.68 96.0303 54.4388 96.2186C54.1021 96.4796 53.7995 96.7814 53.5379 97.1172C53.4002 97.2717 53.3008 97.4562 53.2476 97.6559C53.1944 97.8557 53.1889 98.0651 53.2317 98.2674L53.3668 98.6448C53.4286 98.9995 53.5849 99.331 53.8195 99.6045C54.0542 99.8781 54.3583 100.084 54.7001 100.199C55.1816 100.364 55.6486 100.569 56.0964 100.81C56.5466 101.05 57.0132 101.257 57.4927 101.43C58.0713 101.639 58.6795 101.754 59.2944 101.772C59.7829 101.776 60.2672 101.681 60.7178 101.493L60.8799 101.43C60.9894 101.371 61.1083 101.332 61.2313 101.314C62.6437 101.27 64.0273 100.904 65.2761 100.244L65.7356 100.047C66.713 99.6898 67.6257 99.1769 68.4381 98.528C70.2596 96.8649 71.6294 94.7691 72.4199 92.4357C73.4971 89.7014 73.8327 86.7322 73.3929 83.8274C73.1976 82.6451 72.9115 81.4795 72.537 80.3409Z" fill="black"/>
</g>
<defs>
<clipPath id="clip0_990_11600">
<rect width="188" height="177" fill="white"/>
</clipPath>
</defs>
</svg>
