<svg width="175" height="182" viewBox="0 0 175 182" fill="none" xmlns="http://www.w3.org/2000/svg">
<g clip-path="url(#clip0_990_11605)">
<path d="M170.667 57.6813C170.518 57.5391 170.349 57.4203 170.164 57.3291L167.516 55.9729C164.692 54.511 161.771 52.9876 158.877 51.5257C158.135 51.1558 157.385 50.8564 156.582 50.5482L155.7 50.1959V50.1343C155.721 49.9882 155.753 49.8439 155.797 49.7028L157.703 44.3662L160.677 35.9914C160.968 35.1636 161.242 34.327 161.507 33.4904C161.683 32.9444 161.851 32.3984 162.036 31.8612C162.146 31.5935 162.175 31.3 162.122 31.0158C162.069 30.7316 161.935 30.4687 161.736 30.2585C161.06 29.3955 160.177 28.717 159.168 28.2859L156.9 27.4757L154.252 26.5246L149.513 24.8866L146.151 23.7066L145.269 23.416C144.549 23.2087 143.847 22.9467 143.168 22.6322C140.704 21.5128 138.162 20.5739 135.561 19.823L130.919 18.3964C128.475 17.6478 125.951 16.8729 123.471 16.0803C121.37 15.411 119.235 14.6801 117.178 13.9756L114.204 12.9541L110.674 11.7652C108.389 10.9991 106.103 10.2329 103.826 9.44916C102.388 8.95601 100.932 8.48047 99.4844 8.00493C95.9544 6.83369 92.292 5.62722 88.7796 4.18299C86.3174 3.17907 83.767 2.28083 81.296 1.41781L78.472 0.413884C77.9844 0.248743 77.482 0.130788 76.9717 0.0616375C76.5527 -0.0325121 76.1189 -0.0420581 75.6961 0.0335601C75.2732 0.109178 74.8698 0.268433 74.5096 0.501953C74.1795 0.769589 73.9069 1.10098 73.7083 1.47626C73.5096 1.85153 73.389 2.26297 73.3535 2.68591C73.2783 3.26986 73.2458 3.85851 73.2564 4.44718C73.3164 8.3258 74.2387 12.1427 75.9569 15.6224C77.465 18.755 79.4974 21.6081 81.9667 24.0588L83.8464 25.9346C83.7423 26.0814 83.6304 26.2225 83.5111 26.3573C82.0638 27.9072 80.6077 29.4571 79.1427 30.9894C78.7985 31.3593 78.4367 31.7203 78.0749 32.0814C77.4924 32.6626 76.8923 33.2702 76.3099 33.9043C74.2713 36.2115 72.2592 38.5364 70.2383 40.8613L67.5114 44.0051L66.5318 45.1059C65.3358 46.3803 64.2384 47.7433 63.2489 49.1832L63.0989 49.4122C62.6669 50.0148 62.3057 50.6648 62.0222 51.3496C61.4574 52.8819 61.5721 54.0619 62.3752 54.9426C63.2082 55.9097 64.3317 56.583 65.5787 56.8623L68.8792 57.5404L71.6238 58.1128C71.8444 58.1128 72.0562 58.2185 72.2857 58.2801H72.3475C71.85 59.3181 71.218 60.2863 70.4677 61.1598C70 61.7322 69.5058 62.2958 69.0204 62.8506C68.6939 63.2205 68.3674 63.5903 68.0497 63.969C67.5113 64.6031 66.973 65.2459 66.417 65.924L65.9405 66.4964L65.7375 66.0737C65.4904 65.5541 65.261 65.0786 65.0315 64.6207C64.3746 63.2591 63.3695 62.0944 62.1176 61.244C60.8657 60.3937 59.4113 59.8877 57.9009 59.7772C56.3533 59.6061 54.7876 59.7105 53.2766 60.0854C51.6664 60.361 50.1292 60.9602 48.7582 61.8467C48.5464 61.9964 48.3964 61.9612 48.0257 61.8467C45.8363 61.0204 43.4516 60.855 41.1687 61.3712H41.0981C40.8095 61.4516 40.5141 61.5046 40.2156 61.5297C37.5995 61.6275 35.0577 62.4243 32.8555 63.8369C31.5895 64.5985 30.4875 65.6033 29.6134 66.7929C28.7393 67.9826 28.1106 69.3336 27.7635 70.7675C27.2869 72.5816 26.881 74.4309 26.4574 76.2186C26.2897 76.9583 26.122 77.6892 25.9455 78.4202L25.3013 81.1677C24.71 83.6863 24.0923 86.3018 23.5363 88.8733C23.3686 89.6482 23.2362 90.432 23.1215 91.1981C22.9627 92.1492 22.8038 93.1355 22.5655 94.0778C22.1508 95.6893 21.683 97.3097 21.1624 98.8772C20.9153 99.6786 20.6682 100.48 20.4299 101.29C20.0122 102.682 19.6151 104.079 19.2385 105.482C19.0267 106.266 18.8238 107.049 18.612 107.833C18.2943 109.049 17.9677 110.308 17.6147 111.532C16.7852 114.385 15.8497 117.397 14.9231 120.47C13.8729 123.834 12.8139 127.128 11.7196 130.492C10.7753 133.416 9.80458 136.339 8.83383 139.298L8.69262 139.739C7.75717 142.548 6.83056 145.357 5.86863 148.157C5.57741 149.038 5.26853 149.839 4.98613 150.676C4.70373 151.513 4.28013 152.587 3.96243 153.556C3.50353 154.929 3.05933 156.306 2.62984 157.686L1.55319 161.032C1.35021 161.64 1.12961 162.247 0.908981 162.855C0.688356 163.463 0.432431 164.167 0.220631 164.836C0.144822 165.039 0.112709 165.255 0.126397 165.47C0.140084 165.686 0.199261 165.896 0.300053 166.087C0.527381 166.486 0.86418 166.811 1.27073 167.025C1.67728 167.238 2.1366 167.332 2.59453 167.293C3.01814 167.214 3.43293 167.091 3.83006 166.976L4.65078 166.747C4.93602 166.684 5.19683 166.54 5.40191 166.332C5.60698 166.124 5.74759 165.862 5.80685 165.576C6.62758 162.882 7.57185 160.002 8.58673 156.77C8.87795 155.889 9.18683 155.009 9.46923 154.128C9.75163 153.247 10.0782 152.411 10.3517 151.548C10.74 150.359 11.1107 149.17 11.4813 148.025C11.7373 147.145 11.9932 146.334 12.2668 145.498L12.5315 144.661C13.2463 142.416 13.9876 140.091 14.7466 137.819C15.0908 136.797 15.4526 135.776 15.8144 134.754C16.238 133.565 16.6969 132.324 17.0764 131.091C17.9589 128.502 18.7178 125.807 19.4503 123.376C19.6886 122.575 19.9004 121.765 20.1122 120.955C20.4652 119.598 20.8358 118.189 21.3212 116.86C22.3802 113.971 23.1833 110.959 23.9687 108.053C24.2864 106.838 24.613 105.623 24.9483 104.408C25.1425 103.738 25.3013 103.043 25.4513 102.373C25.5396 101.986 25.6278 101.598 25.7249 101.202C25.822 100.806 25.9014 100.515 25.9897 100.172C26.1662 99.5377 26.3427 98.8772 26.4662 98.2079C26.6868 96.9486 26.8898 95.6982 27.1016 94.4389C27.3575 92.8273 27.6311 91.1541 27.94 89.5161C28.2488 87.8782 28.593 86.4427 28.946 84.9456C29.1137 84.2588 29.2726 83.5807 29.4226 82.9026L29.502 82.5679C29.555 82.3302 29.6167 82.0924 29.6609 81.8546C29.7932 81.0621 29.9168 80.2783 30.0403 79.4945C30.3746 76.6539 31.0471 73.8631 32.0436 71.1814C32.0686 71.1226 32.0835 71.0601 32.0877 70.9965C32.2113 69.6667 33.085 68.7949 34.0116 67.879L34.0822 67.8086C34.2146 67.6765 34.3734 67.5532 34.5235 67.4299C34.7816 67.2518 35.0133 67.0384 35.2118 66.7958C35.6419 66.2988 36.2101 65.9403 36.8444 65.7655L37.4269 65.5894C37.7538 65.5037 38.075 65.3978 38.3888 65.2724C39.3485 64.8552 40.3872 64.6502 41.4337 64.6715C42.4802 64.6928 43.5098 64.9398 44.4516 65.3956C45.422 65.8677 46.3293 66.4594 47.152 67.1569C49.1188 68.6869 50.7625 70.5905 51.9881 72.7577C52.5948 73.9008 53.1369 75.0768 53.612 76.2802C53.7973 76.747 53.9826 77.1609 54.1767 77.654C54.2095 77.7476 54.2273 77.8456 54.2297 77.9446L53.6031 78.0679C52.9985 78.1539 52.4061 78.3106 51.8381 78.5347C50.2406 79.1833 48.8477 80.2493 47.8057 81.6207C46.7637 82.9921 46.1112 84.6182 45.9165 86.3282C45.6174 88.431 45.9458 90.5751 46.8608 92.4926C47.9904 94.9408 49.5083 96.2441 51.6175 96.5876C51.7475 96.6131 51.8746 96.6515 51.997 96.7021C51.7562 96.9838 51.4506 97.2031 51.1063 97.3412C50.762 97.4792 50.3893 97.5319 50.0202 97.4946C48.5287 97.3978 47.7257 96.9663 47.2668 95.9976C47.0638 95.5749 46.852 95.1169 46.6402 94.7471C46.1649 93.8559 45.7406 92.9386 45.3694 91.9995C44.7516 90.3087 44.1692 88.565 43.6044 86.883C43.1102 85.4124 42.6072 83.9329 42.0777 82.4799C41.5482 81.0268 40.9216 79.6619 40.2597 78.2617C40.1976 78.0704 40.0961 77.8941 39.9617 77.7442C39.8274 77.5944 39.6632 77.4741 39.4796 77.3912C39.296 77.3083 39.0971 77.2646 38.8956 77.2628C38.694 77.2611 38.4944 77.3013 38.3094 77.381C38.0093 77.4691 37.7093 77.5483 37.4269 77.61C36.8003 77.7333 36.3767 77.8742 36.2002 78.2176C36.0237 78.5611 36.1473 79.0014 36.4297 79.6354L36.6503 80.1286C37.118 81.1765 37.5946 82.2509 37.974 83.3429C38.5653 85.0161 39.1301 86.6981 39.6949 88.3713C40.3832 90.4144 41.0981 92.5279 41.8306 94.5886C42.3753 96.275 43.4144 97.7597 44.8134 98.8508C46.0092 99.7858 47.4513 100.354 48.9646 100.487C50.4779 100.62 51.9973 100.312 53.3384 99.5993C53.7817 99.3763 54.204 99.114 54.6004 98.8156L54.9445 98.569C54.9445 98.6571 55.0328 98.7363 55.0592 98.8068C55.6714 100.289 56.5711 101.636 57.7068 102.77C58.7616 103.854 59.9757 104.771 61.3073 105.491C62.8736 106.505 64.5566 107.327 66.32 107.939C66.9289 108.124 67.5114 108.353 68.1379 108.599L68.3762 108.696L68.182 108.776C67.6581 108.98 67.1506 109.224 66.6641 109.506C64.9286 110.684 63.3432 112.068 61.9427 113.628L61.3073 114.271C58.9051 116.735 56.9626 119.606 55.5711 122.751C55.4917 122.927 55.4211 123.103 55.3505 123.288C55.2425 123.594 55.1066 123.888 54.9445 124.169C54.156 125.589 53.5059 127.081 53.003 128.625L52.9589 128.766C52.5794 129.805 52.2176 130.844 51.8558 131.883C51.4939 132.922 51.0439 134.208 50.6291 135.362C50.329 136.19 50.0114 137.017 49.6936 137.845C49.2259 139.043 48.7405 140.293 48.3258 141.535C47.6374 143.587 47.002 145.683 46.3843 147.699L45.7577 149.742C45.6341 150.148 45.5282 150.553 45.4135 150.958C45.2988 151.363 45.1488 151.918 44.9987 152.393C44.4692 154.058 43.9221 155.713 43.3837 157.369C42.6866 159.517 41.9894 161.657 41.3099 163.806C40.9128 165.039 40.5333 166.29 40.1538 167.54C39.7743 168.791 39.4213 169.918 39.0507 171.107L38.9624 171.353C38.7418 172.005 38.4594 172.824 39.386 173.475C39.4232 173.537 39.4472 173.606 39.4566 173.678C39.4954 173.891 39.6023 174.086 39.7614 174.234C39.9205 174.382 40.1231 174.474 40.3391 174.497C40.5321 174.554 40.7208 174.625 40.9039 174.708L41.3011 174.867C41.5074 174.961 41.7316 175.01 41.9585 175.01C42.1854 175.01 42.4097 174.961 42.616 174.867C42.809 174.764 42.9781 174.621 43.1119 174.448C43.2457 174.275 43.3414 174.075 43.3926 173.863C44.0015 171.688 44.6104 169.521 45.2282 167.346L45.8371 165.198C45.8812 165.039 45.9165 164.881 45.9607 164.731C46.0295 164.414 46.1209 164.102 46.2342 163.797C47.1704 161.514 47.9172 159.158 48.467 156.752L48.6346 156.021C48.8376 155.141 49.0406 154.26 49.3142 153.379C50.1261 150.87 50.9733 148.333 51.8028 145.877L52.6853 143.235C53.5678 140.742 54.3621 138.25 55.2269 135.767C55.5182 134.93 55.827 134.111 56.1094 133.292C56.6301 131.91 57.1684 130.483 57.592 129.048C58.1785 126.992 58.9771 125.003 59.9748 123.112C61.013 120.966 62.3862 118.998 64.0431 117.282C65.8081 115.521 67.7761 113.813 70.353 113.17C72.297 112.665 74.2722 112.288 76.2658 112.043C78.2249 111.84 80.2282 111.752 82.1697 111.673L84.3318 111.576C84.7025 111.576 85.0643 111.576 85.435 111.576C85.8056 111.576 86.3175 111.576 86.7852 111.576C88.6031 111.444 90.4034 111.285 91.7713 111.153C92.2218 111.123 92.6651 111.025 93.0862 110.863C93.4511 110.669 93.7559 110.38 93.9675 110.026C94.1792 109.672 94.2895 109.267 94.2864 108.855C94.1763 108.477 93.9519 108.142 93.6439 107.896C93.3359 107.65 92.9593 107.505 92.5656 107.481C91.4496 107.295 90.3104 107.295 89.1944 107.481C88.4409 107.601 87.6803 107.672 86.9175 107.692C86.3263 107.692 85.7262 107.692 85.1525 107.692H83.2375C81.7726 107.692 80.3076 107.692 78.825 107.692C78.4102 107.692 78.3573 107.613 78.3485 107.613C78.3396 107.613 78.3484 107.551 78.4102 107.217C79.2397 104.546 81.0874 102.307 83.5552 100.982C84.489 100.428 85.5139 100.043 86.5822 99.8459C87.0323 99.7579 87.4647 99.6786 87.9324 99.5641C88.3303 99.4825 88.7353 99.4412 89.1414 99.4408C92.3824 99.3268 95.6274 99.4563 98.849 99.8283C101.657 100.124 104.431 100.678 107.136 101.484C107.924 101.746 108.643 102.183 109.238 102.763C109.833 103.343 110.288 104.05 110.569 104.83C111.022 105.983 111.194 107.226 111.072 108.458C110.943 110.487 110.511 112.484 109.792 114.385C109.062 116.411 107.669 118.133 105.838 119.273C104.044 120.438 102.057 121.279 99.9698 121.756C98.3952 122.135 96.8015 122.429 95.1954 122.637C94.1099 122.778 92.9892 122.866 91.9125 122.954C91.1006 123.024 90.2887 123.086 89.4768 123.174H89.1238C88.5237 123.227 88.1001 123.271 87.8442 123.605C87.5882 123.94 87.5971 124.407 87.8001 125.446C87.81 125.739 87.886 126.025 88.0225 126.285C88.1589 126.544 88.3523 126.769 88.5881 126.944C88.8239 127.118 89.0962 127.237 89.3845 127.292C89.6728 127.347 89.9699 127.336 90.2534 127.26L91.436 127.145C92.142 127.04 92.8656 126.925 93.5804 126.89C97.2289 126.756 100.837 126.079 104.285 124.882C106.145 124.371 107.875 123.471 109.36 122.24C111.029 120.565 112.462 118.672 113.622 116.613C114.049 115.962 114.365 115.245 114.557 114.491C115.193 111.602 115.722 108.511 114.752 105.429C114.678 105.172 114.622 104.91 114.584 104.645C114.588 104.598 114.588 104.551 114.584 104.504C115.025 104.504 115.466 104.504 115.89 104.504C116.93 104.454 117.973 104.525 118.996 104.716C119.42 104.813 119.879 104.874 120.276 104.936C120.791 104.997 121.301 105.094 121.803 105.227H121.962C122.989 105.463 123.982 105.826 124.918 106.31C125.534 106.666 126.07 107.146 126.493 107.719C126.915 108.292 127.214 108.945 127.371 109.639C127.923 111.913 127.837 114.295 127.124 116.525C126.456 119.095 124.868 121.332 122.659 122.813C121.776 123.376 120.894 123.905 120.011 124.416L119.394 124.777C116.196 126.726 112.867 128.454 109.43 129.946C109.263 130.001 109.108 130.091 108.978 130.209C108.847 130.327 108.743 130.472 108.671 130.633C108.626 130.79 108.614 130.956 108.637 131.118C108.66 131.28 108.717 131.436 108.804 131.575C109.057 132.05 109.352 132.5 109.686 132.922C110.569 134.041 111.01 134.12 112.245 133.398C112.51 133.248 112.766 133.081 113.022 132.922C113.278 132.764 113.763 132.447 114.143 132.244C114.946 131.83 115.758 131.425 116.57 131.02C117.381 130.615 118.185 130.219 118.988 129.796C121.959 128.243 124.757 126.38 127.336 124.239C130.13 121.988 131.917 118.723 132.305 115.16C132.393 114.412 132.446 113.663 132.508 112.932C132.508 112.474 132.569 112.051 132.613 111.558C132.658 111.065 132.684 110.81 132.711 110.431C132.799 109.383 132.896 108.3 133.055 107.243C133.187 106.363 133.258 105.482 133.328 104.601C133.398 103.115 133.619 101.639 133.99 100.198C134.202 99.4849 134.396 98.7627 134.581 98.0406C134.908 96.843 135.234 95.6013 135.658 94.4036C136.509 92.0259 137.803 89.8299 139.47 87.931C139.59 87.7954 139.717 87.666 139.85 87.5435L139.771 87.7108L139.612 88.0279C138.332 90.7578 138.138 93.8488 139.02 97.4594C139.497 99.016 140.442 100.389 141.727 101.391C143.012 102.393 144.575 102.976 146.204 103.06C146.566 103.06 146.919 103.06 147.298 103.113H147.563V103.236C147.563 103.465 147.563 103.668 147.563 103.879C147.563 104.399 147.519 104.927 147.484 105.456C147.431 106.503 147.378 107.595 147.378 108.67C147.41 111.806 147.114 114.938 146.495 118.013C146.166 119.938 145.478 121.784 144.465 123.456C143.216 125.242 141.772 126.884 140.159 128.352C137.516 130.899 134.618 133.169 131.51 135.124C128.36 137.147 125.075 138.953 121.679 140.531L121.538 140.593C117.849 142.266 114.046 143.992 110.86 146.713C109.81 147.452 109.062 148.543 108.751 149.787C108.489 151.296 108.31 152.819 108.212 154.348C108.158 156.034 108.196 157.721 108.327 159.403C108.327 159.993 108.398 160.574 108.424 161.164C108.548 163.806 108.592 166.527 108.636 169.143C108.636 170.904 108.698 172.745 108.759 174.541C108.759 175.783 108.918 177.033 109.033 178.24L109.165 179.631C109.184 180.048 109.325 180.449 109.569 180.787C109.814 181.125 110.152 181.384 110.542 181.533C111.123 181.747 111.743 181.838 112.361 181.8C112.98 181.762 113.583 181.596 114.134 181.313C114.264 181.271 114.383 181.201 114.484 181.108C114.584 181.015 114.664 180.902 114.716 180.776C114.77 180.634 114.793 180.482 114.784 180.33C114.775 180.178 114.734 180.03 114.663 179.895C114.573 179.668 114.522 179.427 114.513 179.182C114.513 178.891 114.46 178.592 114.443 178.301C114.425 178.011 114.39 177.632 114.354 177.306C114.335 177.111 114.303 176.916 114.257 176.725C114.209 176.507 114.177 176.287 114.16 176.065L114.09 174.427C113.993 172.287 113.887 170.023 113.852 167.892C113.79 164.326 113.763 160.706 113.737 157.201V154.392C113.717 153.474 113.93 152.565 114.354 151.75C115.17 149.914 116.573 148.4 118.343 147.444C118.499 147.369 118.65 147.284 118.793 147.189C118.888 147.119 118.989 147.057 119.094 147.004L120.506 146.22C121.591 145.612 122.712 144.987 123.841 144.459L124.777 144.027C127.677 142.787 130.45 141.268 133.055 139.492C133.45 139.222 133.866 138.984 134.299 138.779L134.626 138.62C134.634 138.746 134.634 138.873 134.626 138.999L134.679 141.015C134.679 142.416 134.74 143.851 134.802 145.269C134.846 146.15 134.926 147.03 134.996 147.911C135.049 148.474 135.093 149.038 135.137 149.61C135.208 150.65 135.27 151.689 135.34 152.728C135.455 154.56 135.57 156.453 135.729 158.311C135.817 159.341 135.941 160.389 136.073 161.402C136.205 162.415 136.293 163.216 136.382 164.123C136.841 169.116 137.264 174.03 137.644 178.724C137.714 179.819 138.073 180.877 138.685 181.789L138.764 181.903H140.018C140.971 181.903 141.933 181.965 142.886 181.982C143.061 181.992 143.236 181.966 143.4 181.905C143.564 181.844 143.714 181.749 143.84 181.628C143.966 181.506 144.066 181.36 144.132 181.198C144.199 181.036 144.231 180.863 144.227 180.688C144.253 180.354 144.253 180.018 144.227 179.684C144.13 178.75 144.042 177.808 143.962 176.875C143.751 174.673 143.548 172.392 143.212 170.164C142.727 166.853 142.33 163.48 142.1 160.152C141.924 157.853 141.8 155.511 141.677 153.239C141.677 152.358 141.589 151.477 141.536 150.597L141.403 148.413C141.288 146.519 141.174 144.564 141.112 142.645C141.059 140.883 141.05 139.052 141.041 137.299C141.041 136.286 141.041 135.274 141.041 134.252C141.015 133.995 141.053 133.734 141.151 133.495C141.25 133.255 141.406 133.043 141.606 132.878C143.365 131.306 144.959 129.559 146.363 127.665C146.469 127.524 146.566 127.383 146.663 127.234C146.76 127.084 146.778 127.049 146.848 126.961L147.192 126.476L147.572 125.948C147.704 125.754 147.854 125.569 147.995 125.375C148.357 124.92 148.679 124.433 148.957 123.922C149.207 123.428 149.428 122.919 149.619 122.399C149.787 121.967 149.963 121.518 150.175 121.096C151.878 117.617 152.073 113.848 152.037 110.616C152.037 108.564 152.037 106.345 152.099 103.826C152.099 102.523 152.205 101.184 152.276 99.9076C152.276 99.3792 152.337 98.8596 152.364 98.3312V98.2608C152.364 98.0054 152.364 97.7588 152.426 97.5123C152.809 94.9686 152.939 92.3935 152.814 89.8243C152.762 88.1178 152.098 86.4865 150.943 85.2274C150.145 84.2136 149.083 83.4396 147.872 82.9906C147.717 82.947 147.576 82.8618 147.466 82.7441C147.175 82.4006 147.175 82.2861 147.175 82.2685C147.298 81.4583 147.457 80.6658 147.625 79.8204L147.748 79.1863H147.872C148.093 79.1863 148.269 79.1863 148.454 79.2392L149.813 79.4417C150.749 79.5826 151.72 79.7323 152.682 79.8116C154.447 79.9613 156.212 79.9965 157.703 80.0141H157.888C160.225 80.1214 162.567 79.9915 164.878 79.6266C167.134 79.2175 169.238 78.2073 170.967 76.7029C171.73 75.9847 172.4 75.1741 172.961 74.29C173.182 73.973 173.403 73.656 173.632 73.3477C173.785 73.151 173.899 72.9268 173.967 72.6873L174.232 71.7274C174.848 69.9369 175.094 68.0408 174.956 66.153C174.523 62.9276 173.012 59.9424 170.667 57.6813ZM55.677 83.5278C55.5282 84.6306 55.271 85.716 54.9092 86.7685C54.1228 88.884 53.7339 91.126 53.762 93.3821C52.7206 93.5494 52.1029 92.8713 51.4587 92.1492L51.3527 92.0347C50.7929 91.3046 50.4203 90.4491 50.2673 89.5425L50.1878 89.2431C49.8688 88.0517 49.8688 86.7976 50.1878 85.6061C50.3069 85.124 50.5068 84.6655 50.7791 84.2499C51.6583 82.9743 52.8329 81.929 54.2032 81.203H54.2915C54.4356 81.2086 54.577 81.2446 54.7063 81.3086C55.1023 81.5071 55.4163 81.8378 55.5936 82.2431C55.7709 82.6485 55.8004 83.103 55.677 83.5278ZM62.887 70.5737C61.6332 72.2042 60.5785 73.978 59.7453 75.8575C59.4629 76.4387 59.1805 77.0112 58.8628 77.6188C58.8187 77.7069 58.7569 77.7949 58.6952 77.9006C58.5628 77.5395 58.4392 77.1873 58.3157 76.835C57.9362 75.7695 57.5832 74.7479 57.2743 73.7264C56.3883 70.7244 54.8483 67.9548 52.7647 65.6158L51.7234 64.3653L51.4675 64.0747C53.4619 63.4495 55.3328 62.8506 57.3008 63.7136C58.1033 64.0694 58.8868 64.4662 59.6483 64.9025C61.5633 65.9945 62.3752 67.8966 63.0459 69.7636C63.1008 69.8995 63.115 70.0483 63.0868 70.1922C63.0586 70.336 62.9892 70.4685 62.887 70.5737ZM95.9544 77.3106C97.3928 77.3106 98.8137 77.1521 100.323 77.0112L102.37 76.8174H102.661L102.105 73.0924H101.858H101.355C100.962 73.0977 100.57 73.1331 100.182 73.198C98.7864 73.5098 97.3566 73.6401 95.9279 73.5855C94.5335 73.5151 93.1657 73.5239 91.6389 73.5855C88.0116 73.5819 84.4272 72.8011 81.1283 71.2959C78.982 70.3079 76.9165 69.1536 74.9508 67.8438L74.3419 67.4651L74.0066 67.2538C73.698 67.0827 73.403 66.8884 73.1241 66.6726C72.7357 66.3643 72.3651 66.0121 71.968 65.651L71.5885 65.2988L71.9591 64.7968C72.3563 64.2684 72.7269 63.7665 73.0799 63.2381L73.3094 62.9035C74.086 61.7322 74.889 60.5346 75.595 59.2929C75.873 58.7154 76.0406 58.0912 76.0892 57.4524V57.3731C76.0858 56.8971 75.9272 56.4352 75.6374 56.0571C75.3477 55.679 74.9425 55.4053 74.4831 55.2772C73.9183 55.1363 73.3447 55.0306 72.7887 54.9338L71.9591 54.784L70.9002 54.5815C70.0177 54.4054 69.0293 54.2204 68.1115 54.0091L67.7585 53.9298C67.0219 53.8771 66.3364 53.5351 65.8522 52.9787C66.5249 51.6214 67.44 50.3978 68.5527 49.3682L69.0469 48.8486C70.5383 47.2635 72.0739 45.5726 73.6094 43.8114C74.9626 42.2732 76.304 40.7262 77.6336 39.1705C78.7044 37.9317 79.7752 36.6929 80.8459 35.4542C82.2403 33.8514 83.6258 32.3103 84.7907 31.051C85.179 30.6283 85.5761 30.2144 85.9733 29.8005C86.3704 29.3866 86.794 28.9199 87.1911 28.4972C87.4029 28.2506 87.553 28.2242 87.9148 28.3651C90.3233 29.3815 92.8443 30.1087 95.4249 30.5315C97.1016 30.7604 98.8048 30.8573 100.543 30.9366C102.48 30.974 104.415 30.8028 106.315 30.4258C107.153 30.2849 107.197 30.2849 107.427 31.1215C107.841 32.2523 108.386 33.331 109.051 34.3358C109.21 34.6 109.368 34.8554 109.518 35.1196C110.335 36.4134 111.275 37.6255 112.325 38.7389L113.04 39.5579C115.208 42.1221 117.703 44.3928 120.461 46.3124C122.347 47.5912 124.3 48.7671 126.312 49.8349C127.321 50.3296 128.393 50.6851 129.498 50.8917C132.554 51.6451 135.688 52.0324 138.835 52.0453C142.474 52.0528 146.108 51.7908 149.708 51.2615H150.061L149.919 51.6842C149.734 52.2478 149.558 52.7762 149.372 53.2958C149.107 54.0179 148.834 54.74 148.551 55.4533C148.013 56.8711 147.457 58.3242 146.989 59.7948C146.354 61.7939 145.78 63.8545 145.224 65.8448C145.004 66.6549 144.774 67.4651 144.545 68.2665L144.068 69.9573C143.539 71.8066 143.009 73.6648 142.506 75.5229C142.003 77.381 141.474 79.3624 141.059 81.2998C140.856 82.2597 140.609 82.7264 139.779 82.8321C139.492 82.8964 139.223 83.026 138.994 83.2108L138.826 83.3165L138.359 83.6511C138.178 83.7912 137.989 83.9206 137.794 84.0386C135.749 85.2405 134.11 87.0254 133.09 89.1639C132.005 91.3374 131.182 93.6312 130.637 95.9976C130.27 97.6936 130.014 99.4114 129.869 101.14C129.789 101.854 129.719 102.567 129.622 103.272C129.569 103.729 129.481 104.152 129.392 104.689L129.339 105.015C129.317 104.997 129.296 104.976 129.278 104.954C129.048 104.688 128.788 104.451 128.501 104.249L127.336 103.589C125.403 102.47 123.4 101.308 121.017 101.07C119.791 100.956 118.493 100.823 117.214 100.656C115.608 100.454 113.896 100.216 111.972 99.9252C111.844 99.8991 111.723 99.8449 111.619 99.7667L111.398 99.6434C110.939 99.4144 110.516 99.1766 110.048 98.9389C109.034 98.361 107.974 97.8662 106.88 97.4594C105.407 96.9789 103.903 96.5994 102.379 96.3234L101.417 96.1209C98.96 95.6779 96.4733 95.4189 93.9776 95.3459H93.4128C91.1761 95.1554 88.9258 95.1938 86.6969 95.4604C83.2291 95.9177 80.0204 97.5388 77.5983 100.057C76.7312 101.041 76.0522 102.175 75.595 103.404C75.2509 104.187 74.9685 105.015 74.7125 105.817C74.6243 106.09 74.5272 106.354 74.4302 106.627L73.4771 106.23C72.5945 105.861 71.7121 105.517 70.8737 105.121C68.0409 103.818 65.7199 102.717 63.5842 101.669C63.0218 101.36 62.5075 100.972 62.0575 100.515C60.489 99.0842 59.334 97.2595 58.7128 95.2314C58.2489 93.524 58.1586 91.737 58.4481 89.9917C58.7773 87.8821 59.398 85.8283 60.2925 83.8889C62.6194 78.5876 65.4754 73.5337 68.8174 68.8037C68.8595 68.7466 68.9067 68.6935 68.9586 68.6452C69.1175 68.742 69.2675 68.8477 69.4175 68.9534C72.785 71.5419 76.4903 73.6602 80.4312 75.2499C83.0099 76.2377 85.7233 76.8314 88.4796 77.0112C90.7035 77.2225 93.3333 77.3546 95.9544 77.3106ZM152.311 60.5786L153.193 60.8956C153.661 61.0806 154.129 61.2567 154.605 61.424C155.725 61.8107 156.819 62.2696 157.879 62.7978C159.38 63.5991 160.924 64.4181 161.674 66.0825C161.893 66.4444 161.984 66.8696 161.93 67.289C161.842 67.562 161.568 67.791 161.048 68.0199C160.216 68.4365 159.322 68.7161 158.4 68.8477C155.812 69.114 153.2 69.0578 150.625 68.6804C150.455 68.6453 150.286 68.5982 150.122 68.5395H150.025C150.585 65.8403 151.283 63.1714 152.117 60.5434L152.311 60.5786ZM157.438 32.3368C157.341 32.6009 157.262 32.8739 157.182 33.1469C157.103 33.4199 156.997 33.7546 156.882 34.0276L154.976 38.7125C154.388 40.1685 153.799 41.6362 153.211 43.1157C152.893 43.8994 152.479 44.9474 152.134 46.0218C152.087 46.2249 151.975 46.4077 151.817 46.5438C151.658 46.6799 151.46 46.7623 151.252 46.7791L149.99 46.9288C146.698 47.4189 143.372 47.6369 140.044 47.5805L138.279 47.5188C136.044 47.5357 133.814 47.2964 131.634 46.8055C130.14 46.4307 128.695 45.884 127.327 45.1764C124.833 43.9117 122.469 42.4075 120.267 40.6851C117.051 38.0953 114.274 35.0059 112.042 31.5354C111.228 30.2911 110.717 28.8735 110.551 27.3964C110.445 26.4365 110.313 25.8993 109.916 25.6352C109.789 25.5643 109.646 25.5279 109.501 25.5295C109.038 25.5803 108.591 25.724 108.186 25.9522C105.898 26.9254 103.414 27.3535 100.932 27.2027C96.9407 27.1657 92.9845 26.4571 89.2297 25.1068C87.5091 24.4378 85.979 23.3584 84.7731 21.9629C83.1794 20.1833 81.7053 18.3006 80.3606 16.3269C78.9819 14.2557 78.1445 11.8731 77.9249 9.39632C77.8543 8.72704 77.7572 8.06657 77.6689 7.39729C77.5924 6.86891 77.5219 6.34053 77.4571 5.81216C77.4571 5.52155 77.4042 5.22213 77.3865 4.93153C77.3865 4.85227 77.3865 4.77301 77.3865 4.69375C77.9458 4.73323 78.4917 4.88289 78.9927 5.13407L79.1957 5.22214C83.7059 7.16896 88.3228 8.85954 93.0244 10.2858C93.8448 10.5385 94.6519 10.8324 95.4425 11.1664C96.0779 11.4218 96.7398 11.686 97.4017 11.9061L99.9874 12.7868C103.244 13.8787 106.615 15.0147 109.968 16.0011C114.116 17.2251 118.176 18.5725 122.994 20.2193L127.618 21.8044C129.913 22.6058 132.278 23.4336 134.617 24.2085C136.011 24.6753 137.441 25.0892 138.835 25.4943C139.947 25.8113 141.059 26.1371 142.162 26.4806C143.265 26.824 144.633 27.3084 145.833 27.7222L148.093 28.506L153.573 30.3289L156.476 31.2976C156.706 31.3769 156.926 31.4561 157.147 31.553C157.491 31.7379 157.624 31.9493 157.438 32.328V32.3368ZM148.613 74.4573C148.781 73.7176 148.949 72.9691 149.143 72.2205C149.143 72.1237 149.143 72.0796 149.584 72.1325H149.655L150.537 72.2469C151.217 72.3438 151.923 72.4407 152.629 72.4759C154.482 72.564 156.397 72.6608 158.285 72.5992C159.48 72.5916 160.66 72.3382 161.752 71.8548C162.843 71.3714 163.823 70.6685 164.631 69.79C165.061 69.3287 165.393 68.7847 165.605 68.1911C165.818 67.5975 165.906 66.9669 165.866 66.3379C165.819 65.6901 165.638 65.0591 165.334 64.4847C165.03 63.9103 164.61 63.4049 164.101 63.0003C163.863 62.8066 163.633 62.5952 163.395 62.3839C162.951 61.9568 162.466 61.5735 161.948 61.2391C160.545 60.3584 159.088 59.6715 157.712 58.9935C156.653 58.4827 155.594 58.0071 154.482 57.5052L153.202 56.9328L154.146 54.0883C155.007 54.2234 155.839 54.5001 156.609 54.9073C160.454 56.6917 164.121 58.8354 167.561 61.3095C168.466 62.0883 169.135 63.104 169.493 64.242C170.011 65.6776 170.308 67.1827 170.376 68.7068C170.376 69.0591 170.446 69.4201 170.49 69.7724C170.488 70.2143 170.388 70.6502 170.197 71.049C170.007 71.4478 169.73 71.7997 169.387 72.0796C167.915 73.8457 165.809 74.9676 163.519 75.2059C162.168 75.3204 160.801 75.4701 159.477 75.611L158.956 75.6726C155.473 75.9338 151.971 75.7771 148.525 75.2059L148.401 75.153L148.613 74.4573ZM142.506 91.2774C142.705 90.3184 143.174 89.4357 143.857 88.7324C144.391 88.1826 144.963 87.6706 145.569 87.2001C145.854 86.9581 146.21 86.8131 146.583 86.7862C146.679 86.7872 146.774 86.8021 146.866 86.8302C147.087 86.9272 147.283 87.0752 147.436 87.2619C147.589 87.4486 147.696 87.6688 147.748 87.9046C148.162 88.9655 148.372 90.0948 148.366 91.2334C148.296 93.1267 148.207 95.0113 148.119 96.9222L148.013 99.1326L147.51 99.2647C147.06 99.3792 146.628 99.4761 146.275 99.5465C146.048 99.5606 145.82 99.5236 145.609 99.4383C145.399 99.3529 145.21 99.2214 145.057 99.0534C144.112 98.1519 143.388 97.0462 142.939 95.8214C142.935 95.7775 142.935 95.7333 142.939 95.6893C142.916 95.5843 142.877 95.4833 142.824 95.3899C142.489 94.7624 142.286 94.0732 142.226 93.3646C142.167 92.656 142.253 91.9428 142.48 91.2686L142.506 91.2774Z" fill="black"/>
<path d="M104.559 63.1941L105.353 64.6648L108.557 63.9162V63.7313C108.575 63.6304 108.598 63.5304 108.627 63.4319C108.71 63.1954 108.71 62.9375 108.627 62.701C108.539 62.5072 108.451 62.3047 108.362 62.0933C108.045 61.2647 107.627 60.478 107.118 59.7509C105.757 58.1362 104.134 56.7609 102.317 55.6823L101.585 55.198C99.6098 53.8635 97.2373 53.2421 94.8601 53.4367C94.1043 53.5031 93.3566 53.6417 92.6273 53.8506L91.7978 54.0444C89.8969 54.4418 88.0611 55.1028 86.3439 56.0082C85.9151 56.2482 85.5024 56.5159 85.1084 56.8096L84.5083 57.2235L84.2701 57.382L84.8613 58.1921C85.1349 58.562 85.382 58.8966 85.6114 59.2489C86.1586 60.0679 86.3704 60.2 87.3059 59.7949C87.5883 59.6716 87.8706 59.5307 88.1442 59.3898C88.4178 59.2489 88.6649 59.1256 88.9297 59.0111C90.5097 58.3904 92.1561 57.953 93.8364 57.7078C94.3835 57.6021 94.9307 57.5052 95.469 57.3908C96.2467 57.2208 97.0602 57.3598 97.737 57.7782C98.0459 57.972 98.3724 58.1569 98.6901 58.3418C99.4434 58.7642 100.174 59.2257 100.879 59.7244L101.17 59.9358C102.53 60.7545 103.688 61.8681 104.559 63.1941Z" fill="black"/>
</g>
<defs>
<clipPath id="clip0_990_11605">
<rect width="175" height="182" fill="white"/>
</clipPath>
</defs>
</svg>
