<svg width="216" height="165" viewBox="0 0 216 165" fill="none" xmlns="http://www.w3.org/2000/svg">
<g clip-path="url(#clip0_990_11597)">
<path d="M81.7776 124.369L81.3665 124.717C80.7075 125.369 79.9187 125.874 79.0516 126.201C78.8605 126.285 78.6469 126.304 78.4439 126.254C77.8809 125.968 77.3357 125.638 76.7547 125.289L76.3972 125.075L78.9623 123.189L81.7776 124.369ZM65.6902 27.3615L64.6892 27.9513L63.4737 28.6662L62.0527 29.5597L61.7756 29.7295V25.2616H65.2969C65.6282 25.5751 65.8453 25.9902 65.9136 26.4411C65.9136 26.602 66.003 26.7539 66.0566 26.9147C66.1103 27.0756 66.1371 27.1381 65.717 27.3615H65.6902ZM107.634 51.3095C107.753 51.3686 107.855 51.4579 107.929 51.5687C107.929 53.2933 107.857 55.0536 107.803 56.7514V57.4306L104.684 56.9927L104.023 51.2649C105.235 51.1907 106.451 51.2056 107.66 51.3095H107.634ZM107.231 47.7352H106.284H105.31H104.121C103.326 47.7352 103.326 47.7352 103.183 47.0025C102.924 45.671 102.673 44.3217 102.414 42.9635L102.191 41.8376C103.098 41.8606 103.999 41.9987 104.872 42.2486L105.64 42.4273C105.781 42.486 105.896 42.5941 105.962 42.7311C106.622 44.3497 107.099 46.0372 107.383 47.762L107.231 47.7352ZM103.603 70.745C103.348 71.3171 102.99 71.8379 102.548 72.2819L102.334 72.5321C101.61 73.3721 100.868 74.1942 100.126 75.0163L98.7587 76.5354C97.683 77.6877 96.431 78.6619 95.0497 79.4216C97.5605 76.7395 99.7666 73.7875 101.628 70.6199L103.603 70.745ZM69.1758 124.646L68.2821 125.03C68.0567 125.107 67.8224 125.155 67.5849 125.173H67.3615L67.299 125.003C67.2185 124.762 67.1381 124.548 67.0666 124.324C65.9598 120.691 63.945 117.401 61.2125 114.763C60.7031 114.262 60.2025 113.744 59.711 113.226C59.2194 112.708 58.6654 112.136 58.1291 111.617C56.3991 109.913 54.4659 108.427 52.3734 107.194C49.946 105.677 47.3519 104.445 44.6425 103.522C43.7636 103.256 42.8678 103.05 41.9612 102.905C40.9424 102.753 40.6832 102.619 40.5044 101.672C40.0222 99.5234 39.9045 97.3093 40.156 95.1219C40.2185 94.7376 40.2631 94.3534 40.2989 93.9692C40.3665 93.2225 40.489 92.4818 40.6654 91.7531C41.548 88.1795 43.1708 84.8308 45.429 81.9237C46.7129 80.3122 48.2456 78.9156 49.9693 77.7864L50.1211 77.6881C51.1221 77.0268 52.1588 76.3388 53.2313 75.7579C54.0507 75.3534 54.9067 75.0272 55.7875 74.784C55.9705 74.806 56.1421 74.884 56.279 75.0073C57.748 76.6283 59.3972 78.0763 61.1946 79.3233C61.8649 79.8327 62.5442 80.342 63.1966 80.8782C65.193 82.35 67.4818 83.3768 69.9086 83.8895L70.2483 83.9878C71.0258 84.1934 71.8123 84.4078 72.572 84.6759C73.5545 84.9821 74.5733 85.1563 75.6018 85.1942C76.1291 85.1942 76.6743 85.2746 77.1927 85.355C78.8461 85.6231 80.3118 85.8286 81.6614 86.0073C82.3467 86.0874 83.036 86.1292 83.726 86.1324C84.8878 86.1324 85.1023 86.2397 85.5135 87.4013C85.9246 88.563 86.3357 89.8408 86.7021 91.1901C87.5926 94.5342 87.7933 98.0244 87.292 101.448C86.5178 108.12 83.3217 114.276 78.3098 118.748C76.5841 120.341 74.7004 121.755 72.6882 122.966C71.5563 123.575 70.3928 124.124 69.2026 124.61L69.1758 124.646ZM44.7587 159.236L43.5075 159.576C41.4281 160.156 39.2258 160.129 37.1618 159.496C34.1568 158.75 31.2904 157.528 28.6713 155.877C26.5171 154.565 24.5837 152.921 22.9425 151.007C21.9752 149.733 21.1199 148.379 20.3862 146.959C19.5537 145.458 18.8164 143.906 18.1787 142.312C17.8953 141.5 17.68 140.666 17.5353 139.819C17.4727 139.515 17.4191 139.22 17.3476 138.925C16.6738 135.65 16.8992 132.253 18 129.096C18.6525 127.085 19.2781 125.298 19.9216 123.627C20.5624 122.155 21.3883 120.771 22.3794 119.508L22.7815 118.936C23.9763 117.259 25.3487 115.716 26.8748 114.334C28.591 112.836 30.4673 111.533 32.4697 110.447C34.166 109.476 35.9888 108.745 37.8858 108.275C38.8559 108.063 39.8428 107.938 40.8351 107.9C41.3982 107.9 41.9791 107.838 42.5511 107.838C43.0293 107.836 43.507 107.865 43.9811 107.927C46.182 108.247 48.2647 109.123 50.0318 110.474L50.9255 111.153C52.713 112.493 54.572 113.833 56.3594 115.272C57.015 115.805 57.614 116.404 58.1469 117.059L58.7905 117.828C59.8676 118.996 60.7869 120.299 61.5253 121.706C62.0973 122.921 62.8302 124.539 63.4379 126.227C63.6404 126.931 63.7515 127.658 63.7686 128.39V128.595C63.7686 129.239 63.7686 129.882 63.7686 130.383C63.7686 130.579 63.7686 130.749 63.7686 130.892C64.0042 134.473 63.703 138.069 62.8749 141.561C62.5001 142.978 61.9412 144.338 61.2125 145.609L60.7031 146.61C60.0282 147.944 59.2793 149.238 58.4598 150.488C58.2173 150.836 57.9452 151.162 57.6465 151.462C57.432 151.695 57.2086 151.936 57.012 152.186C55.5075 154.113 53.5934 155.682 51.4082 156.779C50.0528 157.429 48.6553 157.987 47.2254 158.45L46.8501 158.584C46.2334 158.825 45.5005 159.022 44.7855 159.201L44.7587 159.236ZM17.8391 154.241C18.7328 154.179 19.5015 154.125 20.288 154.107C20.451 154.149 20.5975 154.239 20.7081 154.366C22.4821 156.229 24.51 157.833 26.7319 159.129C23.4072 158.029 20.2875 156.387 17.4995 154.268L17.8391 154.241ZM9.96527 122.751C9.9698 122.654 9.99734 122.559 10.0457 122.474C10.6624 121.304 11.297 120.098 11.9762 118.945C12.0325 118.857 12.1088 118.783 12.1989 118.731C12.289 118.678 12.3903 118.647 12.4945 118.641C14.282 118.704 16.0069 118.811 17.714 118.918H18.3039L18.5094 118.972L16.7219 122.912L9.96527 122.751ZM30.1728 107.561C28.9216 108.258 27.7061 109.008 26.5978 109.723C26.4603 109.834 26.3004 109.913 26.1291 109.957C25.9579 110 25.7794 110.006 25.6058 109.973C24.712 109.803 23.711 109.696 22.7815 109.598L22.0665 109.517C25.2384 107.776 28.7455 106.731 32.3535 106.452C31.6206 106.783 30.8789 107.149 30.1728 107.561ZM22.1916 113.682C21.6643 114.334 21.1459 114.968 20.6276 115.585C20.5456 115.629 20.4522 115.648 20.3595 115.639C18.5273 115.531 16.6951 115.397 14.9255 115.272C15.8523 114.288 16.8341 113.357 17.8659 112.484L18.0269 112.332C18.948 112.803 19.9604 113.068 20.994 113.11C21.4922 113.158 21.9874 113.232 22.4777 113.333L22.1916 113.682ZM15.0417 127.764C14.8719 128.336 14.7021 128.908 14.5591 129.489C14.4698 129.829 14.3446 129.927 14.005 129.927L11.1539 129.846L8.05265 129.775L7.98119 129.73H7.91857L8.05265 129.105C8.21352 128.318 8.38331 127.496 8.58887 126.71C8.65971 126.584 8.77417 126.489 8.91061 126.442C10.6981 126.442 12.4856 126.442 14.2731 126.442H15.3903C15.3928 126.484 15.3928 126.525 15.3903 126.567C15.2741 126.96 15.1579 127.353 15.0506 127.747L15.0417 127.764ZM7.69513 133.394C7.69513 133.394 7.74875 133.394 7.69513 133.394L13.004 133.591H13.719L13.6207 135.378H13.5671C13.4443 135.41 13.3184 135.428 13.1917 135.431H12.852C11.3952 135.431 9.92948 135.351 8.47268 135.288C7.65938 135.288 7.65943 135.288 7.63262 134.395C7.63262 134.109 7.63262 133.823 7.63262 133.564L7.69513 133.394ZM13.8351 139.006L14.6216 143.107H14.0586C13.4061 143.107 12.7805 143.107 12.1549 143.107C11.5293 143.107 10.8768 143.027 10.2423 142.973L9.55408 142.92C8.99012 141.685 8.63385 140.365 8.49952 139.015L13.8351 139.006ZM11.0646 146.762H12.852C13.7458 146.762 14.6396 146.762 15.4618 146.833C15.6316 146.859 15.7851 146.948 15.8908 147.084C16.3019 147.897 16.6773 148.719 17.1152 149.657L17.4012 150.283H15.9265H15.4975C15.2008 150.245 14.9005 150.245 14.6038 150.283C13.2989 150.542 12.6465 149.836 12.0745 148.71C11.8028 148.177 11.5045 147.658 11.1808 147.155L10.9305 146.771L11.0646 146.762ZM20.3774 94.7019L21.0477 94.8449C21.6733 94.9789 22.3079 95.1129 22.9425 95.2291C25.8163 95.8618 28.8074 95.7106 31.6028 94.7913C32.4965 94.4696 33.3903 94.0764 34.2304 93.6921L35.6783 93.0577C35.8248 92.9926 35.9653 92.9148 36.0983 92.8254C36.2722 92.7059 36.4659 92.6182 36.6703 92.5662C36.3499 95.904 36.5915 99.2718 37.3853 102.53H37.1976C36.858 102.53 36.5809 102.53 36.3039 102.53C32.3178 102.699 28.0903 103.093 24.0953 104.79C20.2075 106.376 16.5895 108.556 13.3704 111.251C11.1922 113.129 9.3251 115.34 7.83816 117.801C5.36008 121.855 3.92884 126.461 3.67328 131.205C3.59285 132.661 3.67328 134.136 3.67328 135.565C3.67328 136.164 3.67328 136.772 3.67328 137.424C3.663 137.787 3.69295 138.149 3.76263 138.505C4.1112 140.007 4.48656 141.517 4.87087 142.973L4.96033 143.34C5.28172 145.099 5.9765 146.769 6.99798 148.236C7.05539 148.318 7.09778 148.408 7.12312 148.505C7.15033 148.601 7.18936 148.694 7.23931 148.782C7.427 149.148 7.61468 149.523 7.79343 149.898C8.21018 150.797 8.68794 151.666 9.2234 152.499C10.4375 154.158 11.8548 155.659 13.442 156.967L13.7816 157.271C15.5806 158.771 17.5663 160.033 19.6892 161.024L20.5293 161.461C22.0701 162.341 23.7077 163.04 25.4092 163.543L26.8034 163.91C28.4912 164.442 30.2382 164.763 32.0049 164.866C32.4965 164.866 32.9881 164.866 33.4796 164.866C34.2386 164.821 34.9997 164.821 35.7587 164.866C36.4916 164.929 37.2155 164.955 37.9394 164.955C41.4888 164.87 45.0135 164.341 48.4319 163.383C48.8405 163.269 49.2383 163.119 49.6207 162.936L49.7815 162.864C52.1545 161.835 54.3527 160.442 56.2969 158.736C57.9899 157.274 59.5954 155.713 61.1053 154.063C63.2681 151.668 64.4747 148.612 65.4399 145.931C66.7303 142.186 67.4622 138.272 67.6118 134.314C67.6118 134.055 67.6117 133.805 67.6832 133.519V133.278L68.1748 133.215C68.6714 133.165 69.164 133.081 69.6495 132.965C70.4807 132.751 71.3118 132.509 72.143 132.277C73.1529 131.991 74.1987 131.687 75.2354 131.437C76.511 131.109 77.7415 130.626 78.8997 129.998C79.5343 129.668 80.1956 129.373 80.8391 129.105L82.0189 128.578C82.3543 128.416 82.6744 128.225 82.9752 128.006C83.3327 127.756 83.6723 127.487 84.0119 127.219L84.4409 126.889C86.894 125.095 89.158 123.056 91.1977 120.803C95.0309 116.346 97.4622 110.856 98.1867 105.023C98.3744 103.557 98.4369 102.047 98.4995 100.555V99.8936C98.7056 94.3611 97.4412 88.8728 94.8352 83.9878L94.9692 83.9253L95.863 83.4874C97.7335 82.6349 99.4164 81.42 100.814 79.9131C101.333 79.3591 101.833 78.7872 102.343 78.2242C102.852 77.6613 103.433 76.9911 103.996 76.4371C106.25 74.0005 107.973 71.1218 109.055 67.9838C110.423 64.0127 111.261 59.8784 111.548 55.6881C111.625 54.9544 111.625 54.2146 111.548 53.4809C111.188 49.8713 110.591 46.2892 109.761 42.7579C109.509 41.7264 109.131 40.7299 108.635 39.7913C106.503 35.9616 103.45 32.7243 99.7507 30.3729C97.6933 29.1156 95.4784 28.1361 93.1639 27.4598L92.7795 27.3347C91.6534 26.9505 90.4916 26.6199 89.3654 26.3071C88.2393 25.9943 87.1579 25.6816 86.0764 25.3152C84.3035 24.7776 82.4844 24.4067 80.6425 24.2072L80.151 24.1357C77.6015 23.7822 75.0045 24.0364 72.572 24.8774C71.8748 25.1097 71.1242 25.2795 70.4092 25.4493L69.6406 25.628C69.5869 25.4671 69.5422 25.3152 69.4975 25.1633C69.3717 24.6989 69.2104 24.2448 69.0149 23.8051C68.2999 22.286 67.5134 20.6865 66.4498 18.6044C65.2695 16.4064 63.9251 14.3005 62.428 12.3047C60.8277 9.96378 58.8564 7.89935 56.5918 6.19256C53.3544 3.77599 49.6363 2.08178 45.6882 1.22424C43.424 0.803012 41.1386 0.504714 38.8421 0.330659L36.572 0.107264C35.4836 -0.0213543 34.3854 -0.0482749 33.292 0.0268445C32.1212 0.134074 30.9325 0.339598 29.7974 0.536186L28.5819 0.741706C28.1716 0.794279 27.7675 0.88706 27.3754 1.01871L25.7845 1.59061C24.3367 2.07907 22.9165 2.64583 21.5303 3.28841C19.6719 4.19145 17.8983 5.25908 16.2304 6.4785C14.5453 7.81996 13.043 9.37608 11.7617 11.1073C10.0234 13.3097 8.55048 15.7091 7.37339 18.2559C6.29396 20.3682 5.56065 22.6399 5.20155 24.9846C5.0228 26.325 4.89774 27.4241 4.8173 28.4249C4.37711 32.5005 4.99265 36.6208 6.60479 40.39L8.91061 45.6442C8.60674 45.948 8.28505 46.2519 7.97224 46.5378C7.17681 47.3063 6.34562 48.1016 5.61275 48.9594C4.87988 49.8172 4.20059 50.7466 3.55709 51.6402L2.87784 52.5963C0.866913 55.3575 -0.0536428 60.2811 -0.0268305 63.7035C-0.0268305 64.1771 -0.0268305 64.6507 -0.0268305 65.1333C-0.0848606 67.5836 0.0616166 70.0346 0.411095 72.4606C1.00097 75.8473 1.82324 79.7344 4.23635 83.0138C5.08578 84.1858 5.99882 85.3105 6.97125 86.3826C7.38386 86.8093 7.83897 87.1925 8.32965 87.5264C8.52628 87.6694 8.73187 87.8124 8.91955 87.9643C12.3363 90.8335 16.213 93.1054 20.3862 94.684L20.3774 94.7019ZM4.54019 76.0171L4.29886 75.061C3.42677 71.4059 3.10749 67.6408 3.35155 63.8912C3.48096 61.6216 4.0453 59.3979 5.0139 57.3412C6.36963 54.4333 8.28264 51.8194 10.6445 49.6475C10.69 49.6024 10.741 49.5634 10.7964 49.5313L11.145 49.9692C11.4935 50.416 11.8332 50.8627 12.1907 51.247C12.7716 51.8904 13.4598 52.6499 14.2106 53.3648C15.435 54.5264 16.4002 55.4021 17.3387 56.1885C17.9114 56.6597 18.508 57.1012 19.1261 57.511L19.5104 57.7612L20.6813 58.5654C21.7627 59.3071 22.8709 60.0756 24.0328 60.7368C25.5453 61.5844 27.1094 62.3365 28.716 62.9887C32.1049 64.3869 35.7148 65.1735 39.3783 65.312C41.4568 65.3456 43.5271 65.0439 45.5095 64.4184C46.4032 64.1682 47.2969 63.8465 48.1281 63.5248L49.4866 63.0333C49.7815 62.935 50.0765 62.8546 50.3803 62.7653L50.5859 62.7116C50.72 63.1406 50.8451 63.5605 50.9702 63.9805C51.3188 65.1422 51.6495 66.2324 52.0695 67.3225C52.4896 68.4127 52.9632 69.4493 53.4727 70.4679C53.6425 70.8254 53.8123 71.1828 53.9732 71.5402L52.8829 72.0406C51.8729 72.4964 50.8272 72.9342 49.8441 73.5061C48.6967 74.1274 47.6079 74.8512 46.5909 75.6686C44.1028 77.734 41.9501 80.1727 40.2095 82.8977C39.6407 83.7947 39.1331 84.7291 38.6902 85.6946C38.4757 86.1324 38.2612 86.5882 38.0289 86.9992L37.9752 87.1064C37.9462 87.1893 37.9006 87.2653 37.8411 87.3298C37.4121 87.5979 36.9474 87.8749 36.572 88.1519C34.9427 89.3411 33.152 90.292 31.2542 90.9757C29.7344 91.468 28.1681 91.8033 26.5799 91.9765C24.9935 92.0648 23.4053 91.8401 21.9057 91.3152C17.6399 89.9927 13.6996 87.7886 10.3406 84.8457C8.46559 83.3203 6.87942 81.4711 5.65737 79.3859C5.12194 78.3182 4.74845 77.1768 4.54913 75.9992L4.54019 76.0171ZM39.2533 4.0837C40.7389 4.16742 42.1977 4.51541 43.5611 5.11132C44.7827 5.54894 45.9263 6.17947 46.9484 6.97891C48.7456 8.51742 50.3834 10.2328 51.8372 12.0991L52.5075 12.8944C53.6809 14.2348 54.7252 15.6829 55.6266 17.2194C57.6766 20.7763 58.5669 24.8836 58.1738 28.97V29.944C58.1738 30.6678 58.1738 31.4005 58.1738 32.1333C58.1861 32.403 58.1442 32.6724 58.0506 32.9257C57.957 33.1789 57.8134 33.4108 57.6286 33.6077C54.6034 37.4462 52.3925 41.861 51.1311 46.5825L50.8451 47.5654C50.547 48.5345 50.0778 49.4424 49.4598 50.2462C48.4043 51.6166 47.1154 52.7902 45.6524 53.7133C44.1374 54.6983 42.4836 55.4513 40.7458 55.9472C39.0208 56.4923 37.2334 56.957 35.4995 57.4127L35.1509 57.5021C34.6498 57.6177 34.1369 57.6747 33.6227 57.6718C31.5942 57.6308 29.5742 57.3974 27.5899 56.9748C24.998 56.4744 22.9334 55.1073 20.7527 53.6596L19.9305 53.1235C18.8769 52.5189 17.9436 51.7252 17.1777 50.7823C16.6951 50.1211 16.1946 49.4688 15.6941 48.8164C14.6864 47.5589 13.7581 46.2398 12.9146 44.8668C12.0541 43.3442 11.2725 41.7784 10.573 40.1755C10.1708 39.2819 9.76858 38.3883 9.33064 37.4947C8.4369 35.7076 8.43695 33.8311 8.49057 31.8562V31.3826C8.49057 30.8644 8.49057 30.3372 8.49057 29.8189V28.4696C8.5142 26.7403 8.87238 25.0319 9.54524 23.4387C10.4716 20.9314 11.7766 18.5808 13.4151 16.4688L14.3089 15.4411C15.7925 13.654 17.3207 11.8132 18.9473 10.1333C20.8815 8.24013 23.1887 6.77028 25.722 5.81725C27.6938 5.00931 29.7648 4.46838 31.8799 4.2088C33.034 4.07776 34.195 4.01808 35.3565 4.03009H36.1966C36.6524 4.03009 37.0904 4.03009 37.5551 4.03009C38.0199 4.03009 38.6186 4.03009 39.1549 4.03009L39.2533 4.0837ZM61.3287 22.2234C61.119 21.8691 60.9794 21.4778 60.9176 21.0707C60.861 20.7669 60.7803 20.4681 60.6763 20.1771C60.4797 19.6499 60.3187 19.1048 60.1579 18.5687C60.1579 18.4168 60.0775 18.2738 60.0239 18.1219C60.4326 18.0002 60.8683 18.0042 61.2747 18.1333C61.6811 18.2623 62.0393 18.5106 62.3029 18.8457C63.0464 19.7647 63.6269 20.8044 64.0189 21.9196L61.3287 22.2234ZM92.1539 84.9797L92.8511 86.7222L88.9723 86.9903L88.3555 85.8644L92.1539 84.9797ZM45.0804 60.3973C42.5152 61.2515 39.7989 61.556 37.1083 61.2909C37.3078 61.2007 37.5139 61.126 37.7249 61.0675L37.9752 60.987L39.4945 60.5045C40.5491 60.1739 41.6306 59.8343 42.6763 59.4322C43.4806 59.1105 43.8561 59.1641 44.2761 59.6556C44.504 59.9077 44.7521 60.1408 45.0179 60.3526L45.0804 60.3973ZM49.3883 58.9675L49.0487 59.1016H48.9772L46.8679 57.3144L47.2254 57.0642C47.6812 56.7604 48.1192 56.4655 48.5125 56.1706C48.9057 55.8757 49.3079 55.5004 49.719 55.1341L49.996 54.8928C49.996 54.9822 49.996 55.0536 50.0407 55.1162C50.0943 56.0098 50.139 56.9034 50.1659 57.7969C50.1927 58.6905 50.1927 58.6101 49.3973 58.9497L49.3883 58.9675ZM100.77 37.7628H100.546C100.375 37.6246 100.251 37.4376 100.189 37.2267C99.801 36.3311 99.2663 35.5065 98.6067 34.7872C98.3654 34.4923 98.1242 34.2064 97.9007 33.8936C97.6773 33.5809 97.5074 33.3932 97.2751 33.1162C99.6023 34.2471 101.607 35.9467 103.102 38.0577C102.32 38.022 101.542 37.9173 100.779 37.745L100.77 37.7628ZM99.1877 45.537L99.3039 46.0195C100.198 49.6922 101.091 53.4809 101.091 57.3591C101.095 60.0782 100.723 62.7847 99.9831 65.4013C99.8369 65.8667 99.6639 66.3232 99.4648 66.7685C99.3039 67.1438 99.143 67.5191 99.009 67.9034C97.6237 71.9245 94.8083 74.8912 91.8054 77.8221C91.5738 78.0615 91.3089 78.2661 91.0189 78.4298C90.6673 78.6085 90.3188 78.7961 89.9732 78.9927C88.5185 79.8717 86.9564 80.5594 85.3257 81.039C84.2372 81.2659 83.1305 81.3945 82.0189 81.4233L80.7766 81.4948C80.4972 81.5211 80.2158 81.5211 79.9364 81.4948H79.5253H79.2483V81.5394L78.1489 81.459C77.0675 81.3875 75.995 81.3071 74.9136 81.2177C73.1583 81.0068 71.4479 80.5182 69.8461 79.7701C69.3099 79.5467 68.7825 79.2965 68.2552 79.0553C67.5939 78.7425 66.9056 78.4119 66.2085 78.1617C64.7061 77.5183 63.2695 76.7313 61.9186 75.8116C60.5623 74.951 59.4045 73.8118 58.5223 72.4696C56.8454 69.7181 55.4557 66.8017 54.3754 63.7661L54.3039 63.5873C54.0218 62.9148 53.8411 62.2041 53.7677 61.4785C53.5532 58.6369 53.4102 56.0366 53.3297 53.5256C53.341 52.9432 53.4219 52.3642 53.571 51.801C53.571 51.6223 53.6604 51.4346 53.6961 51.2559C54.1068 48.6125 54.8641 46.0346 55.9484 43.589L56.3684 42.749C57.6107 40.2202 58.8978 37.6199 61.0428 35.645C61.3003 35.4014 61.542 35.1418 61.7666 34.8676C61.9764 34.6168 62.2001 34.3782 62.4369 34.1528C63.8824 32.8607 65.5985 31.9081 67.4598 31.3648C68.1926 31.1324 68.9077 30.8644 69.6227 30.6052C70.579 30.2478 71.5621 29.8904 72.5452 29.6044C74.6419 28.9543 76.821 28.6082 79.0159 28.5768C80.0171 28.5753 81.0162 28.6651 82.001 28.8449L83.1986 29.0593C84.8163 29.3453 86.4965 29.6402 88.1321 29.9529C88.5415 30.0538 88.9251 30.2395 89.2582 30.498C91.4471 32.0368 93.3984 33.8884 95.0497 35.9935C96.2368 37.6359 97.1791 39.4419 97.8471 41.355C98.3828 42.7138 98.8335 44.1045 99.1966 45.5191L99.1877 45.537ZM87.4797 114.343L87.8729 113.512L88.4985 112.18C88.6773 111.814 88.7488 111.725 88.9723 111.751L91.3228 112.109L92.2166 112.243L90.4291 115.504L87.2115 114.816L87.4797 114.343ZM58.4509 14.905C57.4079 12.9243 56.1098 11.0887 54.5898 9.4452C54.8332 9.61813 55.0605 9.81252 55.2691 10.026C56.6008 11.3664 57.9503 12.8319 59.0586 14.1186C59.1993 14.3063 59.3108 14.5142 59.3892 14.7352L58.4509 14.905ZM72.7508 127.344L73.859 128.238C72.1001 129.106 70.1791 129.596 68.2194 129.677V128.694L72.7508 127.344ZM82.6355 120.035C83.1003 119.508 83.5293 119.043 83.9315 118.632C84.1463 118.42 84.4341 118.299 84.7358 118.292C85.5581 118.418 86.3893 118.605 87.2652 118.802L87.9086 118.945C87.2281 119.823 86.4682 120.637 85.6385 121.375C85.59 121.406 85.5357 121.427 85.4788 121.437C85.4219 121.446 85.3637 121.443 85.3078 121.429C84.4856 121.179 83.6723 120.911 82.8143 120.625L82.278 120.446L82.6355 120.035ZM94.5938 105.818L93.7001 108.499C92.4243 108.47 91.156 108.296 89.9196 107.981L90.4468 105.532C91.8268 105.431 93.2142 105.527 94.567 105.818H94.5938ZM91.3406 102.011L91.564 97.472C92.1568 97.3976 92.7545 97.3707 93.3515 97.3916C93.9899 97.4119 94.629 97.388 95.2641 97.3201C95.3191 98.9025 95.2833 100.487 95.1569 102.065C94.7547 102.065 94.3615 102.065 93.9772 102.065C93.0891 102.096 92.2 102.078 91.3139 102.011H91.3406ZM91.1529 93.7458L90.4737 90.5825L94.1648 90.234C94.5902 91.3602 94.8433 92.5441 94.9156 93.7458H91.1529ZM107.24 60.853C106.926 63.1998 106.27 65.4879 105.292 67.6442L103.138 67.0902L104.586 60.6653C105.478 60.5906 106.376 60.6539 107.249 60.853H107.24Z" fill="black"/>
<path d="M215.946 85.1316C215.893 83.4785 215.83 81.7628 215.848 80.074C215.867 77.7869 215.642 75.5044 215.178 73.2649C214.924 71.9067 214.563 70.571 214.096 69.2706C213.712 68.3503 213.27 67.455 212.773 66.5898C212.559 66.1966 212.336 65.8035 212.139 65.4014C211.213 63.6506 209.913 62.1252 208.332 60.9334C207.963 60.637 207.611 60.3208 207.277 59.9862L206.839 59.5752C205.474 58.2594 203.942 57.1297 202.281 56.2153C200.02 54.9748 197.62 54.006 195.131 53.3291C193.143 52.7858 191.122 52.3738 189.08 52.0959C186.269 51.7824 183.435 51.7465 180.617 51.9887H180.071C179.383 52.0173 178.697 52.0859 178.016 52.1942C177.644 52.2755 177.281 52.3953 176.934 52.5516C176.666 52.6499 176.425 52.7482 176.166 52.8197C175.612 52.9716 175.049 53.0967 174.486 53.2308C173.922 53.3648 173.225 53.5256 172.609 53.6954C169.547 54.5345 166.689 55.9878 164.207 57.9667C162.629 59.1362 161.192 60.4857 159.926 61.9879C159.578 62.4257 159.176 62.8815 158.791 63.2478C158.324 63.7097 157.888 64.2023 157.487 64.7222C155.81 66.9958 154.395 69.4507 153.268 72.0407C153.161 72.273 153.045 72.4964 152.919 72.7109L152.857 72.827L150.015 70.2982L145.224 66.0447L145.072 65.9107C144.179 65.1333 143.285 64.329 142.329 63.6052C142.189 63.4807 142.024 63.387 141.845 63.33C141.667 63.2731 141.478 63.2542 141.292 63.2746C141.096 63.3389 140.916 63.4426 140.762 63.5794C140.609 63.7162 140.485 63.8832 140.398 64.0699C139.951 64.7888 139.739 65.6288 139.79 66.4737C139.844 67.9481 139.853 69.4582 139.871 70.9416V72.0943C139.871 73.2202 139.871 74.3551 139.871 75.481V77.4736H139.674H135.206H129.226L116.714 77.563C116.163 77.572 115.613 77.6228 115.069 77.7149C114.908 77.742 114.755 77.802 114.618 77.8912C114.481 77.9804 114.364 78.0968 114.274 78.2332C113.776 78.9929 113.492 79.8726 113.452 80.7799C113.452 81.3786 113.452 81.9862 113.362 82.5671C113.273 83.1479 113.3 83.5143 113.282 83.9968V84.4615C113.219 86.7848 113.166 89.1796 113.175 91.5476C113.153 91.8016 113.185 92.0575 113.271 92.2979C113.356 92.5383 113.491 92.7577 113.668 92.9414C113.845 93.125 114.059 93.2687 114.296 93.3628C114.533 93.4568 114.788 93.4991 115.043 93.4866C116.097 93.576 116.902 93.6296 117.652 93.6386H120.101C121.174 93.6386 122.282 93.6386 123.372 93.6386C128.27 93.7726 132.587 93.7368 136.555 93.5135C137.243 93.5135 137.931 93.5135 138.664 93.5135H139.46V95.0951C139.46 96.5338 139.504 97.9367 139.513 99.3485C139.513 100.063 139.513 100.769 139.513 101.475C139.513 102.789 139.513 104.093 139.513 105.398C139.533 106.093 139.599 106.785 139.71 107.471C139.691 107.698 139.74 107.926 139.851 108.126C139.962 108.325 140.129 108.487 140.332 108.591C140.535 108.695 140.764 108.737 140.99 108.711C141.217 108.685 141.431 108.593 141.605 108.445C142.035 108.228 142.447 107.977 142.838 107.695C145.102 106.038 147.357 104.373 149.604 102.699C150.024 102.387 150.435 102.047 150.828 101.708L151.516 101.136L153.304 99.7238L154.037 99.1341L154.117 99.2771C154.251 99.5362 154.358 99.7596 154.475 99.9919C155.438 102.07 156.686 104.004 158.184 105.738C160.512 108.534 163.366 110.848 166.585 112.547C169.106 113.914 171.817 114.896 174.629 115.46C177.082 115.86 179.556 116.132 182.038 116.273C182.842 116.273 183.637 116.353 184.424 116.353C185.598 116.372 186.771 116.255 187.919 116.005C190.418 115.454 192.888 114.777 195.319 113.976C198.947 112.812 202.359 111.058 205.418 108.785C207.507 107.153 209.341 105.219 210.861 103.048C212.027 101.307 212.998 99.4431 213.757 97.4899C213.909 97.1146 214.069 96.7482 214.23 96.3729C215.451 93.6676 216.062 90.7265 216.018 87.7588C215.946 86.9367 215.946 86.0342 215.946 85.1316ZM204.944 103.897C203.342 105.586 201.419 106.938 199.287 107.873L203.47 103.173L204.944 103.897ZM140.711 89.7693H140.559L138.432 89.8498C136.796 89.9123 135.107 89.9749 133.454 89.9838C131.8 89.9927 129.879 89.9838 128.207 89.8944C127.367 89.8944 126.536 89.8498 125.696 89.8408H124.588H123.015C120.932 89.7693 118.859 89.68 116.759 89.5817C116.613 89.5746 116.469 89.5507 116.33 89.5102H116.249V87.723C116.249 86.0878 116.249 84.39 116.249 82.7279C116.249 81.8343 116.249 81.8343 117.268 81.7807C119.592 81.7152 121.922 81.6616 124.257 81.6199L130.746 81.468C131.407 81.468 132.06 81.468 132.721 81.3875C133.552 81.3875 134.41 81.3071 135.259 81.2982C136.448 81.2982 137.672 81.2982 138.834 81.2982H140.622C140.897 81.3316 141.176 81.304 141.439 81.2173C141.702 81.1307 141.943 80.9871 142.144 80.7969C142.345 80.6067 142.502 80.3744 142.604 80.1166C142.705 79.8589 142.749 79.5819 142.731 79.3055C142.731 78.4119 142.731 77.4111 142.731 76.4907C142.731 75.5703 142.731 74.8465 142.731 74.0244C142.731 72.7377 142.793 71.4598 142.838 70.1016C142.838 69.6548 142.838 69.208 142.892 68.7255C143.065 68.8209 143.23 68.9316 143.383 69.0561L147.763 73.0325C149.836 74.9269 151.921 76.8124 154.019 78.6889C156.137 80.6012 158.282 82.4956 160.427 84.3989L163.609 87.2137L163.698 87.3209L163.618 87.4103C163.456 87.5913 163.283 87.7614 163.099 87.9196L157.996 91.6905C155.252 93.719 152.499 95.7474 149.765 97.7937C148.513 98.732 147.271 99.7328 146.073 100.698L144.179 102.217C143.794 102.521 143.401 102.816 142.945 103.111L142.615 103.361C142.615 103.2 142.615 103.048 142.615 102.896C142.615 102.288 142.534 101.761 142.525 101.234C142.525 98.7945 142.525 96.355 142.525 93.9156V93.6832C142.525 93.2811 142.525 92.879 142.525 92.4769V91.9765C142.521 91.9259 142.521 91.8751 142.525 91.8246C142.525 91.7174 142.525 91.6191 142.525 91.5208C142.543 91.2791 142.507 91.0364 142.42 90.8104C142.332 90.5844 142.195 90.3809 142.018 90.2148C141.842 90.0486 141.631 89.924 141.4 89.85C141.169 89.776 140.924 89.7546 140.684 89.7872L140.711 89.7693ZM159.033 95.3095C159.64 94.8359 160.257 94.3713 160.874 93.9066C161.491 93.442 162.34 92.7986 163.055 92.2356C164.19 91.3421 165.039 90.6451 165.798 89.957C166.674 89.0657 167.262 87.9329 167.488 86.7044C167.562 86.4457 167.559 86.1711 167.48 85.914C167.4 85.657 167.248 85.4286 167.041 85.2567L166.147 84.4615L157.531 76.9911C157.444 76.9109 157.364 76.8243 157.29 76.732L157.21 76.6516C157.29 76.455 157.379 76.2673 157.451 76.0797C157.674 75.5703 157.88 75.0967 158.121 74.632C160.479 69.967 163.644 65.7559 167.47 62.1934C169.144 60.5486 171.072 59.1847 173.181 58.1544C174.953 57.2845 176.922 56.8932 178.892 57.0195C179.526 57.0732 180.17 57.1 180.813 57.1268H181.805C185.214 57.4544 188.524 58.4504 191.547 60.0577C193.372 60.9295 195.025 62.122 196.427 63.5784C198.033 65.1995 199.487 66.9642 200.771 68.8506C202.221 71.0916 203.288 73.559 203.926 76.1512L204.113 76.8928C204.229 77.3843 204.345 77.8758 204.497 78.3494C204.911 79.9587 205.041 81.6279 204.882 83.2819C204.882 83.8985 204.882 84.5151 204.882 85.1227C204.882 85.5159 204.882 85.9091 204.882 86.3112C204.868 88.5469 204.466 90.7632 203.693 92.8611C203.505 93.3705 203.318 93.8888 203.139 94.3981C202.536 96.368 201.68 98.2513 200.592 100.001C199.172 102.179 197.505 104.185 195.623 105.979C193.718 107.766 191.62 109.333 189.366 110.652C188.086 111.38 186.673 111.842 185.21 112.011C183.372 112.239 181.516 112.281 179.669 112.136H179.473C176.532 111.903 173.493 111.671 170.875 110.036L169.481 109.214C168.846 108.856 168.194 108.481 167.586 108.07C164.199 105.818 162 103.504 160.659 100.787C160.436 100.323 160.204 99.8936 159.971 99.4111C159.515 98.5175 159.077 97.6239 158.631 96.6499C158.246 95.944 158.246 95.944 159.006 95.3274L159.033 95.3095ZM210.45 70.7718C210.216 70.8383 209.977 70.8832 209.735 70.9058L207.867 70.9862L206.401 71.0399C206.088 71.0399 205.972 71.0399 205.865 70.7897C205.516 70.0837 205.141 69.3867 204.739 68.6272L204.39 67.9749L208.975 66.9294C209.668 68.1263 210.208 69.4051 210.584 70.736L210.45 70.7718ZM209.395 80.0025L208.635 80.074L207.366 75.0074C208.044 74.878 208.732 74.8092 209.422 74.8018C210.081 74.7992 210.739 74.7394 211.388 74.6231C211.751 76.2016 211.957 77.8118 212.005 79.4306C212.005 79.6629 211.916 79.7701 211.683 79.797L209.395 80.0025ZM209.127 89.9123L208.555 90.0017V89.9481C208.546 89.7665 208.546 89.5845 208.555 89.403C208.609 88.7417 208.671 88.0805 208.734 87.4192C208.805 86.5793 208.886 85.7482 208.948 84.9082C208.948 84.3364 208.948 84.3364 209.485 84.2917L211.37 84.1487H211.942V84.5061C211.942 84.9619 211.942 85.3997 211.88 85.8197L211.772 87.2316C211.772 87.7945 211.683 88.3575 211.647 88.9294C211.612 89.5013 211.46 89.6174 211.013 89.671C210.36 89.6889 209.753 89.814 209.1 89.9302L209.127 89.9123ZM205.784 63.6946L204.542 63.9269L202.603 64.2933C202.453 64.3505 202.288 64.3523 202.137 64.2982C201.986 64.2441 201.86 64.1377 201.781 63.9984C201.501 63.6289 201.203 63.274 200.887 62.9351L200.744 62.7653L203.765 61.5143C204.093 61.8152 204.439 62.0957 204.801 62.3542C205.325 62.7077 205.805 63.1216 206.231 63.5874L205.784 63.6946ZM198.813 58.8425C198.214 59.1284 197.642 59.3875 197.088 59.602C196.931 59.5476 196.784 59.4693 196.65 59.3697L195.14 58.351C194.425 57.8625 193.71 57.38 192.995 56.9034C192.709 56.7267 192.41 56.5714 192.101 56.4387C191.94 56.3762 191.788 56.3047 191.645 56.2332L191.556 56.1885C194.224 56.4801 196.798 57.3458 199.099 58.7263L198.813 58.8425ZM210.548 94.139C210.563 94.2397 210.563 94.3421 210.548 94.4428C210.057 96.1103 209.348 97.7057 208.439 99.1877C208.251 99.5094 208.09 99.6166 207.84 99.6166H205.534L207.322 94.4338L210.548 94.139Z" fill="black"/>
</g>
<defs>
<clipPath id="clip0_990_11597">
<rect width="216" height="165" fill="white"/>
</clipPath>
</defs>
</svg>
