<?xml version="1.0" encoding="utf-8"?>
<!-- Generator: Adobe Illustrator 26.0.0, SVG Export Plug-In . SVG Version: 6.00 Build 0)  -->
<svg version="1.1" id="Layer_1" xmlns="http://www.w3.org/2000/svg" xmlns:xlink="http://www.w3.org/1999/xlink" x="0px" y="0px"
	 viewBox="0 0 115 32" style="enable-background:new 0 0 115 32;" xml:space="preserve">
<style type="text/css">
	.st0{fill:#FCF7F2;}
</style>
<g>
	<path class="st0" d="M27.2,0H18v24.4h5.6v-7.7h3.7c4.8,0,8.5-3.7,8.5-8.4C35.7,3.7,32,0,27.2,0z M27.2,11.5h-3.7V5.2h3.7
		c1.7,0,3,1.4,3,3.1S28.9,11.5,27.2,11.5z"/>
	<rect x="9" y="17.8" class="st0" width="6.7" height="6.7"/>
	<rect y="17.7" class="st0" width="6.7" height="6.7"/>
	<rect x="9" y="8.8" class="st0" width="6.7" height="6.7"/>
	<path class="st0" d="M86.9,0h-9.2v24.4h5.6v-7.7h3.7c4.8,0,8.5-3.7,8.5-8.4C95.4,3.7,91.7,0,86.9,0z M86.9,11.5h-3.7V5.2h3.7
		c1.7,0,3,1.4,3,3.1S88.6,11.5,86.9,11.5z"/>
	<path class="st0" d="M49.8,8.2C48.6,6.8,46.9,6,44.5,6c-4.7,0-8.5,4.1-8.5,9.4c0,5.3,3.9,9.4,8.5,9.4c2.4,0,4.2-0.8,5.3-2.2v1.7
		h5.4V6.5h-5.4V8.2z M45.6,19.8c-2.5,0-4.3-1.7-4.3-4.4s1.8-4.4,4.3-4.4c2.5,0,4.3,1.7,4.3,4.4S48,19.8,45.6,19.8z"/>
	<path class="st0" d="M105.4,6.5c-5.1,0-9.2,4-9.2,9.2c0,5.2,4.1,9.2,9.2,9.2c5.1,0,9.2-4,9.2-9.2C114.6,10.5,110.5,6.5,105.4,6.5z
		 M105.4,19.8c-2.3,0-4-1.6-4-4.1c0-2.5,1.7-4.1,4-4.1c2.3,0,4,1.6,4,4.1C109.4,18.1,107.6,19.8,105.4,19.8z"/>
	<path class="st0" d="M66.6,17.4L62.6,6.5h-5.9l7.1,17c-0.8,2.2-1.9,2.9-4.4,2.9v5c5,0.2,8.1-2,10.1-7.6l6.1-17.2h-5.7L66.6,17.4z"
		/>
</g>
</svg>
